<?xml version="1.0" encoding="utf-8"?>
<!-- Generator: Adobe Illustrator 27.7.0, SVG Export Plug-In . SVG Version: 6.00 Build 0)  -->
<svg version="1.1" id="Layer_1" xmlns="http://www.w3.org/2000/svg" xmlns:xlink="http://www.w3.org/1999/xlink" x="0px" y="0px"
	 viewBox="0 0 24 24" style="enable-background:new 0 0 24 24;" xml:space="preserve">
<style type="text/css">
	.st0{fill:#FFFFFF;}
	.st1{fill:#CCFF00;}
</style>
<g id="category_dark_active_icon" transform="translate(-295.501 -133.222)">
	<path id="Path_7141" class="st0" d="M319.3,149.5c-0.2-2-1.9-3.5-3.9-3.5h-6.2c-0.5-0.1-0.9,0.2-0.9,0.7c0,0.1,0,0.2,0,0.2
		c0,2.1,0,4.2,0,6.2c0,2.2,1.8,4,4,4h3.2c1.7,0,3.3-1.1,3.8-2.8c0.1-0.4,0.2-0.9,0.2-1.3C319.4,151.8,319.5,150.7,319.3,149.5z
		 M317.7,153.1c0,1.3-1,2.3-2.3,2.3c-1.1,0-2.2,0-3.2,0c-1.3,0-2.3-1-2.4-2.3l0,0c0-0.9,0-1.7,0-2.6s0-1.8,0-2.7
		c0-0.2,0.1-0.3,0.3-0.3c1.8,0,3.5,0,5.2,0c1.3,0,2.3,1,2.3,2.3l0,0C317.7,151.1,317.7,152,317.7,153.1L317.7,153.1z"/>
	<path id="Path_7142" class="st1" d="M317.7,150c0,1.1,0,2.1,0,3.2c0,1.3-1,2.3-2.3,2.3c-1.1,0-2.2,0-3.2,0c-1.3,0-2.3-1-2.4-2.3
		l0,0c0-0.9,0-1.7,0-2.6s0-1.8,0-2.7c0-0.2,0.1-0.3,0.3-0.3c1.8,0,3.5,0,5.2,0C316.7,147.7,317.7,148.7,317.7,150L317.7,150z"/>
	<path id="Path_7143" class="st0" d="M316.7,133.6c-0.4-0.2-0.9-0.2-1.3-0.2c-1.2,0-2.4-0.1-3.6,0.1c-2,0.2-3.5,1.9-3.5,3.9v6.2
		c-0.1,0.5,0.3,0.9,0.7,0.9c0.1,0,0.2,0,0.2,0h6.2c2.2,0,4-1.8,4-4c0-1.1,0-2.2,0-3.2C319.4,135.6,318.3,134.1,316.7,133.6z
		 M317.7,140.5c0,1.3-1,2.3-2.3,2.4l0,0c-0.9,0-1.7,0-2.5,0c-0.9,0-1.8,0-2.7,0c-0.2,0-0.3-0.1-0.3-0.3c0-1.8,0-3.5,0-5.3
		c0-1.3,1-2.3,2.3-2.3c1.1,0,2.2,0,3.2,0c1.3,0,2.3,1,2.3,2.3C317.7,138.4,317.7,139.4,317.7,140.5L317.7,140.5z"/>
	<path id="Path_7144" class="st1" d="M317.7,137.3c0,1.1,0,2.1,0,3.2c0,1.3-1,2.3-2.3,2.4l0,0c-0.9,0-1.7,0-2.5,0
		c-0.9,0-1.8,0-2.7,0c-0.2,0-0.3-0.1-0.3-0.3c0-1.8,0-3.5,0-5.3c0-1.3,1-2.3,2.3-2.3c1.1,0,2.2,0,3.2,0
		C316.7,135,317.7,136,317.7,137.3z"/>
	<path id="Path_7145" class="st0" d="M302.7,133.3c-1.1,0-2.2,0-3.2,0c-2.2,0-3.9,1.8-4,4c0,1.1,0,2.2,0,3.3c0,2.2,1.8,3.9,4,4h6.2
		c0.5,0.1,0.9-0.3,1-0.7c0-0.1,0-0.1,0-0.2c0-2.1,0-4.2,0-6.2C306.7,135.1,304.9,133.4,302.7,133.3z M305.1,142.5
		c0,0.2-0.1,0.3-0.3,0.3c-1.8,0-3.5,0-5.2,0c-1.3,0-2.3-1-2.3-2.3c0-1.1,0-2.1,0-3.2c0-1.3,1.1-2.3,2.3-2.4l0,0c1.1,0,2.1,0,3.2,0
		c1.3,0,2.3,1,2.4,2.3l0,0c0,0.9,0,1.7,0,2.5C305.1,140.7,305.1,141.6,305.1,142.5L305.1,142.5z"/>
	<path id="Path_7146" class="st1" d="M305.1,139.8c0,0.9,0,1.8,0,2.7c0,0.2-0.1,0.3-0.3,0.3c-1.8,0-3.5,0-5.2,0
		c-1.3,0-2.3-1-2.3-2.3c0-1.1,0-2.1,0-3.2c0-1.3,1.1-2.3,2.3-2.4l0,0c1.1,0,2.1,0,3.2,0c1.3,0,2.3,1,2.4,2.3l0,0
		C305.1,138.2,305.1,139.1,305.1,139.8z"/>
	<path id="Path_7147" class="st0" d="M305.8,146h-6.1c-2.2,0-4,1.8-4,4l0,0v3.2c0,2.2,1.8,4,4,4h3.2c2.2,0,4-1.8,4-4V147
		c0.1-0.5-0.3-0.9-0.7-1C305.9,146,305.8,146,305.8,146z M305.1,153.1c0,1.3-1,2.3-2.3,2.3c-1.1,0-2.1,0-3.2,0
		c-1.3,0-2.3-1.1-2.3-2.3c0-1.1,0-2.1,0-3.2c0-1.3,1-2.3,2.3-2.4l0,0c0.9,0,1.7,0,2.5,0c0.9,0,1.8,0,2.7,0c0.2,0,0.3,0.1,0.3,0.3
		C305.1,149.7,305.1,151.4,305.1,153.1z"/>
	<path id="Path_7148" class="st1" d="M305.1,147.9c0,1.8,0,3.5,0,5.3c0,1.3-1,2.3-2.3,2.3c-1.1,0-2.1,0-3.2,0
		c-1.3,0-2.3-1.1-2.3-2.3c0-1.1,0-2.1,0-3.2c0-1.3,1-2.3,2.3-2.4l0,0c0.9,0,1.7,0,2.5,0c0.9,0,1.8,0,2.7,0
		C305,147.6,305.1,147.7,305.1,147.9z"/>
</g>
</svg>
