<?xml version="1.0" encoding="utf-8"?>
<!-- Generator: Adobe Illustrator 27.7.0, SVG Export Plug-In . SVG Version: 6.00 Build 0)  -->
<svg version="1.1" id="Layer_1" xmlns="http://www.w3.org/2000/svg" xmlns:xlink="http://www.w3.org/1999/xlink" x="0px" y="0px"
	 viewBox="0 0 24 24" style="enable-background:new 0 0 24 24;" xml:space="preserve">
<style type="text/css">
	.st0{fill:none;}
	.st1{fill:#FFFFFF;}
	.st2{fill:#CCFF00;}
</style>
<g id="home_dark_active_icon" transform="translate(-2244 -9049)">
	<rect id="Rectangle_17558" x="2244" y="9049" class="st0" width="24" height="24"/>
	<g id="home_dark_active_icon-2" transform="translate(2013.374 8914.799)">
		<g id="Group_8473">
			<path id="Path_7134" class="st1" d="M252.2,141.3c-2.6-2.2-5.2-4.3-7.8-6.4c-1-0.9-2.6-0.9-3.6,0c-2.5,2.1-5.1,4.2-7.6,6.3
				c-0.7,0.6-1.1,1.4-1.1,2.3c0,3.9,0,7.8,0,11.7c0,0.3,0,0.5,0.1,0.8c0.3,1.3,1.4,2.2,2.7,2.2h15.6c0.2,0,0.5,0,0.7-0.1
				c1.3-0.3,2.1-1.5,2-2.8v-11.8C253.2,142.6,252.9,141.8,252.2,141.3z M251.5,155.4c0,0.6-0.4,1.1-1,1.2c-0.1,0-0.1,0-0.2,0H235
				c-0.6,0.1-1.1-0.3-1.2-0.9c0-0.1,0-0.2,0-0.3v-11.8c0-0.4,0.2-0.8,0.5-1c2.6-2.1,5.1-4.2,7.6-6.3c0.4-0.4,1.1-0.4,1.6,0
				c2.6,2.1,5.1,4.2,7.7,6.4c0.3,0.2,0.4,0.6,0.4,0.9V155.4z"/>
		</g>
		<path id="Path_7135" class="st2" d="M251.1,142.5c-2.6-2.1-5.1-4.2-7.7-6.4c-0.4-0.4-1.1-0.4-1.6,0l-7.6,6.3
			c-0.3,0.2-0.5,0.6-0.5,1v11.8c0,0.1,0,0.2,0,0.3c0.1,0.6,0.6,1,1.2,0.9h15.4c0.6,0.1,1.2-0.4,1.2-1c0-0.1,0-0.1,0-0.2v-11.9
			C251.5,143.1,251.4,142.8,251.1,142.5L251.1,142.5z M247.4,154.7c-0.5,0-1,0-1.5,0h-8c-0.5,0-0.9-0.3-0.9-0.8c0,0,0-0.1,0-0.1
			c0-0.4,0.3-0.7,0.7-0.8c0.1,0,0.2,0,0.3,0c3.1,0,6.1,0,9.2,0c0.1,0,0.2,0,0.4,0c0.4,0.1,0.7,0.5,0.7,1
			C248.1,154.4,247.8,154.7,247.4,154.7L247.4,154.7z"/>
		<path id="Path_7136" class="st1" d="M248.2,154c0,0.4-0.4,0.7-0.8,0.7c-0.5,0-1,0-1.5,0h-8c-0.5,0-0.9-0.3-0.9-0.8
			c0,0,0-0.1,0-0.1c0-0.4,0.3-0.7,0.7-0.8c0.1,0,0.2,0,0.3,0c3.1,0,6.1,0,9.2,0c0.1,0,0.2,0,0.4,0C248,153.1,248.3,153.5,248.2,154z
			"/>
	</g>
</g>
</svg>
