<svg xmlns="http://www.w3.org/2000/svg" xmlns:xlink="http://www.w3.org/1999/xlink" viewBox="0 0 211 211"><defs><style>.cls-1,.cls-30,.cls-4{fill:none;}.cls-2{isolation:isolate;}.cls-3{clip-path:url(#clip-path);}.cls-4{stroke:#a0c406;stroke-width:11.72px;}.cls-30,.cls-4,.cls-6{stroke-miterlimit:10;}.cls-5{opacity:0.09;}.cls-30,.cls-6{stroke:#000;}.cls-6{stroke-width:1.3px;}.cls-7{fill:#ffd9bd;}.cls-8{fill:#cf0;}.cls-9{fill:#ffa294;}.cls-10{fill:#9c5043;}.cls-11{fill:#7c4c50;}.cls-12{fill:#75484d;opacity:0.24;}.cls-12,.cls-20{mix-blend-mode:multiply;}.cls-13{fill:#fff;}.cls-14{fill:#4a2931;}.cls-15{fill:#41272a;}.cls-16{fill:#929497;}.cls-17{fill:#fde41b;}.cls-18{fill:#ffad12;}.cls-19{fill:#58595b;}.cls-20{fill:#414042;opacity:0.5;}.cls-21{fill:#a0c406;}.cls-22,.cls-23{fill:#ffcfe9;}.cls-22{opacity:0.79;}.cls-24{fill:#bbbdbf;}.cls-25{fill:#f0f1f1;}.cls-26{fill:#e5e6e7;}.cls-27{fill:#d0d2d3;}.cls-28{fill:#e8fb80;}.cls-29{font-size:2.57px;font-family:Mont-Regular, Mont;}.cls-30{stroke-linecap:round;stroke-width:1.04px;}</style><clipPath id="clip-path"><rect class="cls-1" width="211" height="211"/></clipPath></defs><g class="cls-2"><g id="Layer_1" data-name="Layer 1"><g class="cls-3"><rect width="211" height="211" rx="31.74"/><line class="cls-4" x1="48.16" y1="44.9" x2="48.16" y2="218.16"/><line class="cls-4" x1="162.84" y1="44.9" x2="162.84" y2="218.16"/><g class="cls-5"><rect class="cls-6" x="31.31" y="-30.15" width="18.55" height="91.12" rx="9.27"/><rect class="cls-6" x="49.86" y="-30.15" width="18.55" height="91.12" rx="9.27"/><rect class="cls-6" x="68.4" y="-30.15" width="18.55" height="91.12" rx="9.27"/><rect class="cls-6" x="86.95" y="-30.15" width="18.55" height="91.12" rx="9.27"/><rect class="cls-6" x="105.5" y="-30.15" width="18.55" height="91.12" rx="9.27"/><rect class="cls-6" x="124.05" y="-30.15" width="18.55" height="91.12" rx="9.27"/><rect class="cls-6" x="142.6" y="-30.15" width="18.55" height="91.12" rx="9.27"/><rect class="cls-6" x="161.14" y="-30.15" width="18.55" height="91.12" rx="9.27"/></g><path class="cls-7" d="M116.6,115.33c-.64-1.06-1.85-1.63-2.62-2.6a11.38,11.38,0,0,1-1.88-3.94c-.81-2.85-.56-6.46-2.14-9-1.23-2-3.78-2.81-5.9-3.49-2.81-.89-5.46-2.09-8.2-3.17-4.83-1.89-9.92-2-13.52,2.06-.92.17-1.86.6-1.88,1.19-.14,3.72,2,6.81,2.91,10.29.44,1.66.32,3.28,1.46,4.66a33.14,33.14,0,0,1,3.23,5,11.13,11.13,0,0,0,7.23,5.53,39.59,39.59,0,0,0,5.09.91c2.16.28,4.61.53,5.43,2.89.33,1,3.76,0,3.62-.91C112.69,122.89,119.11,119.49,116.6,115.33Z"/><path class="cls-7" d="M91.41,142.15c-.15-.7-.16-1.12-.81-1.41-1.12-.49-3.09-.21-4.29-.32a12.65,12.65,0,0,0-3.31-.09c-1.9.34-2.3,1.9-2.21,3.62,0,.74.12,3.22,1.5,2.53a.32.32,0,0,0,.06-.53.55.55,0,0,0,0-.4c-1-3.37,4.14-2.9,3.23-.21-.15.43.28,1,.77.79,1.83-1,3.57.66,5.33,1.11.3.08.57-.26.54-.53C92,145.17,91.75,143.65,91.41,142.15Z"/><path class="cls-8" d="M137.87,150.55c-2.41-6.62-4.64-13.8-9.52-19.08a1,1,0,0,0-.7-.34,35.85,35.85,0,0,0-2.89-5.11,14.47,14.47,0,0,0-2.65-2.88,11.14,11.14,0,0,0-2.22-1.57c-.63-.31-2.74-1-2.48-2,.18-.69-.73-1-1.22-.72-2.72,1.83-5.45,3.65-8.26,5.35-.85.51-2.33,1-2.74,2s-.07,2.87,0,4a.77.77,0,0,0,1.21.52c.45-.42.21.47.2.61a12.18,12.18,0,0,1-.29,1.69c-.18,1-.38,2-.62,3-.08.32-.17,1.31-.4,1.51s-.54.07-.74.12c-.57.12-.74.16-1.06.65a.69.69,0,0,0,0,.81,20.07,20.07,0,0,0-2.58.36c-1.09.11-2.19.18-3.29.22-2,.06-4,.11-6.06.11a1.91,1.91,0,0,0-.36-.13.36.36,0,0,0-.27.66l0,0a.39.39,0,0,0-.06.54c.6.72.48,2.35.61,3.24s.15,2,.37,3a1.13,1.13,0,0,0,2.06.36l0,0c5.28,2.06,10.86,4,16.56,3.51a2.06,2.06,0,0,0,0,.43,1.21,1.21,0,0,0,1.74,1.08,2.6,2.6,0,0,0,1.15,0c.59-.09.56-.31,1.31-.21a17.2,17.2,0,0,1,1.89.6,21,21,0,0,0,3.78.61c5.6.42,11.25-.84,16.76-1.71A.93.93,0,0,0,137.87,150.55Z"/><path class="cls-9" d="M109,102.94l-.09-.12a1.75,1.75,0,0,0-.35-.86.8.8,0,0,0,0-1.45c-3-1.15-6.47-1.25-9.64-1.79a1.19,1.19,0,0,0-1.27,1.41c-4.73-1-8.58-4.76-11.72-8.29a1,1,0,0,0-1.75,1c.21.73.42,1.46.64,2.18h0c-.68-.55-1.88.24-1.44,1.08L84.91,99a7.15,7.15,0,0,1-2.7-1.78.35.35,0,0,0-.31-.35c-.13-.15-.25-.31-.37-.48-.44-.64-1.61,0-1.21.68a9.1,9.1,0,0,0,1,1.42,7.25,7.25,0,0,0,1.33,4.91s.15,0,.13,0a22.93,22.93,0,0,1-.61-4,7.71,7.71,0,0,0,4.42,1.93c.64.07,1.34-.62,1-1.28l-.82-1.55a.85.85,0,0,0,.73-1c-.11-.45-.23-.9-.34-1.35,3.63,3.72,7.83,6.72,13.39,6.55.61,0,2.39.15,2.34-.44,1.8.3,2.3-.25,4.1-.22a2.59,2.59,0,0,1,.42.52c.11.19.18.41.28.6l0,.14c-.14.54.48,1,.95.85A.77.77,0,0,0,109,102.94Z"/><path class="cls-9" d="M109.58,116.09c-.67,0-1.67-.81-2.09-1.29a8.35,8.35,0,0,1-.72-1.07,16.22,16.22,0,0,1-1.52-3c-.53-1.47,0-2.28,1.27-3l2.4-1.43c.57-.35,0-1.34-.58-1-1.28.66-3.41,1.34-4.29,2.57s-.38,2.51.15,3.65c.94,2,2.8,6.22,5.58,5.41C110.27,116.76,110,116.07,109.58,116.09Z"/><path class="cls-9" d="M115.75,117.71a3.07,3.07,0,0,0,0-.59.79.79,0,0,0-1.25-.53,2.72,2.72,0,0,1-2.29.39.34.34,0,0,0-.15-.55l.1-.21a.24.24,0,0,0-.3-.31c-1.45.51-2.69,1.92-3.83,2.92a42.61,42.61,0,0,0-3.37,3.35.52.52,0,0,0-.35,1,6.6,6.6,0,0,1,1.58,1.2c.35.37,1,1.06,1.47.44a.7.7,0,0,0,.1-.16c1.4-.19,3-1.74,3.86-2.69.08-.1.15-.19.21-.28a2,2,0,0,0,.31.2c.27.14.54-.14.53-.4a3,3,0,0,0-.07-.43c1.34-.4,2.79-1.12,3.31-2.37a.68.68,0,0,0,.19-1Z"/><path class="cls-9" d="M91.92,146.09a3.55,3.55,0,0,0-.34-.64c0-1.2,0-2.4-.07-3.6a.44.44,0,0,0-.84-.12c-.47,1.46-1.39,2.83-3,2.9a5.74,5.74,0,0,1-.89-.07,2.08,2.08,0,0,0-1.25-2.73,3.92,3.92,0,0,0-4.1,1,.29.29,0,0,0,.35.46c1.35-.87,3.42-1.38,3.81,1,0,.2-.11.86-.1,1.07a.65.65,0,0,0,.88.52,2.52,2.52,0,0,1,1.36,0,.5.5,0,0,0,.43.28,5.5,5.5,0,0,1,2.11.48.57.57,0,0,0,.31,0l.45.25a.76.76,0,0,0,.94-.8Z"/><path class="cls-10" d="M109.47,103.09h0A4.65,4.65,0,0,0,109,102a12.12,12.12,0,0,1-.27-1.36.92.92,0,0,0-.23-1.41,12.79,12.79,0,0,0-.57-2.31.31.31,0,0,0-.25-.22,1.1,1.1,0,0,1,0-.18c-.14-.9-.2-1.66-1-2.17a12.82,12.82,0,0,0-3.56-.88q-2.56-.6-5.1-1.32-4.64-1.34-9.14-3.08c-3-1.16-5.9-2.59-8.93-3.62a.42.42,0,0,0-.44.11.56.56,0,0,0-.61.36c-1.79,4.32-5,11.64-.83,15.5a.63.63,0,0,0,1-.41l0-.58c.42.31.84.64,1.24,1a.65.65,0,0,0,1-.42c0-1,0-2.1,0-3.15a5.69,5.69,0,0,0,3.11,1.7.65.65,0,0,0,.45-.09,5.92,5.92,0,0,0,.48.35.72.72,0,0,0,1.1-.82A27.74,27.74,0,0,1,85,92.39a.77.77,0,0,0,.94-.08c4,5,9.37,8.73,15.79,9.46a1,1,0,0,0,1-1.45h.75c.64.28,1.29.56,1.94.82a6.58,6.58,0,0,1,3.35,2.35C109,103.9,109.62,103.51,109.47,103.09Z"/><path class="cls-10" d="M125.92,114.15c-.15-.48-.29-1-.43-1.42a.78.78,0,0,0-1.18-.34,10.29,10.29,0,0,1-.86.61.52.52,0,0,0-.19.11l-.35.21a.78.78,0,0,0-.91.24.8.8,0,0,0-.84.67.73.73,0,0,0-1,.36v0l-.29,0a.85.85,0,0,0-.68.67l-.46.23c-.27,0-.74.06-1,.07a.65.65,0,0,0-.6.5.4.4,0,0,1-.17,0,.66.66,0,0,0-.94.24c-.61-.24-1.19.75-.58,1.12.89.54,2.69,1.34,3.66.51a.78.78,0,0,0,.3-.95c.63-.1,1.22-.31,1.41-.78h0a.65.65,0,0,0,.32-.16l.06,0,.43.3a.78.78,0,0,0,1.24-.7l0-.38a1.16,1.16,0,0,0,1.44-.47.94.94,0,0,0,.43.29A.8.8,0,0,0,125.92,114.15Z"/><path class="cls-8" d="M132.78,74a28,28,0,0,0-8.39-8c-3.25-1.83-6-2.41-9.66-3.31-7.46-1.84-15.33-.15-21.94,3.54a35.41,35.41,0,0,0-9,6.83,17.65,17.65,0,0,0-2.75,4.48,14.31,14.31,0,0,1-2,3.59.69.69,0,0,0-.55-.13,17.63,17.63,0,0,0-4.59,1.19.4.4,0,0,0-.17.1h-.06c-.59,0-.53.87,0,1h0a.62.62,0,0,0,.2.15A47.72,47.72,0,0,0,81.06,86c2.69.87,5.38,1.78,8.08,2.64,5.13,1.63,10.28,3.33,15.49,4.71a.81.81,0,0,0,.8-.22c2.36.58,3,3.89,3.31,6,.34,2.44.64,4.88,1,7.32.34,2.68.61,5.38,1,8.06.18,1.36.2,3,1.88,3.18s4-1.07,5.52-1.72a45.32,45.32,0,0,0,5.73-2.91c2.84-1.68,5.87-3.75,7.75-6.55A19.82,19.82,0,0,0,137.78,94,31.17,31.17,0,0,0,132.78,74Z"/><path class="cls-11" d="M137.07,152.37a.86.86,0,0,0-.95-.75c-3.75.81-7.48,1.86-11.35,1.91-3.58.05-7.22-.77-10.76-1.37a.62.62,0,0,0-.9-.24,63.83,63.83,0,0,1-8.17,4.71c-1.89.9-4.48,1.67-5.91,3.28s-.48,4.18-.25,6.05c.39,3.12.59,6.24.73,9.38.11,2.23.95,2.74,3.13,3a26,26,0,0,0,8.31-.28c.72-.16,1.29-.22,1.65-.89.44-.84.1-2.57.05-3.48a53.43,53.43,0,0,0-1-8.07c2.78-.21,5.54-.73,8.29-1.15,2-.3,4.87-.17,6.75-1.22C132.09,161.87,138,158.92,137.07,152.37Z"/><path class="cls-12" d="M137.07,152.37a.86.86,0,0,0-.95-.75c-3.75.81-7.48,1.86-11.35,1.91a27.87,27.87,0,0,1-3.64-.21,12,12,0,0,1,2.16,3.37,7.82,7.82,0,0,1-2.89,1.72c-10.35,3.54-13.17,2.88-13.4,3.32s1.5,7.24.91,16.46c.88-.08,2.18.05,3-.13s1.29-.22,1.65-.89c.44-.84-.7-9.67-.83-10.56-.16-1.07-1.77.59-1.66-1.66,2.77-.21,7.09-.06,9.84-.48,2-.3,4.87-.17,6.75-1.22C132.09,161.87,138,158.92,137.07,152.37Z"/><path class="cls-13" d="M111.08,178.45a.5.5,0,0,0-.79-.34,3.45,3.45,0,0,1-1.53.56h-.16l-.16,0c-.7,0-1.42-.06-2.21-.09-.94,0-1.87,0-2.8,0-.1-.45-.74-.34-.78.11a.48.48,0,0,0-.14.44.9.9,0,0,0,0,.86,1.21,1.21,0,0,0,.43,1.09c.64.37,2,.17,2.73.18h1.33c.88.46,2.1,0,3-.28C111.22,180.64,111.23,179.52,111.08,178.45Z"/><path class="cls-14" d="M111.79,180.84a.57.57,0,0,0-.88-.25l-1.11.3a.62.62,0,0,0-.79.33c-.32.68-3.17.28-3.67.26-.91,0-1.81-.06-2.71-.1a17,17,0,0,1-.22-2,.47.47,0,0,0-.52-.4,2.92,2.92,0,0,0-1,.19.39.39,0,0,0-.24.58.55.55,0,0,0-.24.38c-.16,1.17-3.54,1.21-4.42,1.71a2.08,2.08,0,0,0-1.2,1.79c0,2.49,3.8,1.63,5.24,1.54,1.78-.12,3.56-.22,5.34-.27,1.18,0,2.74.22,3.8-.45a3.08,3.08,0,0,0,.67-.68,11.13,11.13,0,0,1,1.4-1.2A1.39,1.39,0,0,0,111.79,180.84Z"/><path class="cls-8" d="M163.41,173.51a4.18,4.18,0,0,1-.93-1.87c-.13-.62-.11-1.29-.23-1.92a6.26,6.26,0,0,0-1.54-3.44c-1.68-1.7-4.79-1.57-7-1.86a29.84,29.84,0,0,0-5.47-.12,6.09,6.09,0,0,1-2.47.57c-3.64.28-7.28.48-10.93.66-7,.34-14,.36-21,.64a.49.49,0,0,0-.71.54.65.65,0,0,0,.56.8h0a12.48,12.48,0,0,1,1.44,9.82c-.92,3-3.54,4.74-5.85,6.58-1.27,1-4.17.66-5.8.77-2.07.15-4.15.37-6.22.48-.47,0-1.31.21-1.72-.06-.15-.1-.17-.41-.31-.52-.43-.33-.71-.81-1.23-.68a8.27,8.27,0,0,1-4.62.14c-1.57-3.24-3.58-6.32-5.36-9.46A26.6,26.6,0,0,1,82,170.67c-.32-1.2.2-1.58.36-2.77.27-2,.55-4.14.8-6.15s.86-3.41,1.08-5.31c.14-1.2.66-2.9.13-4.07a4.15,4.15,0,0,0-2.93-2c2.33-.38,4.67-1.37,5.54-3.73a.48.48,0,0,0-.61-.62c-1.17.34-3,.88-4.21.42-.8-.31-1.19-.43-1.36-1.59a6.17,6.17,0,0,1,0-1.82c.43-2.63,2.93-4.16,5.33-2.82.3.17.56-.26.39-.5-1.38-2-3.11-4-5.68-4.2-2.36-.16-4.55,1.06-6.84,1.27a7.26,7.26,0,0,0-1.93-.08.66.66,0,0,0-.36.15c-.74,0-1.48-.1-2.22-.17a.57.57,0,0,0-.84-.37c-1.43.9.24,1.83,1.12,2.06,1.36.34,2,.58,2.49,2a10.7,10.7,0,0,1,.43,2.39,7.06,7.06,0,0,1-.81,4.25l-.17,0c-.66.16-1,1.24-.21,1.5,1.92.59,3.8,1.33,5.74,1.85a.58.58,0,0,0,.61-.17l.2,0-.08.05a48.44,48.44,0,0,0-9.09,8.6,1.38,1.38,0,0,0-.45,0c-1.64.18-3.91,1.19-4.32,3.12-.34,1.63.52,4.82,2,5.53a11.73,11.73,0,0,0,.63,1.22,59.22,59.22,0,0,0-8.17-1.77,15.22,15.22,0,0,0-8.13.74c-4.93,2-8.7,7-8.33,12.42a.49.49,0,0,0,.67.44c1.11,1.15,3.65,1,5,1.25,3.3.49,6.59,1,9.87,1.55s6.57,1.13,9.85,1.69c3.09.54,6.53,1.57,9.67,1.47.38,1.08.88,2.74,1.88,3.19.55.24,1.36,0,1.92,0,6.19.2,82.18-5,82.81-6C164.39,182.9,164.49,175.09,163.41,173.51Z"/><path class="cls-15" d="M149.8,160.16h0a4.23,4.23,0,0,0-4.23-4.23,27.45,27.45,0,0,0-9.45.74,7.7,7.7,0,0,1-.71,1.67,6.92,6.92,0,0,1-1.62,1.87,16,16,0,0,1-5.1,2.6,29.27,29.27,0,0,1-6.21,1.27c-1.1.12-2.2.18-3.29.28s-2.29.22-3.45.22c-1.9,0-4-.71-5.82.17l-.07,0c.05.38.11.77.18,1.15a2.58,2.58,0,0,0,.76.13,219.34,219.34,0,0,0,34.63-.68C147.76,165.37,150.58,164.88,149.8,160.16Z"/><path class="cls-15" d="M130.42,186.47a15.49,15.49,0,0,0,30.94-.39,13.86,13.86,0,0,0-.17-2.15C159.83,184.13,132.52,186.49,130.42,186.47Z"/><path class="cls-15" d="M76.24,186.79c-1.26-.19-2.51-.37-3.77-.61s-2.4-.47-3.62-.64-2.48-.32-3.71-.52c-2.45-.39-4.89-.88-7.33-1.34-1.23-.23-2.47-.44-3.71-.63s-2.38-.45-3.57-.68-2.36-.39-3.55-.55a13.81,13.81,0,0,1-2.55-.56,16.51,16.51,0,1,0,32.49,5.63Z"/><path class="cls-16" d="M68,185.24c-.62-.09-1.23-.18-1.84-.29s-1.17-.23-1.76-.32-1.2-.15-1.8-.25c-1.19-.19-2.38-.43-3.56-.65-.61-.11-1.21-.22-1.81-.31s-1.16-.22-1.74-.33-1.15-.19-1.72-.27a6.36,6.36,0,0,1-1.24-.27,17.05,17.05,0,0,0-.21,1.8c-.63,6,3.63,9,8.07,9,4.12,0,7.4-2.2,7.94-8.06Z"/><path class="cls-8" d="M184.24,158.65l-29.81-.13.25-24.62-1.62-.69a8.69,8.69,0,0,1-.46-3.7,1.61,1.61,0,0,1,1.61-1.49l31.81.18a.93.93,0,0,1,.93.89,10.07,10.07,0,0,1-.51,4.38l-1.88.18Z"/><path class="cls-17" d="M72.18,141.11a4.56,4.56,0,0,0-.69-1.88c-.51-.83-.61-.75-1-.26a.54.54,0,0,0-.23.35s0,0,0,0a1,1,0,0,0,0,.14,6,6,0,0,0-.35,1.32,10.24,10.24,0,0,0-.2,2.87v.08c0,1-.43,2.53.15,3.43a1.25,1.25,0,0,0,2,.18c.75-.83.75-2.53.74-3.58A9.56,9.56,0,0,0,72.18,141.11Z"/><path class="cls-17" d="M164.63,168.55l-.26-.2a.59.59,0,0,0-.64,0,.45.45,0,0,0-.38.51q.51,2.83.83,5.68a.65.65,0,0,0-.38.31,1.65,1.65,0,0,0,.79,2.45c1.3.36,2.28-1.05,2.72-2.05C168.41,172.71,167.72,168.93,164.63,168.55Z"/><path class="cls-18" d="M164.68,168.85a.61.61,0,0,0-1.22.15c.28,2.46.66,4.94.78,7.41,0,.87,1.39.71,1.34-.16A47.18,47.18,0,0,0,164.68,168.85Z"/><path class="cls-18" d="M71.07,138.86c-.27-.42-.9,0-.75.42a15.31,15.31,0,0,1,1.1,4.29c.08,1.57-.7,2.75-.92,4.22a.27.27,0,0,0,.36.28C73.89,146.39,72.51,141.12,71.07,138.86Z"/><path class="cls-13" d="M71.59,138.72c-.31-.32-.88.23-.57.56,2.25,2.39,2,5.49.86,8.35a.35.35,0,0,0,.59.35C74.6,145.3,73.86,141,71.59,138.72Z"/><path class="cls-17" d="M67.55,160.07a3.8,3.8,0,0,1,.42-.47c.34-.34-.21-.87-.59-.6l-.06.06a.49.49,0,0,0-.21,0c-1.56.28-2.66,2.14-3.28,3.49-.77,1.68.71,3.27,1.8,4.4a.61.61,0,0,0,1-.72c-.94-1.59-.54-3.77.42-5.39A6.28,6.28,0,0,0,67.55,160.07Z"/><path class="cls-18" d="M67.77,159.72a.39.39,0,0,0-.61-.48c-1.67,2-3.21,5.69-.92,7.9.25.24.64-.09.52-.38a5.75,5.75,0,0,1-.7-3.43A8.43,8.43,0,0,1,67.77,159.72Z"/><path class="cls-16" d="M150.61,192.07l-.55.18a8.52,8.52,0,0,0-2.85-.17c-1.26,0-2.51.11-3.77.16a.28.28,0,0,0-.13,0,11,11,0,0,1-1-.42c-.68-.32-1.06.7-.44,1.05,2.29,1.29,7.53,2.79,9.38,0A.54.54,0,0,0,150.61,192.07Z"/><path class="cls-19" d="M156,186.7a2.66,2.66,0,0,0-.72-1.36,1,1,0,0,0-1.12-.84c-6.11.84-12.32,1.19-18.46,1.59-3,.19-5.92.36-8.88.49a35.14,35.14,0,0,0-8.68,1.12.5.5,0,0,0-.32.26,14.27,14.27,0,0,1-2.18-.26c-.56-.11-2.82.37-2.27.45,1.76.24,5.06,1,6.71,1,2.33,0,4.6.37,6.92.63,4.26.48,8.46,1.4,12.72,2,3.91.54,8.6,1.08,12.52.47a4.34,4.34,0,0,0,3.36-2C156.37,189,156.16,188.05,156,186.7Z"/><path class="cls-20" d="M155.63,186.24a.28.28,0,0,0-.54.13c.58,4.55-5.2,4.45-8.16,4.26-3.3-.22-6.62-.38-9.91-.75-3.45-.38-6.9-.71-10.35-1.09-3.19-.35-6.56-1-9.77-.79a.34.34,0,0,0-.09.64c3.85,1.26,8.25,1.39,12.25,1.91,4.4.58,8.74,1.24,13.17,1.52,3.28.2,7.22,1,10.41,0C155.06,191.22,156.82,188.76,155.63,186.24Z"/><path class="cls-20" d="M149.91,188.47a.14.14,0,0,0-.25-.07,2,2,0,0,1-2.12.88,2.6,2.6,0,0,1-1.82-1.84c-.07-.22-.41-.13-.39.1a3.06,3.06,0,0,0,2.36,2.92A1.83,1.83,0,0,0,149.91,188.47Z"/><path class="cls-8" d="M163.93,170.38c0-.1,0-.2,0-.3-.09-.78-.08-2.27-1.3-2a1,1,0,0,0-.58.38.41.41,0,0,0-.17.31,5.76,5.76,0,0,0,.08,2.5,7.4,7.4,0,0,0,1.28,3.7c.06.47.12.93.19,1.4a.51.51,0,0,0,1-.13c0-.4,0-.8-.07-1.2a.46.46,0,0,0,.09-.23A11.79,11.79,0,0,0,163.93,170.38Z"/><path class="cls-8" d="M94.53,127.05c-.16-1.31-1.43-1.61-2.53-1.38a5.79,5.79,0,0,0-3.57,2.91c-.83,1.39-1.73,3.19-1.33,4.85.3,1.25,1.22,2.09,2.44,1.77,1.32.13,2.07-2,2.56-2.88l1.67-3.13A3.67,3.67,0,0,0,94.53,127.05Z"/><path class="cls-21" d="M93.39,125.66c-2.27-.24-4,1.21-4.83,3.21-.77,1.74-1.43,4.62.24,6a.36.36,0,0,0,.57-.33,9.09,9.09,0,0,1,.36-4.68,4.15,4.15,0,0,1,3.65-3C94.1,126.88,94.09,125.73,93.39,125.66Z"/><path class="cls-21" d="M80.9,169.23a24.78,24.78,0,0,0-5.47-1.47,27,27,0,0,1-4.6-1.94,6.38,6.38,0,0,1-2.32-3.29,5.07,5.07,0,0,1,.17-2.37.41.41,0,0,0-.76-.31,5.49,5.49,0,0,0-.56,1.57.43.43,0,0,0-.41.32,3.8,3.8,0,0,0,.17,2.54,5.5,5.5,0,0,0,3.36,4.36A29.42,29.42,0,0,0,75,169.72a27.62,27.62,0,0,0,5.55,1A.78.78,0,0,0,80.9,169.23Z"/><path class="cls-21" d="M76.73,185.15l-1-.27c0-1.24-.78-2.26-1.37-3.36-.8-1.49-1.59-3-2.4-4.47q-2.31-4.25-4.7-8.43c-.44-.77-1.76,0-1.37.76l.18.35c-.28,2.26-.27,4.49-1.19,6.67-1.11,2.62-3.28,3.69-6,4a71.75,71.75,0,0,1-16.43-.65.51.51,0,0,0-.13,1,68.12,68.12,0,0,0,7.73,1.19.5.5,0,0,0,.33.25c4.31.84,8.7,1.18,13,1.91s8.61,1.69,12.84,2.83C77.25,187.18,77.74,185.42,76.73,185.15Z"/><path class="cls-21" d="M119.31,174a35.27,35.27,0,0,0-4.73-7.46c-.67-.82-1.78-.52-1.18.35s1.17,2.64,1.77,3.7c1.43,4.88-1,10.25-5.28,13a.42.42,0,0,0-.18.49c-4.69.81-9.26,1.62-14,1.07a.41.41,0,0,0-.24-.4c-1.53-.64-3.23-.18-4.81,0a.85.85,0,0,0,.2,1.68,18.59,18.59,0,0,0,3.26-.36.68.68,0,0,0,.31.13c3.39.45,6.93-.13,10.34-.25,3.94-.15,8.17,0,11.9-1.49C121.52,182.56,121.15,178.17,119.31,174Z"/><path class="cls-21" d="M109,143.34l-.72-1.84a.81.81,0,0,0-1.5.6c.22.61.45,1.23.67,1.85a3.56,3.56,0,0,0,.9,1.58.64.64,0,0,0,1-.41A3.56,3.56,0,0,0,109,143.34Z"/><path class="cls-21" d="M112.58,142.16a16.41,16.41,0,0,0-2-1.76c.65.12,1.28.3,1.94.4a.66.66,0,0,0,.34-1.26A6.64,6.64,0,0,0,110,139h-.08a35.57,35.57,0,0,1,1.63-8.16.8.8,0,0,0-.3-.88,7.67,7.67,0,0,0,1.13-1.65.34.34,0,0,0-.44-.45c-.81.41-3.57,3.52-4.49,2.28-.61-.83-1.78.09-1.26.94a2,2,0,0,0,.24.33,2.37,2.37,0,0,0,.58,1.73.69.69,0,0,0-.06.52c.48,2,1.06,4.07,1.57,6.11a.72.72,0,0,0,.55.57.82.82,0,0,0,.18,1,19.85,19.85,0,0,1,2,2.09c.53.62,1,1.65,1.94,1.75a.67.67,0,0,0,.74-.56C114.15,143.76,113.14,142.78,112.58,142.16Z"/><path class="cls-21" d="M107.27,140.26a2.3,2.3,0,0,0-.23-.44.33.33,0,0,0,.22-.42,4.2,4.2,0,0,0-.55-.88,4.12,4.12,0,0,1-.5-1c-.13-.35-.75-.21-.66.17,0,.18.1.36.16.55l-.06-.06a.67.67,0,0,0-.91-.13.63.63,0,0,0-.13.9,7.38,7.38,0,0,0,2,1.94C107,141.11,107.41,140.64,107.27,140.26Z"/><path class="cls-21" d="M116.09,120.31a68,68,0,0,1-5.12,4.62c-1.86,1.37-3.71,2.76-5.68,4-.8.5.07,1.64.87,1.17a28.48,28.48,0,0,0,5.64-4.19,31.46,31.46,0,0,0,4.57-5.29C116.48,120.43,116.27,120.15,116.09,120.31Z"/><path class="cls-21" d="M129.29,147.5a34.73,34.73,0,0,0-1.35-4.68,41.72,41.72,0,0,0-4.78-8.87h0l0-.11a.15.15,0,0,0-.28-.1.58.58,0,0,0-.63.87l.16.3,0,.1a.68.68,0,0,0-.64.7c0,.31,0,.62,0,.93a44.08,44.08,0,0,1-3.32,6.44c-1.81,2.83-3.67,5.67-7.32,5.94-3.36.26-7-.46-10.31-1a24.67,24.67,0,0,1-4.69-.94c-1.84-.7-2.34-2.8-2.61-4.55a.55.55,0,0,0-1.1.13c.18,3.5,1.1,5.75,4.74,6.57a61.6,61.6,0,0,0,13.49,1.88c.22,0,.44,0,.65,0l0,0c-.81.23-.46,1.63.37,1.43,3.68-.85,7.65,0,11.39,0a29.08,29.08,0,0,0,5.28-.14c.71-.13,1.15-.26,1.39-1C130,150.29,129.53,148.6,129.29,147.5Zm-10.73-1.67a51.79,51.79,0,0,0,2.81-6,19.23,19.23,0,0,1-2,6A8.79,8.79,0,0,1,116,149.2,12.34,12.34,0,0,0,118.56,145.83Z"/><path class="cls-21" d="M136.61,96.51l-.23.3c.16-.49.3-1,.44-1.49a.59.59,0,0,0-.12-.55,17.24,17.24,0,0,0,.05-10.47c-.1-.36-.72-.21-.64.16,1.87,8.13-2.48,15.52-9.71,19.14a13.3,13.3,0,0,1-5.94,1.83c-2.29-.05-4.09-1.59-5.54-3.23a54.57,54.57,0,0,1-6.23-8.72q-.28-.86-.51-1.65a.68.68,0,0,0-.73-.49,2.45,2.45,0,0,0-.89-.47c-1.06-.35-2.13-.67-3.17-1.07-2.55-1-5.07-2-7.6-3.09l-7.48-3.06c-1.66-.68-8.39-2.32-7.17-5,.27-.6-.64-1.16-1-.59a3.31,3.31,0,0,0,1.15,4.67c2.4,1.67,5.62,2.55,8.31,3.65l9.18,3.79c1.48.61,3,1.24,4.47,1.8a23.83,23.83,0,0,1,2.39.78l-.12,0c-.61-.18-1.22-.34-1.84-.48s-.59.66-.11.78c.67.18,1.34.38,2,.6A4.22,4.22,0,0,0,107,94a29.21,29.21,0,0,0,1.57,4.41c.38,2,.75,4,1.13,6,.35,2.75.66,5.51,1.09,8.24a5.59,5.59,0,0,0,1.52,3.55,1.86,1.86,0,0,0,.94.75c1.51.56,3.25-.55,4.49-1.28,4-2.33,8.23-4.52,11.9-7.32,2.61-2,5.41-5.09,5.57-8.57a17.16,17.16,0,0,0,1.84-3C137.23,96.51,136.8,96.26,136.61,96.51Z"/><path class="cls-21" d="M184,132.8c-1.39,0-2.78,0-4.17.08a.31.31,0,0,0-.26-.16c-4.68-.56-9.39-.63-14.09-.88-2.22-.11-4.43-.23-6.65-.39a16.22,16.22,0,0,1-3.2-.11c-1.13-.41-.82-1.81-1-2.71a.67.67,0,0,0-1.32.16,1.34,1.34,0,0,1,0,.2.44.44,0,0,0-.31.41c-.08.94-.09,2.65.84,3.22a1.47,1.47,0,0,0,.31.23c1.76,1.05,5,.14,6.86.07,3.25-.14,6.5,0,9.75.11-5,.13-9.82.59-14.84,1a1.63,1.63,0,0,0-1.21.47,1.61,1.61,0,0,0-.21.92l-.21,7.39c0,.58.19,1.38.77,1.31-.26,3.74-.47,7.47-.63,11.21-.06,1.26,0,2.75,1,3.44a3.71,3.71,0,0,0,2.11.39l4.12-.06c.23,0,.51,0,.63-.23s-.06-.59-.27-.83a15.11,15.11,0,0,1-3.78-10c0-5.89,3.34-11.58,9.53-12.21,2.74-.27,5.53-.31,8.28-.41s5.56.22,8.09-.46c.35-.1.2-.58-.08-.64a13.51,13.51,0,0,0-1.44-.24l1.47-.05C184.92,134,184.74,132.8,184,132.8Z"/><path class="cls-21" d="M80.34,187.68c-1-2.56-2.59-4.84-3.81-7.28-1.13-2.27-2.39-4.45-3.63-6.66-.21-.38-.87,0-.67.37,1.14,2.26,2.23,4.54,3.48,6.74,1.34,2.38,2.32,5,3.9,7.24A.42.42,0,0,0,80.34,187.68Z"/><path class="cls-21" d="M135,168.66a17.32,17.32,0,0,0-7.92,6.07,24.55,24.55,0,0,0-4.33,10.39c-.14.68,1,1,1.17.32,2.15-6.5,5.34-12.62,11.45-16.11C135.81,169.11,135.43,168.53,135,168.66Z"/><path class="cls-21" d="M162.89,169.49a.61.61,0,0,0-1-.2,10.36,10.36,0,0,0-3.44-2.34,20.88,20.88,0,0,0-10.21-1.55c-.69.06-.72,1.19,0,1.23a30.94,30.94,0,0,1,8.1,1.47,8.68,8.68,0,0,1,5.58,5,.66.66,0,0,0,.78.35.57.57,0,0,0,1.09-.28A16.91,16.91,0,0,0,162.89,169.49Z"/><path class="cls-22" d="M102.36,109.78a5.36,5.36,0,0,0-.8,0l.39-.23a.61.61,0,0,0-.44-1.09c-1.38.18-2.69.7-4.06,1a.66.66,0,0,0,.16,1.3l1-.09-.22.07c-1.6.54-3.22,1-4.84,1.52-.86.26-.49,1.73.39,1.53,1.63-.36,3.23-.76,4.82-1.28a9.33,9.33,0,0,0,4-1.91A.51.51,0,0,0,102.36,109.78Z"/><path class="cls-22" d="M106,117.87a8.86,8.86,0,0,0-2.14,1.78.69.69,0,0,0-.14.93.68.68,0,0,0,.93.14,8.86,8.86,0,0,0,2.09-1.86C107.05,118.37,106.61,117.57,106,117.87Z"/><path class="cls-23" d="M109.5,178.64l-.06.37a.58.58,0,0,0-.29-.39,2.66,2.66,0,0,0-1.4-.13,10.76,10.76,0,0,1-1.6-.11.5.5,0,0,0-.55.37l-1.88-.49c-.62-.17-1,.75-.39.94l2.91.89a1.55,1.55,0,0,1,1.05.78,2,2,0,0,0,.45.55.59.59,0,0,0,.94-.39,1.85,1.85,0,0,0,0-.23.41.41,0,0,0,.39-.16,1.67,1.67,0,0,0,.25-.71,3.18,3.18,0,0,0,.11.77.66.66,0,0,0,1.25-.15c0-.59-.06-1.16,0-1.75A.63.63,0,0,0,109.5,178.64Z"/><path class="cls-15" d="M85.48,143.61a2,2,0,0,0-2.32-1,2.25,2.25,0,0,0-1.56,1.73.59.59,0,0,0,.1.41,1.72,1.72,0,0,0,.67,1.33C84,147.38,86.74,145.59,85.48,143.61Z"/><path class="cls-24" d="M87.23,129.37a33.75,33.75,0,0,0-3.59,5c-.86,1.4-2,2.91-2.25,4.55a.52.52,0,0,0,.91.38c1.22-1.26,1.87-3.17,2.78-4.67s2-3,3-4.6A.51.51,0,0,0,87.23,129.37Z"/><path class="cls-25" d="M87.77,129.09c-2.73,2.8-5.45,6.09-6.57,9.91a.15.15,0,0,0,.28.12c1.92-3.51,3.67-6.92,6.58-9.73A.21.21,0,1,0,87.77,129.09Z"/><path class="cls-21" d="M86,146.36c-3.37,2.08-6.91,1.81-10.41.46a9.14,9.14,0,0,0-.16-5.91.56.56,0,0,0-1.07.28v.08h0c0,1.22,0,2.5-.09,3.71a7.84,7.84,0,0,1-1.31,3.4.42.42,0,0,0,.23.54c.67.21,1.3.51,2,.7a.34.34,0,0,0,.38-.11c3.41,1.57,8.62,1.38,10.54-2a.3.3,0,0,0,0-.11l.43-.29C87,146.77,86.47,146,86,146.36Z"/><path class="cls-13" d="M92.72,143.54a5.52,5.52,0,0,0-.93-2.85.54.54,0,0,0-.87.65c1.26,1.73.33,4.4,1.26,6.29a.43.43,0,0,0,.82-.1A11.46,11.46,0,0,0,92.72,143.54Z"/><path class="cls-13" d="M116.91,118.77a.75.75,0,0,0-1.19,0c-2.49,2.62-5.65,4.47-8.74,6.34a5.38,5.38,0,0,1-1,0,.75.75,0,0,0-.84.83,25.78,25.78,0,0,1,.08,2.64c-.06.12-.13.23-.2.35a.59.59,0,0,0,0,.5c-.14.58.46,1.22,1,.83a.41.41,0,0,0,.13-.1c2-1.76,4-3.42,6.09-5.08a7.2,7.2,0,0,0,1-.77l1.13-.9C115.75,122.24,118.23,120.87,116.91,118.77Z"/><path class="cls-13" d="M101.14,160.13c-.66.87-1.4,2.64-.53,3.6.16.18.52.21.61-.07a8,8,0,0,0,.15-1.39,3.07,3.07,0,0,1,.65-1.46A.56.56,0,0,0,101.14,160.13Z"/><path class="cls-13" d="M100.44,165c0,.19,0,.39,0,.58a1.05,1.05,0,0,0,.18.54c.11.2.38.1.47-.06a2.23,2.23,0,0,0,.15-1.06A.41.41,0,1,0,100.44,165Z"/><path class="cls-13" d="M159.59,172.85a4.37,4.37,0,0,0-1.89-1.11c-.87-.27-1.44,1-.56,1.34a4.39,4.39,0,0,1,1.57,1.23c.32.37,1.06,1.07,1.5.48S160,173.29,159.59,172.85Z"/><path class="cls-13" d="M161.34,177l-.27-.66c-.24-.56-1.12-.21-.88.35l.27.66a1.39,1.39,0,0,0,.4.63.4.4,0,0,0,.63-.26A1.22,1.22,0,0,0,161.34,177Z"/><path class="cls-13" d="M50.16,170.63c-1.7-.64-3.33,1.32-4,2.62-.35.68.72,1.3,1.16.68a6.09,6.09,0,0,1,1.47-1.44,6,6,0,0,0,1.57-1.16A.46.46,0,0,0,50.16,170.63Z"/><path class="cls-13" d="M52.59,170.29a.34.34,0,0,0-.29-.26.62.62,0,0,0-.27,0l-.21,0a.53.53,0,0,0-.28.16.4.4,0,0,0-.07.35.42.42,0,0,0,.55.28l.21-.06a.68.68,0,0,0,.23-.14A.34.34,0,0,0,52.59,170.29Z"/><rect class="cls-26" x="149.33" y="124.64" width="2.42" height="35.8" rx="1.21"/><path class="cls-26" d="M183.79,158.52h-33.7a.89.89,0,1,0,0,1.78H168.3l-.25.16a2.41,2.41,0,0,0-.67.13,10.59,10.59,0,0,0-1.7,1.42c-1.55,1.18-3.1,2.35-4.61,3.59a.42.42,0,0,0-.41.72,1.72,1.72,0,0,1,.36.68l0,.13a.5.5,0,0,0,.32.71l0,0a.51.51,0,0,0,.67.14.53.53,0,0,0,.24-.64h0c1.39-1.1,2.75-2.23,4.13-3.34a28.75,28.75,0,0,0,2.85-2.28l1-.58a.44.44,0,0,0-.25-.83l-.05,0h13.79a.89.89,0,0,0,0-1.78Z"/><path class="cls-27" d="M184,159.74c-5.32-.37-10.73.11-16.07.1l-8.16,0a80.47,80.47,0,0,0-8.51.12.3.3,0,0,0,0,.6,69.67,69.67,0,0,0,7.51.11c2.85,0,5.69,0,8.53,0l2.07,0c-2.63,2-5.31,4-7.9,6.11a.41.41,0,0,0,.49.66c2.8-2.08,5.51-4.28,8.28-6.4a.38.38,0,0,0,.16-.35c4.53.11,9.1.37,13.6.06A.51.51,0,0,0,184,159.74Z"/><path class="cls-27" d="M151.61,125.38a.44.44,0,0,0-.87,0c-.59,5.45-.27,11.08-.27,16.56,0,5.72,0,11.44,0,17.15,0,.75,1.31.77,1.32,0,.07-5.53,0-11.06,0-16.59S152.21,131,151.61,125.38Z"/><path class="cls-28" d="M125.09,69.4c-.88-.37-1.75,1-.88,1.5,2,1.21,3.37,3.18,4.68,5.08a.63.63,0,0,0,1.12-.44C129.93,72.6,127.64,70.46,125.09,69.4Z"/><path class="cls-28" d="M131.21,78l0,0a2.41,2.41,0,0,1-.08-.25.61.61,0,0,0-.78-.33.6.6,0,0,0-.33.77l.06.13a.45.45,0,0,0,0,.11.71.71,0,0,0,.43.75l.14,0a.18.18,0,0,0,0,.07h0a.45.45,0,0,0,.72-.29,1.48,1.48,0,0,0,0-.21A.71.71,0,0,0,131.21,78Z"/><path class="cls-28" d="M112.84,132.56a4.36,4.36,0,0,0-.61,2.65.44.44,0,0,0,.84.12A17,17,0,0,1,114,133C114.32,132.34,113.2,131.87,112.84,132.56Z"/><path class="cls-28" d="M112.31,136.2a.8.8,0,0,0-.79.88.82.82,0,0,0,.3.52s.07,0,.1.09h0a.16.16,0,0,0,.23.1l.1,0a.78.78,0,1,0,0-1.56Z"/><path class="cls-28" d="M181.7,136.35c0,.52,0,1,0,1.56a5,5,0,0,0,.26,1.44.5.5,0,0,0,.92,0,5.47,5.47,0,0,0,.27-1.44c0-.52,0-1,0-1.57A.74.74,0,1,0,181.7,136.35Z"/><path class="cls-28" d="M183,142.4a.74.74,0,0,0,0-.21.52.52,0,0,0-.57-.44.52.52,0,0,0-.44.57v0c0,.05,0,.09-.05.13a.6.6,0,0,0-.06.19.55.55,0,0,0,0,.31.74.74,0,0,0,.42.56l.14,0h.05a.62.62,0,0,0,.36-.05.66.66,0,0,0,.37-.38A.68.68,0,0,0,183,142.4Z"/><path d="M117.23,121.24c2,.34,3.71,1.87,5.12,3.26a46.24,46.24,0,0,1,5.54,6.85,84.45,84.45,0,0,1,4.93,8.23,62.34,62.34,0,0,1,3.4,7.38,19.62,19.62,0,0,1,.89,3,3.89,3.89,0,0,1,.08.93.72.72,0,0,1-.05.28c0,.15,0,0,0,.08s-.06.09,0,.05c-.36.4.24,1,.6.6a2.12,2.12,0,0,0,.35-1.59,12.09,12.09,0,0,0-.56-2.59,48.08,48.08,0,0,0-3.12-7.36,84.53,84.53,0,0,0-4.94-8.49,52.76,52.76,0,0,0-5.74-7.39c-1.65-1.72-3.75-3.74-6.2-4.15-.59-.1-.85.8-.25.9Z"/><path d="M81.17,143.84a3.37,3.37,0,0,1,.87-2.55,3.06,3.06,0,0,1,2.83-.73c1,.2,2.06.38,3.1.55a7.64,7.64,0,0,0,2.56.18c.38-.06.3-.57,0-.67a16.93,16.93,0,0,0-2.91-.62,21.74,21.74,0,0,0-3.55-.59,4,4,0,0,0-3.89,4.43c0,.64,1,.65,1,0Z"/><path d="M90.18,140.8c.36-.22.54,1,.58,1.3.09.59.17,1.18.26,1.77.16,1.14.38,2.26.62,3.38.06.29.57.23.54-.08-.13-1.34-.28-2.68-.48-4-.09-.57-.17-1.14-.26-1.71s-.77-1.85-1.65-1.31a.38.38,0,0,0,.39.66Z"/><path d="M91.7,140.73a24.39,24.39,0,0,1,.77,3.61c.22,1.22.39,2.45.73,3.64a.3.3,0,0,0,.59-.08,29.49,29.49,0,0,0-.51-3.74,24.94,24.94,0,0,0-.78-3.65c-.17-.51-1-.29-.8.22Z"/><path d="M92.41,140.93a27.83,27.83,0,0,0,7.46.41c1.37-.05,2.75-.12,4.12-.14h2a5.84,5.84,0,0,0,2-.11.34.34,0,0,0,.08-.62,4.13,4.13,0,0,0-1.81-.33c-.68,0-1.36,0-2,0-1.35,0-2.7.12-4.05.18a29.71,29.71,0,0,1-7.48-.18c-.5-.11-.72.66-.21.78Z"/><path d="M109.27,140.66a26,26,0,0,0,1.79-6.25c.25-1.13.5-2.27.84-3.39.16-.51.35-1,.54-1.53a5.49,5.49,0,0,0,.53-1.57.34.34,0,0,0-.51-.28c-.84.59-1.17,1.89-1.45,2.84a33.38,33.38,0,0,0-.77,3.4,24.87,24.87,0,0,1-1.65,6.38c-.22.45.45.85.68.4Z"/><path d="M122.68,132.68c-.53,2.29-1.18,4.54-1.85,6.79-.79,2.66-1.49,5.36-3.17,7.63a8.33,8.33,0,0,1-6.41,3.52,20.07,20.07,0,0,1-4.1,0,36.92,36.92,0,0,1-4.42-.81c-3-.69-6-1.7-9-2.35a.38.38,0,0,0-.2.73,45.84,45.84,0,0,0,8.24,2.16,60,60,0,0,0,8.87.93,9,9,0,0,0,7.1-2.6,17.25,17.25,0,0,0,3.58-7.41c.74-2.81,1.54-5.59,2.16-8.43.1-.49-.65-.7-.76-.21Z"/><path d="M113,152.43a13.75,13.75,0,0,0,3.91.91,46.62,46.62,0,0,0,5.41.33,67.87,67.87,0,0,0,11.12-.69,11.73,11.73,0,0,0,3.67-1c.45-.25,0-.87-.4-.68a13.23,13.23,0,0,1-3,.64c-1.62.23-3.24.38-4.87.49a72.16,72.16,0,0,1-11.1,0,14.32,14.32,0,0,1-4.31-.83c-.52-.22-1,.53-.45.75Z"/><path d="M105.91,130.05a91.43,91.43,0,0,0,1.81,10.9.37.37,0,0,0,.73-.1,28.07,28.07,0,0,0-.66-4.27c-.42-2.21-.86-4.4-1.17-6.63-.06-.4-.76-.31-.71.1Z"/><path d="M91.71,140.83c2.21-.28,4.45-.29,6.68-.37a32.46,32.46,0,0,0,3.27-.23,9.76,9.76,0,0,0,3.15-.81.35.35,0,0,0-.18-.64c-1.08.06-2.15.29-3.23.39s-2.18.19-3.28.24c-2.18.09-4.37.14-6.54.44-.55.08-.43,1.05.13,1Z"/><path d="M105.41,131.11a12,12,0,0,0,1.93-1.21c.89-.65,1.76-1.34,2.61-2,1.85-1.53,3.67-3.1,5.37-4.79a11.88,11.88,0,0,0,1.91-2.16c.16-.27-.18-.67-.46-.46-.64.48-1.2,1-1.79,1.59-.82.78-1.65,1.54-2.48,2.3-1.71,1.58-3.47,3.13-5.32,4.54a12.51,12.51,0,0,1-2.22,1.46c-.52.24-.06,1,.45.77Z"/><path d="M105.58,130.63a40.36,40.36,0,0,1,.08-4.67l-.25.43c2.74-1.84,5.72-3.32,8.3-5.38.32-.25-.1-.78-.43-.56-2,1.32-4.17,2.54-6.25,3.79-.46.28-.94.53-1.4.82-.3.19-.83.41-.95.76a5.14,5.14,0,0,0-.1,1.36c0,.42,0,.84,0,1.27,0,.72,0,1.45,0,2.18a.49.49,0,0,0,1,0Z"/><path d="M105.26,126.28a2.47,2.47,0,0,0,.69-.51,2.28,2.28,0,0,1,.22-.22l0,0c-.09.07,0,0,0,0l.13-.12a.39.39,0,0,0,.1-.08s0,0,0,0l0,0,.07,0a.3.3,0,0,0-.23-.55,2.85,2.85,0,0,0-.31.12.78.78,0,0,0-.24.16,1.67,1.67,0,0,0-.23.23,2.39,2.39,0,0,1-.22.23s-.11.08,0,0l-.09.06c-.08.06-.16.1-.24.15a.33.33,0,0,0-.12.46.34.34,0,0,0,.46.12Z"/><path d="M112.85,152.08c-4,2.44-8.3,4.17-12.48,6.23A3.91,3.91,0,0,0,98.48,160a5.13,5.13,0,0,0-.44,2.38,23.83,23.83,0,0,0,.32,2.66c.16,1,.24,2,.32,3.05.12,1.43.28,2.86.44,4.29.08.68.19,1.35.3,2,.06.35.13.69.2,1s.28,1,.13,1.32a.43.43,0,0,0,.43.65.44.44,0,0,0,.26-.74c-.19-.21-.13-.69-.16-1s0-.65-.06-1c0-.61-.08-1.22-.14-1.83-.13-1.22-.27-2.43-.38-3.65s-.13-2.25-.27-3.36c-.1-.86-.26-1.7-.35-2.56a6.24,6.24,0,0,1,.07-2.36,2.72,2.72,0,0,1,1.45-1.7c1.87-1,3.82-1.87,5.73-2.8a69.84,69.84,0,0,0,6.9-3.77c.4-.26,0-.9-.38-.65Z"/><path d="M100.12,178a16.54,16.54,0,0,0,4.56.95,20.2,20.2,0,0,0,2.58,0c.54,0,1.09-.07,1.63-.13a3.63,3.63,0,0,0,1.66-.4.25.25,0,0,0-.06-.45,3.66,3.66,0,0,0-1.68-.07c-.51,0-1,.09-1.55.12-.84,0-1.69.07-2.53,0a16.05,16.05,0,0,1-4.38-.86c-.53-.18-.75.65-.23.83Z"/><path d="M110.78,177.89a30.72,30.72,0,0,0,.1-8.35c-.15-1.63-.35-3.24-.57-4.86,0-.41-.76-.32-.73.1.18,2.46.43,4.91.61,7.37a26.32,26.32,0,0,1,.07,3.87c0,.56-.11,1.11-.2,1.67s.64.67.72.2Z"/><path d="M109.58,165.12a98.79,98.79,0,0,0,16.31-1,18.21,18.21,0,0,0,6.09-2.3,12.24,12.24,0,0,0,4.49-4.29c.95-1.71,1.45-4.22.23-5.93a.18.18,0,0,0-.32.13,8.69,8.69,0,0,1,.36,2.77,6,6,0,0,1-.84,2.43,12.19,12.19,0,0,1-4.27,4,17.55,17.55,0,0,1-5.8,2.21,72.2,72.2,0,0,1-7.91.88c-2.77.19-5.56.31-8.34.42a.34.34,0,0,0,0,.68Z"/><path d="M110.57,166.27a84.54,84.54,0,0,0,14.14.46c5-.14,9.93-.43,14.9-.66,1.23,0,2.47-.1,3.7-.11.66,0,1.32,0,2,0a4,4,0,0,0,2.22-.53.23.23,0,0,0-.11-.43c-.68,0-1.35.14-2,.14s-1.26,0-1.88,0c-1.07,0-2.15,0-3.22,0-2.38,0-4.76.19-7.13.32-5,.26-10,.58-14.94.56a61.27,61.27,0,0,1-7.54-.44c-.4-.05-.5.66-.1.72Z"/><path d="M136.44,156.89a28.5,28.5,0,0,1,7.31-.73,9.43,9.43,0,0,1,3.49.56,4.16,4.16,0,0,1,2.12,2.83,5.36,5.36,0,0,1-.91,4.81.21.21,0,0,0,.29.29,4.91,4.91,0,0,0,1.53-4.27,5.7,5.7,0,0,0-2-3.95,6.58,6.58,0,0,0-3.36-1,22.94,22.94,0,0,0-4.46.1,28.27,28.27,0,0,0-4.19.74.31.31,0,0,0,.17.6Z"/><path d="M153.17,128.55c4.25,0,8.5.11,12.75.08,4.79,0,9.59-.19,14.38-.26l6.66-.11a.1.1,0,0,0,0-.19c-4.25-.06-8.5-.1-12.75-.21-4.8-.12-9.58-.16-14.38-.12l-6.66,0a.39.39,0,0,0,0,.77Z"/><path d="M154,134.21c2.22-.24,4.42-.37,6.65-.4,2,0,4,0,6,0,3.93.08,7.86.19,11.8.16q1.75,0,3.51-.06l1.93-.06.9,0a2.88,2.88,0,0,1,1.17,0c.71.27.73-1.22-.11-.81a2.88,2.88,0,0,1-1.06.09l-.72,0-1.76,0h-3.21c-2,0-4-.07-6-.13-3.88-.13-7.77-.29-11.65-.31l-7.47-.06c-1,0-.93,1.58,0,1.49Z"/><path d="M186.45,128.37c.14,1.68-.2,3.37.08,5,.06.34.59.25.59-.07,0-1.65.22-3.31.08-5,0-.47-.79-.48-.75,0Z"/><path d="M183.56,134.48a9.72,9.72,0,0,1,.31,3c0,1,0,2,0,2.94,0,1.94,0,3.89-.1,5.84s-.09,3.89-.11,5.84c0,1,0,1.95,0,2.93,0,.5,0,1,0,1.48l0,.74a4.65,4.65,0,0,1,.08.82.41.41,0,1,0,.8,0,9,9,0,0,1,0-1.56c0-.49,0-1,0-1.48,0-1,0-1.95,0-2.93,0-2,.06-3.9.1-5.84s.09-3.9.12-5.84c0-1,0-2,0-2.94a11.63,11.63,0,0,1,.16-3c.34-1.26-1.82-1.14-1.43,0Z"/><path d="M151.8,159h30.92a4.09,4.09,0,0,1,1,0,.53.53,0,0,1-.14,1h-28c-1.49,0-3,0-4.46,0-.23,0-.43,0-.59-.23-.29-.38-.94,0-.65.38a1.75,1.75,0,0,0,1.66.59h28.14c1.3,0,2.61,0,3.91,0a1.28,1.28,0,0,0,1.27-1.48,1.3,1.3,0,0,0-1.29-1c-.43,0-.86,0-1.29,0H151.8a.38.38,0,0,0,0,.75Z"/><path d="M152.72,128.08a1.9,1.9,0,0,0-.44.87,6.85,6.85,0,0,0-.18,1.36,5.91,5.91,0,0,0,.38,2.76,1,1,0,0,0,1,.67c.23,0,.46-.35.22-.54l-.07-.07c.07.08,0,0,0,0l-.12-.21-.11-.23c.06.11,0,0,0-.07a1,1,0,0,1-.05-.16A5.9,5.9,0,0,1,153,131a8,8,0,0,1,0-1.55c0,.08,0-.09,0-.11l0-.17.06-.26,0-.13c0-.11,0,0,0,0a.93.93,0,0,0,0-.1c0-.06-.06.07,0,0a.41.41,0,0,0-.58-.58Z"/><path d="M112.32,166.43a15,15,0,0,1,2.2,5,12.22,12.22,0,0,1,.48,2.87,7.87,7.87,0,0,1-.07,1.37,5.71,5.71,0,0,0-.17,1.15.13.13,0,0,0,.19.11c.7-.43.81-1.67.84-2.39a12.47,12.47,0,0,0-.37-3.16,13.94,13.94,0,0,0-2.53-5.36c-.25-.32-.82.11-.57.44Z"/><path d="M114.35,177.26c-.08.21-.11.28-.22.52s-.27.52-.42.78a18.8,18.8,0,0,1-1.14,1.8,11.42,11.42,0,0,1-1.37,1.58,3,3,0,0,1-1.28.81.36.36,0,0,0,.1.7,3.69,3.69,0,0,0,2.53-1.64,17.54,17.54,0,0,0,2-3,9.05,9.05,0,0,0,.59-1.31c.18-.52-.64-.74-.82-.22Z"/><path d="M127.23,179.22a25.82,25.82,0,0,1,15.32-11.65,21.52,21.52,0,0,1,9.93-.44,14.66,14.66,0,0,1,8.56,5.11,14.35,14.35,0,0,1,2.43,11,.36.36,0,0,0,.69.19,10.55,10.55,0,0,0,.49-5.43,14.25,14.25,0,0,0-1.78-5.18,14.94,14.94,0,0,0-8.42-6.43c-6.69-2.14-14.42-.22-20.08,3.69a25.79,25.79,0,0,0-7.87,8.68.42.42,0,0,0,.73.43Z"/><path d="M81.38,170.85c1.05,2.23,2.25,4.38,3.44,6.54.67,1.21,1.36,2.41,2,3.61A27.35,27.35,0,0,0,89,184.54c.19.24.6,0,.51-.3a23.12,23.12,0,0,0-1.87-3.72c-.68-1.2-1.36-2.41-2.05-3.6-1.23-2.14-2.46-4.27-3.54-6.48-.24-.47-.93-.06-.71.41Z"/><path d="M100.37,179.16s0,.06,0,.09l0-.1a1.13,1.13,0,0,1,0,.32v-.1a.11.11,0,0,1,0,0l0-.09v0l0-.07h0l.08-.06,0,0,.09,0a.56.56,0,0,0-.29.21.68.68,0,0,0-.08.34.63.63,0,0,0,0,.24.87.87,0,0,0,.07.17.35.35,0,0,0,.32.21.31.31,0,0,0,.17,0,.27.27,0,0,0,.13-.13A.39.39,0,0,0,101,180v-.09a.58.58,0,0,0,0-.19v.11a.85.85,0,0,1,0-.16l0,.1a.08.08,0,0,0,0,0l0,.09,0,0-.06.08v0l-.07.06,0,0a.45.45,0,0,0,.2-.28,1.26,1.26,0,0,0,0-.64.36.36,0,0,0-.44-.25.37.37,0,0,0-.21.16l0,.09a.61.61,0,0,0,0,.19Z"/><path d="M100.38,179.79c-1,.46-2,.83-3,1.19-.51.18-1,.34-1.56.49a1.5,1.5,0,0,0-1.08.9,3.63,3.63,0,0,0,.12,1.63c.11.66.38,1.53,1.16,1.61a.29.29,0,0,0,.2-.48,2.29,2.29,0,0,1-.56-1.33c0-.21,0-.42-.07-.63a.63.63,0,0,1,.22-.55.73.73,0,0,1,.38-.17l.69-.21c.46-.15.91-.3,1.36-.48q1.35-.54,2.64-1.2c.51-.26.06-1-.45-.77Z"/><path d="M96.1,185.61l7-.4c1.15-.07,2.32-.14,3.47-.25.57-.06,1.15-.15,1.72-.22s1.12-.05,1.41-.4a.21.21,0,0,0,0-.29c-.34-.29-.89-.21-1.32-.2s-1.15,0-1.72.06c-1.19.06-2.38.18-3.56.28-2.34.21-4.68.43-7,.7-.44.05-.47.74,0,.72Z"/><path d="M109.29,181.22a10.84,10.84,0,0,1-.05,1.51v.06s0,.11,0,0,0,0,0,0v.08c0,.11,0,.22,0,.33a3,3,0,0,0,0,1,.39.39,0,0,0,.75,0,3.83,3.83,0,0,0,.19-.94c0-.21.06-.42.08-.63a10.87,10.87,0,0,0,0-1.51.46.46,0,0,0-.45-.44.44.44,0,0,0-.44.44Z"/><path d="M100.88,179.4l1.05-.22.13,0h0s0,0,0,0h0l-.06-.06s0,0,0,0v0c0,.09,0-.06,0,0V181a1.36,1.36,0,0,0,.09.63.35.35,0,0,0,.59,0,1.55,1.55,0,0,0,.09-.71v-1.29c0-.19,0-.38,0-.57a.87.87,0,0,0-.24-.57.78.78,0,0,0-.69-.15l-1.22.26a.4.4,0,0,0-.28.49.4.4,0,0,0,.49.28Z"/><path d="M102.72,181.84c1.23,0,2.45,0,3.67,0l1.68,0c.33,0,.66,0,1,0a1.21,1.21,0,0,0,.81-.23.21.21,0,0,0,0-.28,1.22,1.22,0,0,0-.81-.24c-.33,0-.66,0-1,0-.56,0-1.12,0-1.68,0-1.22,0-2.44.06-3.67.07a.37.37,0,0,0,0,.73Z"/><path d="M160.71,184.24c.91,5.33-2,10.32-6.35,13.19s-10.17,3.8-15,1.53c-3.35-1.58-6.5-4.45-7.38-8.17-.13-.57-1-.33-.87.24.82,3.49,3.52,6.29,6.55,8.05a15,15,0,0,0,8.4,2,17.5,17.5,0,0,0,13.81-8.05,13.15,13.15,0,0,0,1.71-9.07c-.1-.58-1-.33-.87.24Z"/><path d="M44.43,181.31c-1.8,6.59,1.29,13.7,6.86,17.46a16.46,16.46,0,0,0,9.91,2.78A17.09,17.09,0,0,0,70.67,198a16.71,16.71,0,0,0,4.11-4.44,19.62,19.62,0,0,0,2.4-6.36c.12-.57-.76-.81-.87-.24a19.47,19.47,0,0,1-1.94,5.48,14.8,14.8,0,0,1-3.23,4,16.44,16.44,0,0,1-8.73,4.1,15.81,15.81,0,0,1-16-8.63,14.52,14.52,0,0,1-1.12-10.35.46.46,0,0,0-.88-.24Z"/><path d="M74.89,152c-1.67,1.57-3.37,3.13-4.94,4.81a18.48,18.48,0,0,0-4.21,6.05,4,4,0,0,0,0,3c.2.42.91.12.76-.32-.58-1.77.79-3.74,1.76-5.1A41.47,41.47,0,0,1,73.18,155c.8-.77,1.61-1.52,2.41-2.28.46-.44-.24-1.13-.7-.69Z"/><path d="M67.35,168.59A22.13,22.13,0,0,0,54,166a15.17,15.17,0,0,0-10.5,6.61,12.84,12.84,0,0,0-2.1,5.79c-.09,1-.2,2.24.7,2.9a7.61,7.61,0,0,0,3.17.83c5,.86,10,1.65,14.94,2.44,5.5.86,11,1.87,16.49,2.7.62.09.9-.84.27-1-4.61-.86-9.26-1.55-13.89-2.3s-9.48-1.62-14.23-2.38l-3.44-.55-1.51-.24c-.44-.08-1.07-.12-1.34-.52a2.56,2.56,0,0,1-.12-1.53,10.59,10.59,0,0,1,.23-1.48,11.63,11.63,0,0,1,1-2.75,14.06,14.06,0,0,1,9.06-7.08,19,19,0,0,1,7.1-.19,22.13,22.13,0,0,1,7.07,2.11.45.45,0,0,0,.45-.78Z"/><path d="M66,166.48c3.31,6.1,6.37,12.34,9.6,18.48.44.85.9,1.69,1.36,2.53.22.4.43.8.67,1.2a2.43,2.43,0,0,0,.88,1,.28.28,0,0,0,.42-.24c.09-.75-.54-1.59-.87-2.23s-.78-1.48-1.18-2.22l-2.46-4.57q-2.49-4.65-5-9.25c-.93-1.69-1.84-3.39-2.77-5.08-.22-.4-.84,0-.62.36Z"/><path d="M154.4,133.84q-.48,9.63-.41,19.27c0,.9,0,1.8,0,2.7a8,8,0,0,0,.22,2.67.28.28,0,0,0,.53,0,6.8,6.8,0,0,0,.13-2.3c0-.81,0-1.62,0-2.42,0-1.62,0-3.23,0-4.84,0-3.2.08-6.39.18-9.59.07-1.83.14-3.66.23-5.49,0-.57-.86-.57-.89,0Z"/><path d="M150.49,159.69c-.93,0-.93-.86-.93-1.52V129.8c0-1.2-.07-2.43,0-3.63a.94.94,0,0,1,1.87,0,2.61,2.61,0,0,1,0,.28v27.84c0,1.46,0,2.93,0,4.38a1,1,0,0,1-.94,1c-.48,0-.48.77,0,.75a1.73,1.73,0,0,0,1.69-1.7V126.85a2.45,2.45,0,0,0-.42-1.78,1.7,1.7,0,0,0-2.63.12,1.83,1.83,0,0,0-.32,1.11c0,.56,0,1.11,0,1.67v26.78c0,1.33-.06,2.67,0,4a1.71,1.71,0,0,0,1.68,1.69A.38.38,0,0,0,150.49,159.69Z"/><path d="M106.09,130.27a39.38,39.38,0,0,1-.6,4c-.12.64-.24,1.28-.37,1.92a6.57,6.57,0,0,0-.19,2c0,.27.42.46.57.16a6.71,6.71,0,0,0,.55-1.92c.13-.69.27-1.39.38-2.08a35.81,35.81,0,0,0,.46-4.12c0-.52-.76-.51-.8,0Z"/><path d="M109.94,144a19.38,19.38,0,0,1-1.53-3.14l0-.13a.67.67,0,0,1-.06.12s-.11.08-.11.06,0,0,0,0h0s.08,0,.11,0l.08.05.15.09.35.23a7.86,7.86,0,0,1,1.17,1c.41.42.84.83,1.23,1.28.23.28.64-.07.48-.37a6.16,6.16,0,0,0-1.08-1.55,9,9,0,0,0-1.47-1.21c-.46-.31-1.25-.77-1.68-.14-.24.36,0,.74.11,1.09s.3.62.46.93a19.18,19.18,0,0,0,1.21,2c.24.34.78,0,.57-.33Z"/><path d="M109.7,140.63a15.63,15.63,0,0,0,2,.59,9.74,9.74,0,0,0,2.08.22c.27,0,.35-.44.07-.49-.67-.11-1.34-.24-2-.39a14.67,14.67,0,0,1-2-.57.33.33,0,0,0-.18.64Z"/><path d="M75.9,152.27a4.86,4.86,0,0,1,4.43-1.19c1.09.24,2.69.67,3.29,1.71a1.1,1.1,0,0,1,.14.64c0,.54-.12,1.09-.18,1.63-.13,1.05-.28,2.1-.43,3.14-.28,2-.6,3.94-.9,5.91a44.61,44.61,0,0,0-.75,6.51.27.27,0,0,0,.53.07c.46-2.12.7-4.3,1-6.44s.74-4.33,1-6.5c.15-1.11.3-2.21.42-3.32a3,3,0,0,0-.26-2.25,6.36,6.36,0,0,0-3.65-2,5.64,5.64,0,0,0-5.4,1.45.47.47,0,0,0,.66.66Z"/><path d="M80.28,143.62a8.87,8.87,0,0,0,.14,2.12,1.87,1.87,0,0,0,.57,1,.89.89,0,0,0,.66.23,1.3,1.3,0,0,0,.72-.31.42.42,0,0,0,0-.63.42.42,0,0,0-.62.12l-.08.07s0,0,0,0,0,0,0,0,.06,0,0,0h0c.06,0,0,0-.06,0,.06,0,0,0,0,0s0,0,0,0l-.08-.09c0-.05,0,0,0,0a1.71,1.71,0,0,1-.13-.23s0,0,0,0l0,0s0-.05,0-.07a2.33,2.33,0,0,1-.08-.38v0s0,0,0,0,0-.09,0-.13,0-.15,0-.23,0-.31,0-.47,0-.54,0-.81a.4.4,0,0,0-.79,0Z"/><path d="M85.26,146.53a3.18,3.18,0,0,0,1.15-.11,2.45,2.45,0,0,0,.56-.23,1.08,1.08,0,0,0,.48-.44.3.3,0,0,0-.33-.43,1.36,1.36,0,0,0-.28.11s0,0,0,0l-.12.05-.11.06-.23.12h0l-.06,0c-.09,0-.11.05,0,0l-.06,0a3,3,0,0,1-.49.14l-.13,0h-.33a.3.3,0,0,0-.3.3.32.32,0,0,0,.3.31Z"/><path d="M87,146.37l2.26.67c.38.11.76.22,1.14.31a2.45,2.45,0,0,0,1.18.19l-.29,0,.16.08a.42.42,0,1,0,.21-.78h-.18l.27.11a2.44,2.44,0,0,0-1.11-.43l-1.15-.29-2.3-.55a.37.37,0,0,0-.19.72Z"/><path d="M91.45,147.37a.15.15,0,0,1,0,.07c0,.08,0-.13,0,0l0,.12a.77.77,0,0,0,0,.4c.14.46.78.5,1.17.55a7.73,7.73,0,0,0,1.52,0,.25.25,0,0,0,.24-.21.25.25,0,0,0-.18-.27c-.26-.05-.53-.11-.8-.14l-.15,0h-.09l-.28,0-.18,0h0l-.2,0a1.4,1.4,0,0,1-.28-.06l-.05,0c-.07,0,0,0,0,0l-.07,0c-.07,0,.08.07,0,0s.07.11,0,0,0,.12,0,.06,0,0,0,.08a0,0,0,0,0,0,0s0,.12,0,0l0,0a1.14,1.14,0,0,0,0-.37.38.38,0,0,0-.38-.38.39.39,0,0,0-.38.38Z"/><path d="M82.53,135.52a8.84,8.84,0,0,0-3.32,0l-4.25.49-1,.12c-.47,0-.48.8,0,.75l6.7-.77a4.41,4.41,0,0,1,1.73.08.37.37,0,0,0,.19-.72Z"/><path d="M87.2,140.14a10.56,10.56,0,0,0-3.08-3.86.37.37,0,0,0-.37.65,9.72,9.72,0,0,1,2.8,3.58c.22.43.87.05.65-.37Z"/><path d="M70.81,148.78c1.54.46,3.11.84,4.64,1.33a7.16,7.16,0,0,1,1.34.56c.29.17.48.4.83.38.89-.06,1.78-.18,2.67-.27a10.51,10.51,0,0,0,3.5-.72A7.41,7.41,0,0,0,87.55,146c.17-.45-.55-.64-.72-.2a6.62,6.62,0,0,1-2.53,3.14A7,7,0,0,1,80.71,150c-1.08.07-2.16.22-3.24.33l.26.11a6.54,6.54,0,0,0-2.38-1.13c-1.44-.44-2.9-.81-4.34-1.24a.37.37,0,0,0-.2.72Z"/><path d="M66.78,163.36a200.72,200.72,0,0,0,9.43,19.2c1.08,1.93,2.18,3.86,3.31,5.77a.29.29,0,0,0,.5-.3c-1.8-3.28-3.65-6.54-5.41-9.84-1.6-3-3.08-6-4.55-9.09q-1.43-3-2.79-6c-.15-.34-.64,0-.49.29Z"/><path d="M70.23,168.8q2.64.67,5.29,1.24a28.74,28.74,0,0,0,5.28.84c.24,0,.26-.32.06-.4a35.77,35.77,0,0,0-5.22-1.16c-1.75-.35-3.5-.74-5.23-1.16a.33.33,0,0,0-.18.64Z"/><path d="M73.13,143.51c0,1.36-.19,3.29-1.3,4.26s-1.62-.54-1.8-1.38a15,15,0,0,1-.11-5c.09-.71.42-2.91,1.62-2.34a2.74,2.74,0,0,1,1.13,1.57,8.43,8.43,0,0,1,.46,2.9.33.33,0,0,0,.65,0c0-1.59-.27-3.88-1.69-4.89a1.45,1.45,0,0,0-1.58-.13,2.65,2.65,0,0,0-1,1.64,12.22,12.22,0,0,0-.34,3,15.82,15.82,0,0,0,.18,3.15c.2,1.13.84,2.93,2.34,2.37a2.92,2.92,0,0,0,1.49-1.72,8.84,8.84,0,0,0,.61-3.38A.33.33,0,0,0,73.13,143.51Z"/><path d="M70.71,139.05c-.14,0,0,0,0,.06s.13.09.18.14a1.67,1.67,0,0,1,.31.34,4,4,0,0,1,.53,1,8.33,8.33,0,0,1,.46,2.89,8.54,8.54,0,0,1-.44,2.83,4.28,4.28,0,0,1-.52,1,2.43,2.43,0,0,1-.34.38,1.49,1.49,0,0,0-.14.12c-.06.05-.23.07-.06.07a.33.33,0,0,0,0,.65c.3,0,.64-.35.83-.55a4.09,4.09,0,0,0,.68-1.11,9.62,9.62,0,0,0,0-6.82,4.25,4.25,0,0,0-.68-1.14c-.19-.21-.55-.58-.86-.58a.32.32,0,0,0,0,.64Z"/><path d="M71.92,138.35,70.31,138a17,17,0,0,1-2.13-.54s0,0,0,0,.24.11.15.28c0,0,0-.15,0-.19a.8.8,0,0,1,.49-.55,1.67,1.67,0,0,1,.59,0h4.14a.38.38,0,0,0,0-.75H69.36a2,2,0,0,0-.91.15,1.59,1.59,0,0,0-.7.66,1.27,1.27,0,0,0-.16.83c.08.29.46.37.72.44s.81.22,1.22.31c.73.17,1.46.34,2.19.49.47.09.68-.63.2-.72Z"/><path d="M85.44,144.77a1.72,1.72,0,0,1-3.07,1.07,1.72,1.72,0,1,1,3.07-1.07.38.38,0,0,0,.75,0,2.51,2.51,0,0,0-1.62-2.32,2.47,2.47,0,0,0-3,3.58,2.47,2.47,0,0,0,4.59-1.26A.38.38,0,0,0,85.44,144.77Z"/><path d="M90.45,140.53l.12-.06s0,0,0,0h.07l.11,0h.18c.09,0-.07,0,0,0H91l.12,0,.06,0s0,0,0,0l.1.05,0,0s.07.05,0,0,0,0,0,0l0,0,.07.08h0s.06.08.09.11l.08.08a.54.54,0,0,0,.26.16.23.23,0,0,0,.27-.11.47.47,0,0,0,0-.4.91.91,0,0,0-.2-.36,1.48,1.48,0,0,0-.58-.37,1.29,1.29,0,0,0-1.31.3c-.23.2.06.57.32.42Z"/><path d="M68,185.36a7.51,7.51,0,0,1-5.61,7.43,7.77,7.77,0,0,1-8.74-3.67,7.4,7.4,0,0,1-.39-6.2c.17-.45-.55-.64-.72-.2a8.2,8.2,0,0,0,3.86,10.1,8.58,8.58,0,0,0,10.24-1.77,8,8,0,0,0,2.11-5.69c0-.48-.78-.49-.75,0Z"/><path d="M109,178.38a11.13,11.13,0,0,0-.22,1.52c0,.24,0,.48,0,.73s0,.64.18.83a.34.34,0,0,0,.48,0c.22-.21.17-.56.17-.83s0-.47,0-.71c0-.48,0-1,0-1.45a.32.32,0,0,0-.63-.09Z"/><path d="M162.46,168.57a4.41,4.41,0,0,1,4.75,3.12,4.11,4.11,0,0,1-.4,2.85,4.39,4.39,0,0,1-.87,1.19c-.34.31-.89.56-1.05,1a.33.33,0,0,0,.23.4c.55.2,1.22-.38,1.59-.72a5.17,5.17,0,0,0,1.46-5.12,5,5,0,0,0-2.27-2.86,4.83,4.83,0,0,0-3.62-.53c-.43.11-.24.72.18.66Z"/><path d="M163.31,168.69l.27,3.32c0,.54.08,1.09.14,1.63l.08.81a1.56,1.56,0,0,0,.16.75c.1.14.35.19.43,0a1.36,1.36,0,0,0,.05-.75l-.07-.75c-.05-.56-.11-1.13-.17-1.69l-.35-3.32c0-.34-.57-.35-.54,0Z"/><path d="M134.37,179c2.75-.63,5.5-1.22,8.26-1.79,1.38-.29,2.77-.55,4.14-.84a19.87,19.87,0,0,0,4-1c.33-.15.13-.59-.16-.61a17.12,17.12,0,0,0-4.15.43c-1.39.22-2.77.5-4.15.79-2.76.56-5.5,1.22-8.23,1.93a.58.58,0,0,0,.31,1.11Z"/><path d="M135.68,182.36c2.72-.33,5.41-.88,8.1-1.4l4-.79a22.3,22.3,0,0,0,4-1.08.2.2,0,0,0-.06-.39,20.58,20.58,0,0,0-4,.31c-1.38.21-2.76.42-4.13.66-2.71.46-5.43.94-8.08,1.66-.55.15-.47,1.1.14,1Z"/><path d="M113.07,188.45c3.16.37,6.31.92,9.45,1.43,3.5.56,7,1.1,10.53,1.57s7.11.9,10.69,1.11c1.63.1,3.28.15,4.92.13a14.25,14.25,0,0,0,5.24-.64,4.37,4.37,0,0,0,2.49-2.61,4.77,4.77,0,0,0-1.32-4.68c-.22-.24-.67.08-.46.35a4.2,4.2,0,0,1,.91,4.18,3.68,3.68,0,0,1-2.3,2.08,16.91,16.91,0,0,1-5,.44c-1.6,0-3.21-.05-4.81-.15-6.8-.43-13.51-1.59-20.25-2.57-3.37-.49-6.73-.94-10.12-1.24-.4,0-.39.56,0,.6Z"/><path d="M141.69,192.75a8,8,0,0,0,5.76,2.19,7.75,7.75,0,0,0,2.92-.72,5.7,5.7,0,0,0,2.47-1.89.3.3,0,0,0-.41-.41,19,19,0,0,1-2.25,1.53,7.89,7.89,0,0,1-2.73.72,7.59,7.59,0,0,1-5.4-1.78c-.25-.21-.61.13-.36.36Z"/><path d="M113.56,121a16.56,16.56,0,0,0,1.8-1.2c.3-.21.6-.41.89-.64a7.62,7.62,0,0,1,.87-.62l-.54-.31a5,5,0,0,0,.21,1.33,7.47,7.47,0,0,1,.3,1.24.27.27,0,0,0,.54,0,5,5,0,0,0-.12-1.33,5.74,5.74,0,0,1-.21-1.24.36.36,0,0,0-.54-.31c-.31.18-.62.35-.92.54s-.61.44-.91.67a17.71,17.71,0,0,1-1.74,1.24.37.37,0,0,0,.37.63Z"/><path d="M110.42,151.28c0,.18-.19.32-.21.55a1.27,1.27,0,0,0,.3.79,1.34,1.34,0,0,0,.82.57,1.79,1.79,0,0,0,1.09-.15,5.75,5.75,0,0,0,1.06-.51c.17-.11.34-.27.28-.5s-.35-.25-.54-.19a7.93,7.93,0,0,0-1.07.48,1.45,1.45,0,0,1-.45.13.49.49,0,0,1-.17,0l-.08,0-.07,0a1.08,1.08,0,0,1-.54-.57s0-.07,0,0,0,0,0,0,0-.06,0-.08a.93.93,0,0,0,.09-.46.28.28,0,0,0-.55,0Z"/><path d="M111.31,166.37c.32,2.08.53,4.17.69,6.27.08,1,.13,2,.16,3l0,.82c0,.13.08.63,0,.73s-.54.09-.65.09a4.42,4.42,0,0,1-.81-.06c-.46-.07-.68.59-.2.72.72.2,2.34.36,2.44-.68a15.63,15.63,0,0,0,0-1.81q0-1-.09-1.92a60.41,60.41,0,0,0-1-7.34c-.07-.39-.64-.22-.58.16Z"/><path d="M110.67,177.7c0,.43,0,.87,0,1.31a5.49,5.49,0,0,0,0,.7c0,.22.1.53.32.63a.26.26,0,0,0,.3,0c.19-.15.17-.48.17-.7s0-.41,0-.61q0-.65,0-1.29a.38.38,0,0,0-.38-.38.39.39,0,0,0-.38.38Z"/><path d="M110,181.31a5,5,0,0,0,1-.22,2.06,2.06,0,0,0,.48-.21,1.41,1.41,0,0,0,.43-.33l-.53-.14a5.58,5.58,0,0,1,.08.57l0,.29a.93.93,0,0,0,.12.29.25.25,0,0,0,.45-.06.85.85,0,0,0,0-.32l0-.28a5.51,5.51,0,0,1-.06-.57.33.33,0,0,0-.41-.31.53.53,0,0,0-.12,0l-.1,0s0,0,0,0l-.21.08-.41.15a5.55,5.55,0,0,1-.87.22.36.36,0,0,0-.24.18.43.43,0,0,0,0,.25.39.39,0,0,0,.39.35Z"/><path d="M114.2,170.3a12.8,12.8,0,0,1,.37,4.53,31.83,31.83,0,0,1-.92,4.42c-.05.22.25.45.41.24,2-2.6,1.79-6.41.68-9.34-.13-.33-.64-.21-.54.15Z"/><path d="M120.89,153.4a10.24,10.24,0,0,0,1.24,1.93,5.49,5.49,0,0,0,1.72,1.5.17.17,0,0,0,.21-.27c-.5-.54-1-1-1.53-1.58a9.7,9.7,0,0,1-1.23-1.82c-.14-.28-.55,0-.41.24Z"/><path d="M126.92,153.43c-1.31,2.2-3.69,3.42-6,4.34a56.62,56.62,0,0,1-8.49,2.8,35.42,35.42,0,0,1-5.32.72.18.18,0,0,0,0,.36,30.64,30.64,0,0,0,9.5-1.81c2.66-.85,5.47-1.57,7.81-3.14a9,9,0,0,0,2.91-3,.24.24,0,0,0-.41-.24Z"/><path d="M106.61,162a66.9,66.9,0,0,1,1.11,8.21c.1,1.33.14,2.66.15,4,0,.66,0,1.33,0,2a13.79,13.79,0,0,0,0,2c0,.13.22.12.25,0a9.64,9.64,0,0,0,.12-1.94c0-.69,0-1.39,0-2.08,0-1.39-.06-2.78-.15-4.17a61.76,61.76,0,0,0-1.08-8.13c0-.24-.4-.14-.36.1Z"/><path d="M104.07,139s0-.06,0,0,0,0,0,0l0-.05v0s0,0,0,0,0-.07,0-.11,0,0,0-.06,0-.05,0,0,0,0,0,0v-.11s0-.1,0,0,0,0,0-.06l0-.11v0s0,0,0,0l0-.06,0-.05c0-.06,0,.05,0,0s0-.08.09-.09l0,0h0l0,0,.06,0s-.08,0,0,0h0l.11,0h.15s-.06,0,0,0,.09,0,.13,0l.13,0h0l.06,0,.11.06h0s0,0,0,0a.67.67,0,0,0,.11.07.22.22,0,0,0,.32-.24.6.6,0,0,0-.16-.34.87.87,0,0,0-.28-.19,1.13,1.13,0,0,0-.77-.06,1.1,1.1,0,0,0-.79,1.1,1.15,1.15,0,0,0,.31.77.31.31,0,0,0,.44,0,.33.33,0,0,0,0-.45Z"/><path d="M105.32,138.67a5.64,5.64,0,0,0,.88.81,4.73,4.73,0,0,0,.46.32l.26.14a1.32,1.32,0,0,0,.33.08.24.24,0,0,0,.27-.11.23.23,0,0,0,0-.28,1.1,1.1,0,0,0-.23-.2,2.07,2.07,0,0,0-.25-.15,4.76,4.76,0,0,1-.47-.31l0,0,0,0s0,0,0,0l0,0a1.73,1.73,0,0,1-.21-.17l-.41-.41a.29.29,0,0,0-.42,0,.3.3,0,0,0,0,.42Z"/><path d="M80.78,97.43a16.54,16.54,0,0,0,.81,5.31c.28.91.6,1.81.94,2.7A8.5,8.5,0,0,0,83.75,108a.27.27,0,0,0,.46-.19,9.28,9.28,0,0,0-.93-2.51c-.36-.88-.7-1.78-1-2.69a16.48,16.48,0,0,1-1-5.2.28.28,0,0,0-.56,0Z"/><path d="M73.14,83.87c8.57,3,17,6.51,25.71,8.9,2.63.72,5.29,1.31,8,1.82.58.12.83-.77.25-.89a123.26,123.26,0,0,1-13.51-3.59c-4.18-1.36-8.31-2.89-12.45-4.37-2.57-.92-5.15-1.82-7.74-2.68-.51-.17-.73.64-.22.81Z"/><path d="M73.44,82.88c0,.09,0,0,0,0v0s0-.06,0-.06a1.34,1.34,0,0,1,.4-.27,5.68,5.68,0,0,1,1.46-.42,15.56,15.56,0,0,1,1.8-.24,12.48,12.48,0,0,0,1.84-.2.39.39,0,0,0,0-.74,7.11,7.11,0,0,0-2.11,0,16.65,16.65,0,0,0-2.11.38c-.82.21-2.31.64-2.1,1.77.1.5.84.28.76-.21Z"/><path d="M103.53,108.23c1-.54,2.07-1,3.11-1.52a15.91,15.91,0,0,0,2.82-1.58c.19-.15.65-.57.23-.78a.28.28,0,0,0-.29.49c-.14-.15-.15-.28-.05-.38l0,0s0,0,0,0l-.2.11-.6.28c-.61.26-1.21.56-1.8.86-1.2.59-2.42,1.15-3.59,1.79-.47.25-.06,1,.41.7Z"/><path d="M103,108.45a23.73,23.73,0,0,0,2.08,6,11.46,11.46,0,0,0,1.61,2.46,2.78,2.78,0,0,0,1.79,1.1c.3,0,.38-.4.15-.54a8.91,8.91,0,0,1-2.92-3.69,21.13,21.13,0,0,1-2-5.53c-.09-.45-.76-.26-.68.18Z"/><path d="M106.72,118.17c-.83.66-1.67,1.3-2.44,2a.23.23,0,0,0,0,.3.22.22,0,0,0,.3,0c.82-.66,1.56-1.41,2.31-2.14.12-.12,0-.27-.17-.18Z"/><path d="M78.4,81.79c7.19,3.22,14.29,6.65,21.68,9.42,1.07.4,2.14.78,3.23,1.13a23.61,23.61,0,0,0,3.67,1c.13,0,.23-.15.1-.22a26.37,26.37,0,0,0-3-1.18l-2.93-1.13q-2.69-1-5.33-2.12c-3.53-1.49-7-3.12-10.49-4.69-2.18-1-4.37-2-6.56-2.92-.45-.2-.85.46-.39.66Z"/><path d="M82.56,105.1a12.72,12.72,0,0,1,.51,2.11,3.43,3.43,0,0,1,.15,1c0,.35.88.89.84,1.24s.21.25.38.09c.59-.58-.5-1.56-.63-2.31a9.19,9.19,0,0,0-.84-2.26c-.11-.23-.49-.07-.41.18Z"/><path d="M103.52,123.47a24.35,24.35,0,0,0,3-2c.5-.37,1-.75,1.5-1.13a10.48,10.48,0,0,0,1.28-1.12c.14-.16,0-.49-.24-.4a6.34,6.34,0,0,0-1.42.88c-.51.36-1,.77-1.48,1.15a24.52,24.52,0,0,1-2.92,2.07c-.37.2,0,.76.33.56Z"/><path d="M103.83,123.49a7.11,7.11,0,0,1,.74.47c.07.05-.09-.07,0,0l.06.06a.69.69,0,0,1,.13.11c.08.08.17.16.25.25l.11.12,0,.06c.08.09,0,0,0,0l.27.32,0,.07c.05.07-.07-.09,0,0s.1.13.16.19.15.17.23.26a.38.38,0,0,0,.46.06.39.39,0,0,0,.17-.43,4.38,4.38,0,0,0-.31-.7,3.18,3.18,0,0,0-.46-.63,5,5,0,0,0-1.4-1,.49.49,0,1,0-.5.85Z"/><path d="M79.43,81.62A29.23,29.23,0,0,1,92.31,67.06a32.57,32.57,0,0,1,19.41-4.36,29.39,29.39,0,0,1,18.75,9.17,27.5,27.5,0,0,1,6.58,16.53,29,29,0,0,1-.84,9,24.48,24.48,0,0,1-3.6,8.22,20,20,0,0,1-1.43,1.76c-.22.24.13.59.35.36a24.39,24.39,0,0,0,4.9-7.83,27,27,0,0,0,1.67-9.21,29.58,29.58,0,0,0-5.41-17.82,29.11,29.11,0,0,0-18-10.83A33.32,33.32,0,0,0,94,65c-6.06,2.94-11.62,7.75-14.3,14a23.19,23.19,0,0,0-.86,2.37c-.12.41.48.56.63.18Z"/><path d="M106.8,93.72a90.07,90.07,0,0,1,2.39,13.34c.22,2.12.41,4.24.83,6.32a17.52,17.52,0,0,0,.88,3.11c.31.78.79,1.53,1.7,1.61a3.55,3.55,0,0,0,1.5-.29c.54-.19,1.08-.4,1.61-.63a20.3,20.3,0,0,0,3.2-1.76c.07,0,0-.18,0-.14a29.59,29.59,0,0,1-5.63,1.82,1,1,0,0,1-1.11-.34,4.51,4.51,0,0,1-.51-1.22,22.81,22.81,0,0,1-.73-2.93c-.37-2-.52-4-.76-6.06s-.55-4.08-.93-6.1q-.68-3.51-1.65-6.94a.38.38,0,0,0-.74.21Z"/><path d="M120.68,114.75c.94-.39,1.88-.77,2.79-1.23s1.88-1,2.79-1.62a25.06,25.06,0,0,0,5-3.86c.21-.22-.07-.62-.34-.44-1.7,1.16-3.31,2.44-5.05,3.56a60.37,60.37,0,0,1-5.35,3.09c-.28.14-.08.62.21.5Z"/><path d="M108.88,118.12a13.31,13.31,0,0,0,1.17-.79l.65-.5c.16-.13.31-.27.48-.4s0-.39-.19-.33a5.48,5.48,0,0,0-1.25.7,10.42,10.42,0,0,1-1.17.79c-.34.19,0,.71.31.53Z"/><path d="M109.36,119.15l1.25-.91.62-.5a1.89,1.89,0,0,0,.53-.56.18.18,0,0,0-.2-.26,1.93,1.93,0,0,0-.67.34c-.22.14-.42.28-.63.44l-1.21.93a.3.3,0,1,0,.31.52Z"/><path d="M78.63,85.53a25.56,25.56,0,0,0-3.07,7.73A10.88,10.88,0,0,0,77,101.41a.32.32,0,0,0,.55-.32,13,13,0,0,1-1.06-7.86A25.48,25.48,0,0,1,79.38,86a.43.43,0,0,0-.75-.44Z"/><path d="M78.94,98.89a27.63,27.63,0,0,0-.08-3.28.36.36,0,0,0-.71,0,6,6,0,0,0,3.2,5.78.25.25,0,0,0,.25-.43,6.3,6.3,0,0,1-2.74-5.35h-.71a25.63,25.63,0,0,1,.13,3.28c0,.42.64.42.66,0Z"/><path d="M80.8,91.35c.16,3.36,1.93,7,5,8.67.31.17.71-.28.4-.53A13.33,13.33,0,0,1,82.9,96a10.39,10.39,0,0,1-1.48-4.62c0-.4-.64-.4-.62,0Z"/><path d="M81.62,98a9.77,9.77,0,0,0,1.51,1.21,7.41,7.41,0,0,0,.82.46,4.56,4.56,0,0,0,1,.3.2.2,0,0,0,.15-.37c-.26-.15-.52-.3-.79-.44s-.55-.29-.81-.45A8.1,8.1,0,0,1,82,97.61a.29.29,0,0,0-.41.42Z"/><path d="M86.46,91.91a19.42,19.42,0,0,0,5.87,6.23,15.62,15.62,0,0,0,8,2.83.28.28,0,0,0,.07-.55,24.56,24.56,0,0,1-7.61-3,18.22,18.22,0,0,1-5.75-5.87.37.37,0,0,0-.63.37Z"/><path d="M91.16,98.84a9.34,9.34,0,0,0,5.18,1.65c.2,0,.19-.3,0-.32a11.2,11.2,0,0,1-5-1.66c-.2-.14-.4.19-.19.33Z"/><path d="M91.46,96.05a13.25,13.25,0,0,0,6.2,3.26,23.24,23.24,0,0,0,4,.55,15.11,15.11,0,0,0,4.14-.15.19.19,0,0,0,0-.37,22.71,22.71,0,0,0-3.87-.32A25.11,25.11,0,0,1,98,98.54a12.59,12.59,0,0,1-6.11-3c-.31-.3-.78.17-.47.47Z"/><path d="M103.59,98a16.12,16.12,0,0,1,1.48.79c.24.14.47.29.7.44a3.27,3.27,0,0,0,.73.4c.17.06.35-.16.24-.3a2.42,2.42,0,0,0-.64-.55c-.24-.16-.49-.31-.74-.45a16.47,16.47,0,0,0-1.51-.77.26.26,0,0,0-.35.09.27.27,0,0,0,.09.35Z"/><path d="M106.8,98.68l.91,1.68a7.1,7.1,0,0,0,1,1.59.15.15,0,0,0,.26-.15,7.43,7.43,0,0,0-.81-1.71l-.94-1.65c-.15-.27-.56,0-.42.24Z"/><path d="M83.9,90.86a15,15,0,0,0,1.77,7.08c.13.23.55.08.45-.19A28.52,28.52,0,0,1,85,94.41a17,17,0,0,1-.49-3.55c0-.38-.61-.38-.6,0Z"/><path d="M78.66,86a8.06,8.06,0,0,0-4.53,5,7.66,7.66,0,0,0,1.38,7.05c.15.18.45-.05.32-.24a8.1,8.1,0,0,1-1.2-6.75,7.62,7.62,0,0,1,4.25-4.72c.26-.12,0-.5-.22-.39Z"/><path d="M115.73,118a5,5,0,0,0,4,.37.44.44,0,0,0,.19-.73c-.35-.35-.69-.71-1.06-1l-.19.7c.59-.13,1.16-.26,1.74-.42.31-.09.26-.62-.08-.59-.59,0-1.18.11-1.77.18a.44.44,0,0,0-.3.73c.34.36.7.71,1,1.06l.2-.73a4.2,4.2,0,0,1-3.45-.17.37.37,0,0,0-.37.64Z"/><path d="M120.65,115.88l1.11.66a1.54,1.54,0,0,0,.54.24.57.57,0,0,0,.51-.24,2.42,2.42,0,0,0,.22-1.07l.06-.66a2.06,2.06,0,0,0,0-.7l-.4.41.16,0-.19-.07a2,2,0,0,0,2.18.46.28.28,0,0,0,.19-.34.27.27,0,0,0-.33-.19,1.6,1.6,0,0,1-1.66-.3l.07.18a1,1,0,0,0,0-.17.33.33,0,0,0-.6-.08,3.14,3.14,0,0,0-.16,1c0,.34,0,.69-.07,1,0,0,0,.09,0,.09l.1,0s0,0,0,0a2,2,0,0,0-.44-.23l-.9-.47a.29.29,0,0,0-.3.5Z"/><path d="M124.5,112.71a7,7,0,0,0,.41,1.33,5.51,5.51,0,0,0,.31.65,1.17,1.17,0,0,0,.49.54.19.19,0,0,0,.29-.16,1.06,1.06,0,0,0-.09-.36l-.15-.31a6.19,6.19,0,0,1-.28-.58,6.31,6.31,0,0,1-.39-1.28.3.3,0,0,0-.37-.21.32.32,0,0,0-.22.38Z"/><path d="M123.63,113.62l.66.68.32.34s.1.11.16.16.15.1.22.15.27-.08.2-.19a2.11,2.11,0,0,0-.14-.22l-.16-.17-.33-.34-.66-.68a.19.19,0,0,0-.27.27Z"/><path d="M170.11,128.49h16.12a.37.37,0,0,0,0-.74H170.11a.37.37,0,0,0,0,.74Z"/><path d="M186.12,128.49l.11,0c.06,0,0,0,0,0l.06,0,.05,0h0l0,0,0,0,0,0s0-.06,0,0l.06.1a.47.47,0,0,1,.05.1c0-.07,0,0,0,.07l0,.11c0,.05,0-.05,0,0v.08a1.69,1.69,0,0,1,0,.32v0s0,0,0,.08l0,.15c0,.12-.05.23-.08.34a.37.37,0,1,0,.72.2,2.71,2.71,0,0,0,.08-1.57,1.33,1.33,0,0,0-1-.92.38.38,0,0,0-.46.26.39.39,0,0,0,.26.46Z"/><path d="M60.62,183.91a21.71,21.71,0,0,0-2,3,3.39,3.39,0,0,0-.5,3,1.92,1.92,0,0,0,2.48,1A4.23,4.23,0,0,0,62,190c.47-.44.93-.88,1.37-1.34a25.87,25.87,0,0,0,2.9-3.21c.14-.2-.13-.46-.33-.33a24.48,24.48,0,0,0-3,2.63c-.49.46-1,.93-1.45,1.4A2.67,2.67,0,0,1,60,190a.92.92,0,0,1-1-.71,2.62,2.62,0,0,1,.28-1.73A25.46,25.46,0,0,1,61,184.23c.15-.25-.23-.56-.41-.32Z"/><path d="M82.59,152.07c-1,5.82-2.14,11.63-3.46,17.38-.12.53.7.75.8.23,1.11-5.82,2.23-11.62,3.19-17.46.06-.35-.46-.5-.53-.15Z"/><path d="M78.85,170.4c2.88,5.64,6.62,10.88,9,16.78a.48.48,0,1,0,.89-.37c-2.93-5.68-6.15-11.18-9.47-16.64a.23.23,0,0,0-.39.23Z"/><path d="M89.06,187.58c4.29-.24,8.55-.7,12.83-1s8.56-.48,12.84-.69l3.54-.16c1.24-.06,2.49-.07,3.73-.2a.31.31,0,0,0,0-.62c-2.14-.08-4.3.1-6.43.19s-4.28.21-6.42.33c-4.28.25-8.56.54-12.84.74-2.42.12-4.84.36-7.25.63-.49,0-.51.81,0,.78Z"/><path d="M89.88,184.9l2.5-.12a12.13,12.13,0,0,0,2.48-.25c.29-.08.33-.58,0-.63a11.43,11.43,0,0,0-2.48,0l-2.5.16c-.52,0-.53.84,0,.81Z"/><path d="M140,167c-7,1-12.59,6.23-15.73,12.36-.45.88-.86,1.78-1.24,2.7a18.89,18.89,0,0,0-1,2.93c-.07.31.41.56.55.23.33-.78.58-1.6.9-2.39s.71-1.67,1.11-2.48a30.73,30.73,0,0,1,2.7-4.42,22,22,0,0,1,7.61-6.57,18.64,18.64,0,0,1,5.29-1.82c.36-.06.2-.58-.15-.54Z"/><path d="M126.1,179.8a27.68,27.68,0,0,0-1.65,3.48,18.92,18.92,0,0,0-.59,1.8,8.36,8.36,0,0,0-.23,1,1.1,1.1,0,0,0,.05.78.17.17,0,0,0,.24.06,1.17,1.17,0,0,0,.39-.65c.1-.27.18-.55.26-.82.18-.61.39-1.21.6-1.81a27.09,27.09,0,0,1,1.53-3.44c.21-.4-.38-.75-.6-.36Z"/><path d="M149.66,188.18a2,2,0,1,1-1.67-2,2.06,2.06,0,0,1,1.67,2,.38.38,0,0,0,.75,0,2.82,2.82,0,0,0-1.82-2.61,2.78,2.78,0,1,0,1.82,2.61A.38.38,0,0,0,149.66,188.18Z"/><path d="M137.38,89a30.55,30.55,0,0,1-1.83,10,23.9,23.9,0,0,1-5.35,8.63,28,28,0,0,1-4.67,3.79.38.38,0,0,0,.38.65c6.43-3.29,10.54-10.14,11.66-17.14a31.9,31.9,0,0,0,.31-5.94.25.25,0,0,0-.5,0Z"/><path d="M113.85,117.94q3.75-1.57,7.42-3.33a30.92,30.92,0,0,0,6.37-4c.12-.11,0-.31-.17-.22a68.52,68.52,0,0,1-6.66,3.42c-2.41,1.17-4.81,2.34-7.18,3.59-.27.15-.08.64.22.52Z"/><path d="M68.28,158.74a5.68,5.68,0,0,0-4.4,3.2,3.21,3.21,0,0,0-.22,3,7.83,7.83,0,0,0,2.08,2.56c.32.27.78-.19.46-.45a8,8,0,0,1-1.83-2.14,2.27,2.27,0,0,1-.36-1.32,3.8,3.8,0,0,1,.48-1.42,5,5,0,0,1,3.79-2.77c.41,0,.42-.69,0-.65Z"/><path d="M161,166.12c2.08-1.71,4.22-3.34,6.26-5.09.32-.28-.1-.85-.46-.6a74.38,74.38,0,0,0-6.25,5.24c-.31.27.14.7.45.45Z"/><path d="M162,168c1.34-1.19,2.76-2.28,4.17-3.39.72-.56,1.44-1.13,2.15-1.71l1-.83.52-.45c.07-.06.42-.37.38-.38a.46.46,0,1,0-.34-.44c0,.08-.4.34-.46.39l-.49.39-1,.8-2.22,1.74a50.16,50.16,0,0,0-4,3.52c-.24.23.12.58.36.36Z"/><path d="M92.16,130.51c-.42.8-.78,1.64-1.19,2.45a4.93,4.93,0,0,1-1.16,1.72,1.06,1.06,0,0,1-1.47-.3,2.8,2.8,0,0,1-.62-1.91,7.74,7.74,0,0,1,2-4.92c.87-1,2.41-2.11,3.72-1.23.59.4.41,1,.15,1.55-.43.91-1,1.75-1.47,2.64-.23.42.42.8.65.38.5-1,1.13-1.86,1.56-2.85a1.84,1.84,0,0,0,0-1.92c-1.12-1.49-3.22-.78-4.4.2A8.64,8.64,0,0,0,87,132a4.14,4.14,0,0,0,.44,2.47,2.36,2.36,0,0,0,1.84,1.22c.87,0,1.47-.78,1.87-1.45.64-1.05,1.09-2.21,1.66-3.3C93,130.46,92.38,130.08,92.16,130.51Z"/><path d="M88.42,128.33c-1.43.14-2.51,1.65-3.29,2.7A41.13,41.13,0,0,0,82,136.28c-.43.83-.85,1.67-1.25,2.52-.2.44.45.82.65.38a54.05,54.05,0,0,1,3.2-6,20.26,20.26,0,0,1,2-2.83c.45-.5,1.1-1.25,1.83-1.32.47,0,.48-.79,0-.75Z"/><path d="M87.24,130.35a18.14,18.14,0,0,0-2.76,4c-.85,1.53-1.62,3.11-2.44,4.66-.22.42.42.8.65.38.79-1.51,1.54-3,2.37-4.54a17.52,17.52,0,0,1,2.71-3.93.38.38,0,0,0-.53-.53Z"/><path d="M80.85,139.42a1.31,1.31,0,0,0,1.69.21.37.37,0,0,0,.17-.22.37.37,0,0,0,0-.29.38.38,0,0,0-.52-.13.91.91,0,0,1-.17.09l.09,0-.22.06.1,0h-.17a1.05,1.05,0,0,1-.24-.06l.09,0-.18-.1,0,0,0,0-.07-.07a.37.37,0,0,0-.53,0,.37.37,0,0,0,0,.52Z"/><path d="M78.8,189.92c5.66,0,11.32-.25,17-.57,5.85-.33,11.69-.63,17.53-1q9.54-.59,19.06-1.33c5.58-.43,11.15-.87,16.72-1.38,2.43-.22,4.87-.46,7.3-.74,2-.23,4.09-.45,6.1-.88l1.14-.27c.31-.07.18-.56-.13-.49a51.13,51.13,0,0,1-5.64.84c-2.38.29-4.76.51-7.14.72-5.4.48-10.82.87-16.22,1.28-6.32.48-12.64.93-19,1.31-5.88.36-11.77.66-17.65,1-5.67.36-11.35.72-17,.85l-2,0a.3.3,0,0,0,0,.59Z"/><path d="M149.28,164.6a40.32,40.32,0,0,1,4.92.2,20.19,20.19,0,0,1,4.52.79,3.8,3.8,0,0,1,1.63,1,4.39,4.39,0,0,1,.89,1.93c.15.62.26,1.27.35,1.91.06.39.1.77.14,1.16l.06.43a2.13,2.13,0,0,1,.08.66c-.27.93,1.38.59.87-.12-.21-.28-.14-1-.17-1.29s-.06-.74-.11-1.11A11.28,11.28,0,0,0,162,168a4.49,4.49,0,0,0-2.62-3,16.05,16.05,0,0,0-4.65-.91,31.23,31.23,0,0,0-5.47,0c-.36,0-.37.58,0,.58Z"/><path class="cls-13" d="M101.63,94.14c-1-.46-1.57,1-.65,1.55a31.66,31.66,0,0,1,2.79,2,16.34,16.34,0,0,0,2.42,1.8.25.25,0,0,0,.34-.26C106.28,96.77,103.62,95,101.63,94.14Z"/><path class="cls-13" d="M107.57,100.08c-.4-.51-1.22.11-.8.59a3.09,3.09,0,0,1,.44,1,.34.34,0,0,0,.63,0A1.45,1.45,0,0,0,107.57,100.08Z"/><path d="M159.93,153.72v.3h-1.62V154l1.1-1.71h-1V152h1.53V152l-1.08,1.7Z"/><path d="M162.25,153.12H160.5a.7.7,0,0,0,.73.63.73.73,0,0,0,.64-.36h.34a1.14,1.14,0,1,1,0-.39A.49.49,0,0,1,162.25,153.12Zm-1.74-.3h1.43a.73.73,0,0,0-1.43,0Z"/><path d="M163.87,152v.31h-.21a.56.56,0,0,0-.59.64V154h-.32V152H163l.05.32a.75.75,0,0,1,.66-.33Z"/><path d="M164,153a1.09,1.09,0,1,1,1.09,1.07A1.05,1.05,0,0,1,164,153Zm1.85,0a.76.76,0,1,0-.76.76A.74.74,0,0,0,165.84,153Z"/><path d="M168.64,151.23V154h-.25l0-.29a1,1,0,0,1-.79.33,1.07,1.07,0,0,1,0-2.14,1,1,0,0,1,.76.3v-1Zm-.3,1.76a.76.76,0,1,0-1.51,0,.73.73,0,0,0,.75.76A.74.74,0,0,0,168.34,153Z"/><path d="M171.21,153.12h-1.75a.69.69,0,0,0,.72.63.7.7,0,0,0,.64-.36h.35a1.14,1.14,0,1,1,.05-.39A.49.49,0,0,1,171.21,153.12Zm-1.74-.3h1.43a.7.7,0,0,0-.72-.59A.69.69,0,0,0,169.47,152.82Z"/><path d="M171.7,151.23H172V154h-.33Z"/><path d="M172.67,151.24H173v.37h-.35Zm0,.72H173V154h-.32Z"/><path d="M175.44,152l-.87,2.06h-.29l-.89-2.06h.33l.7,1.64.69-1.64Z"/><path d="M177.69,153.12h-1.76a.71.71,0,0,0,.73.63.73.73,0,0,0,.64-.36h.34a1,1,0,0,1-1,.67,1.07,1.07,0,0,1,0-2.14,1,1,0,0,1,1,1.08Zm-1.75-.3h1.43a.73.73,0,0,0-1.43,0Z"/><path d="M179.3,152v.31h-.21a.56.56,0,0,0-.59.64V154h-.32V152h.23l.05.32a.76.76,0,0,1,.66-.33Z"/><path d="M181.5,152l-1,2.14c-.22.49-.42.65-.81.65h-.19v-.29h.16c.28,0,.38-.08.54-.43l.08-.15-.92-1.92h.35l.73,1.56.69-1.56Z"/><text class="cls-29" transform="translate(165.1 156.37)">partner</text><g id="pin"><path d="M169.47,135.19a5.56,5.56,0,0,0-5.57,5.56c0,4.51,5.57,8.75,5.57,8.75s5.56-4.24,5.56-8.75A5.56,5.56,0,0,0,169.47,135.19Zm0,10.52a4.68,4.68,0,1,1,4.67-4.67A4.68,4.68,0,0,1,169.47,145.71Z"/></g><g id="f76a7ac6-c7a9-4538-b0cf-82220945bf07"><path d="M172.22,138.53l-2.44,6.38a.26.26,0,0,1-.23.16h0a.27.27,0,0,1-.22-.19l-.7-3-3.05-.7a.25.25,0,0,1-.18-.3.22.22,0,0,1,.15-.16l6.38-2.46a.24.24,0,0,1,.31.14.19.19,0,0,1,0,.18Z"/></g><path class="cls-30" d="M83.65,108.79s5.77,15.53,20.6,14.12"/><rect x="31.06" y="-37.51" width="18.55" height="91.12" rx="9.27"/><rect class="cls-21" x="49.61" y="-37.51" width="18.55" height="91.12" rx="9.27"/><rect x="68.16" y="-37.51" width="18.55" height="91.12" rx="9.27"/><rect class="cls-21" x="86.71" y="-37.51" width="18.55" height="91.12" rx="9.27"/><rect x="105.26" y="-37.51" width="18.55" height="91.12" rx="9.27"/><rect class="cls-21" x="123.81" y="-37.51" width="18.55" height="91.12" rx="9.27"/><rect x="142.35" y="-37.51" width="18.55" height="91.12" rx="9.27"/><rect class="cls-21" x="160.9" y="-37.51" width="18.55" height="91.12" rx="9.27"/></g></g></g></svg>