<?xml version="1.0" encoding="utf-8"?>
<!-- Generator: Adobe Illustrator 26.0.0, SVG Export Plug-In . SVG Version: 6.00 Build 0)  -->
<svg version="1.1" id="Layer_1" xmlns="http://www.w3.org/2000/svg" xmlns:xlink="http://www.w3.org/1999/xlink" x="0px" y="0px"
	 viewBox="0 0 24 24" style="enable-background:new 0 0 24 24;" xml:space="preserve">
<style type="text/css">
	.st0{fill:none;}
	.st1{fill:#CCFF00;}
</style>
<g id="Low_stock_products" transform="translate(-802 -12049)">
	<rect id="Rectangle_17660" x="802" y="12049" class="st0" width="24" height="24"/>
	<g id="Group_9491" transform="translate(802 12049)">
		<path id="Path_8733" class="st1" d="M11,5.6c0,1.1,0,2.3,0,3.4c0,1.1-0.8,2-1.9,2.1C9,11,9,11,9,11c-2.3,0-4.6,0-6.9,0
			c-1.1,0-2-0.8-2.1-2C0,9.1,0,9,0,9c0-2.3,0-4.6,0-6.9C0,1,0.8,0,1.9,0C2,0,2,0,2.1,0C4.4,0,6.7,0,9,0C10.1,0,11,0.8,11,2
			c0,0,0,0.1,0,0.1C11,3.2,11,4.4,11,5.6"/>
		<path id="Path_8734" class="st1" d="M11,18.5c0,1.2,0,2.3,0,3.5c0,1.1-0.8,2-1.9,2.1C9,24,9,24,9,24c-2.3,0-4.6,0-6.9,0
			c-1.1,0-2-0.9-2.1-2C0,22,0,22,0,22c0-2.3,0-4.6,0-6.9C0,14,0.8,13,1.9,13c0,0,0.1,0,0.1,0c2.3,0,4.6,0,6.9,0c1.1,0,2,0.8,2.1,1.9
			c0,0.1,0,0.1,0,0.2C11,16.2,11,17.4,11,18.5"/>
		<path id="Path_8735" class="st1" d="M18.5,6.1c-1.7,0-3.4,0-5.1,0C13.1,6.1,13,6,13,5.7c0-0.5,0-0.9,0-1.4C13,4.1,13,4,13.3,4
			c3.5,0,6.9,0,10.4,0C23.9,4,24,4.1,24,4.3c0,0.5,0,1,0,1.4c0,0.3-0.1,0.3-0.3,0.3C21.9,6.1,20.2,6.1,18.5,6.1"/>
		<path id="Path_8736" class="st1" d="M18.5,13h5.1c0.4,0,0.4,0,0.4,0.4c0,0.4,0,0.9,0,1.3c0,0.4,0,0.4-0.4,0.4H13.4
			c-0.4,0-0.4,0-0.4-0.4c0-0.4,0-0.8,0-1.2c0-0.4,0-0.4,0.4-0.4L18.5,13"/>
		<path id="Path_8737" class="st1" d="M16.5,10.1c-1.1,0-2.1,0-3.2,0c-0.3,0-0.4-0.1-0.4-0.3c0-0.5,0-1,0-1.4C13,8.1,13,8,13.3,8
			c2.2,0,4.3,0,6.5,0C19.9,8,20,8.1,20,8.3c0,0.5,0,1,0,1.5c0,0.2-0.1,0.3-0.3,0.3C18.6,10,17.6,10.1,16.5,10.1"/>
		<path id="Path_8738" class="st1" d="M16.5,21c1.1,0,2.1,0,3.2,0c0.3,0,0.4,0.1,0.4,0.4c0,0.5,0,1,0,1.4c0,0.2-0.1,0.3-0.3,0.3
			c-2.2,0-4.3,0-6.5,0c-0.2,0-0.3-0.1-0.3-0.3c0-0.5,0-1,0-1.5c0-0.3,0.1-0.3,0.3-0.3C14.4,21,15.4,21,16.5,21"/>
		<path id="Path_8739" class="st1" d="M15.5,2.1c-0.7,0-1.5,0-2.2,0C13.1,2.1,13,2,13,1.8c0-0.5,0-1,0-1.5C13,0.1,13,0,13.3,0
			c1.5,0,3,0,4.5,0C17.9,0,18,0.1,18,0.3c0,0.5,0,1,0,1.5c0,0.2-0.1,0.3-0.3,0.3C17,2.1,16.2,2.1,15.5,2.1"/>
		<path id="Path_8740" class="st1" d="M15.5,17c0.7,0,1.5,0,2.2,0c0.2,0,0.4,0.1,0.3,0.3c0,0.5,0,1,0,1.4c0,0.2-0.1,0.3-0.3,0.3
			c-1.5,0-3,0-4.5,0c-0.2,0-0.3-0.1-0.3-0.3c0-0.5,0-1,0-1.5c0-0.2,0.1-0.3,0.3-0.3C14,17,14.8,17,15.5,17"/>
	</g>
</g>
</svg>
