<?xml version="1.0" encoding="utf-8"?>
<!-- Generator: Adobe Illustrator 27.7.0, SVG Export Plug-In . SVG Version: 6.00 Build 0)  -->
<svg version="1.1" id="orders_light_active_icon" xmlns="http://www.w3.org/2000/svg" xmlns:xlink="http://www.w3.org/1999/xlink"
	 x="0px" y="0px" viewBox="0 0 17.6 23.6" style="enable-background:new 0 0 17.6 23.6;" xml:space="preserve">
<style type="text/css">
	.st0{fill:#121418;}
	.st1{fill:#CCFF00;}
</style>
<g id="Group_8487">
	<path id="Path_7194" class="st0" d="M4.8,15C4.4,15,4,15.4,4,15.8c0,0.4,0.4,0.8,0.8,0.8s0.8-0.4,0.8-0.8C5.6,15.4,5.2,15,4.8,15
		C4.8,15,4.8,15,4.8,15 M8.4,8.2C8.2,8.1,8,8,7.8,8C7.6,8,7.4,8.1,7.2,8.2L5.5,9.9L4.5,9.1c-0.3-0.3-0.8-0.3-1.1,0
		c-0.3,0.3-0.3,0.8,0,1.1l1,1c0.3,0.3,0.6,0.4,1,0.4c0.4,0,0.7-0.1,1-0.4l1.9-1.8C8.5,9.2,8.6,9,8.6,8.8C8.6,8.6,8.5,8.4,8.4,8.2
		 M12.8,15h-4C8.4,15,8,15.4,8,15.8c0,0.4,0.4,0.8,0.8,0.8h4c0.4,0,0.8-0.4,0.8-0.8C13.6,15.4,13.2,15,12.8,15 M12.8,10h-2
		c-0.4,0-0.8,0.4-0.8,0.8s0.4,0.8,0.8,0.8h2c0.4,0,0.8-0.4,0.8-0.8S13.2,10,12.8,10 M10.8,11.6h2c0.4,0,0.8-0.4,0.8-0.8
		S13.2,10,12.8,10h-2c-0.4,0-0.8,0.4-0.8,0.8S10.4,11.6,10.8,11.6 M12.8,15h-4C8.4,15,8,15.4,8,15.8c0,0.4,0.4,0.8,0.8,0.8h4
		c0.4,0,0.8-0.4,0.8-0.8C13.6,15.4,13.2,15,12.8,15 M8.6,8.8c0-0.2-0.1-0.4-0.2-0.6C8.2,8.1,8,8,7.8,8C7.6,8,7.4,8.1,7.2,8.2
		L5.5,9.9L4.5,9.1c-0.3-0.3-0.8-0.3-1.1,0c-0.3,0.3-0.3,0.8,0,1.1l1,1c0.3,0.3,0.6,0.4,1,0.4c0.4,0,0.7-0.1,1-0.4l1.9-1.8
		C8.5,9.2,8.6,9,8.6,8.8 M4.8,15C4.4,15,4,15.4,4,15.8c0,0.4,0.4,0.8,0.8,0.8s0.8-0.4,0.8-0.8C5.6,15.4,5.2,15,4.8,15
		C4.8,15,4.8,15,4.8,15 M12.8,2h-0.3l-0.1-0.1C12,0.7,11,0,9.8,0h-2C6.6,0,5.6,0.7,5.2,1.9l0,0.1H4.8C2.1,2,0,4.1,0,6.8c0,0,0,0,0,0
		v12c0,2.6,2.2,4.8,4.8,4.8h8c2.6,0,4.8-2.2,4.8-4.8v-12C17.6,4.1,15.5,2,12.8,2C12.8,2,12.8,2,12.8,2 M16,18.8
		c0,1.8-1.4,3.2-3.2,3.2h-8c-1.8,0-3.2-1.4-3.2-3.2v-12C1.6,5,3,3.6,4.8,3.6l0,0h1c0.4,0,0.8-0.4,0.8-0.8l0,0c0-0.7,0.5-1.2,1.2-1.2
		h2c0.7,0,1.2,0.5,1.2,1.2c0,0.4,0.4,0.8,0.8,0.8l0,0h1C14.6,3.6,16,5,16,6.8V18.8z M12.8,10h-2c-0.4,0-0.8,0.4-0.8,0.8
		s0.4,0.8,0.8,0.8h2c0.4,0,0.8-0.4,0.8-0.8S13.2,10,12.8,10 M12.8,15h-4C8.4,15,8,15.4,8,15.8c0,0.4,0.4,0.8,0.8,0.8h4
		c0.4,0,0.8-0.4,0.8-0.8C13.6,15.4,13.2,15,12.8,15 M8.6,8.8c0-0.2-0.1-0.4-0.2-0.6C8.2,8.1,8,8,7.8,8C7.6,8,7.4,8.1,7.2,8.2
		L5.5,9.9L4.5,9.1c-0.3-0.3-0.8-0.3-1.1,0c-0.3,0.3-0.3,0.8,0,1.1l1,1c0.3,0.3,0.6,0.4,1,0.4c0.4,0,0.7-0.1,1-0.4l1.9-1.8
		C8.5,9.2,8.6,9,8.6,8.8 M4.8,15C4.4,15,4,15.4,4,15.8c0,0.4,0.4,0.8,0.8,0.8s0.8-0.4,0.8-0.8C5.6,15.4,5.2,15,4.8,15
		C4.8,15,4.8,15,4.8,15 M4.8,15C4.4,15,4,15.4,4,15.8c0,0.4,0.4,0.8,0.8,0.8s0.8-0.4,0.8-0.8C5.6,15.4,5.2,15,4.8,15
		C4.8,15,4.8,15,4.8,15 M8.4,8.2C8.2,8.1,8,8,7.8,8C7.6,8,7.4,8.1,7.2,8.2L5.5,9.9L4.5,9.1c-0.3-0.3-0.8-0.3-1.1,0
		c-0.3,0.3-0.3,0.8,0,1.1l1,1c0.3,0.3,0.6,0.4,1,0.4c0.4,0,0.7-0.1,1-0.4l1.9-1.8C8.5,9.2,8.6,9,8.6,8.8C8.6,8.6,8.5,8.4,8.4,8.2
		 M12.8,15h-4C8.4,15,8,15.4,8,15.8c0,0.4,0.4,0.8,0.8,0.8h4c0.4,0,0.8-0.4,0.8-0.8C13.6,15.4,13.2,15,12.8,15 M12.8,10h-2
		c-0.4,0-0.8,0.4-0.8,0.8s0.4,0.8,0.8,0.8h2c0.4,0,0.8-0.4,0.8-0.8S13.2,10,12.8,10 M12.8,15h-4C8.4,15,8,15.4,8,15.8
		c0,0.4,0.4,0.8,0.8,0.8h4c0.4,0,0.8-0.4,0.8-0.8C13.6,15.4,13.2,15,12.8,15 M4.8,15C4.4,15,4,15.4,4,15.8c0,0.4,0.4,0.8,0.8,0.8
		s0.8-0.4,0.8-0.8C5.6,15.4,5.2,15,4.8,15C4.8,15,4.8,15,4.8,15 M12.8,10h-2c-0.4,0-0.8,0.4-0.8,0.8s0.4,0.8,0.8,0.8h2
		c0.4,0,0.8-0.4,0.8-0.8S13.2,10,12.8,10 M8.4,8.2C8.2,8.1,8,8,7.8,8C7.6,8,7.4,8.1,7.2,8.2L5.5,9.9L4.5,9.1c-0.3-0.3-0.8-0.3-1.1,0
		c-0.3,0.3-0.3,0.8,0,1.1l1,1c0.3,0.3,0.6,0.4,1,0.4c0.4,0,0.7-0.1,1-0.4l1.9-1.8C8.5,9.2,8.6,9,8.6,8.8C8.6,8.6,8.5,8.4,8.4,8.2"/>
	<path id="Path_7195" class="st1" d="M12.8,3.6h-1c-0.4,0-0.8-0.4-0.8-0.8l0,0c0-0.7-0.5-1.2-1.2-1.2h-2c-0.7,0-1.2,0.5-1.2,1.2
		c0,0,0,0,0,0c0,0.4-0.4,0.8-0.8,0.8l0,0h-1C3,3.6,1.6,5,1.6,6.8v12C1.6,20.6,3,22,4.8,22h8c1.8,0,3.2-1.4,3.2-3.2v-12
		C16,5,14.6,3.6,12.8,3.6 M4.8,16.6c-0.4,0-0.8-0.4-0.8-0.8C4,15.4,4.4,15,4.8,15c0.4,0,0.8,0.4,0.8,0.8C5.6,16.2,5.2,16.6,4.8,16.6
		C4.8,16.6,4.8,16.6,4.8,16.6 M5.5,11.6c-0.4,0-0.8-0.2-1-0.4l-1-1c-0.3-0.3-0.3-0.8,0-1.1c0.3-0.3,0.8-0.3,1.1,0l0.9,0.9l1.8-1.7
		C7.4,8.1,7.6,8,7.8,8C8,8,8.2,8.1,8.4,8.2c0.1,0.2,0.2,0.4,0.2,0.6c0,0.2-0.1,0.4-0.2,0.6l-1.9,1.8C6.2,11.5,5.9,11.6,5.5,11.6
		 M12.8,16.6h-4c-0.4,0-0.8-0.4-0.8-0.8C8,15.4,8.4,15,8.8,15l0,0h4c0.4,0,0.8,0.4,0.8,0.8C13.6,16.2,13.2,16.6,12.8,16.6
		 M12.8,11.6h-2c-0.4,0-0.8-0.4-0.8-0.8s0.4-0.8,0.8-0.8h2c0.4,0,0.8,0.4,0.8,0.8S13.2,11.6,12.8,11.6"/>
	<path id="Path_7196" class="st0" d="M5.6,15.8c0,0.4-0.4,0.8-0.8,0.8S4,16.2,4,15.8C4,15.4,4.4,15,4.8,15S5.6,15.4,5.6,15.8
		L5.6,15.8"/>
	<path id="Path_7197" class="st0" d="M8.4,9.4l-1.9,1.8c-0.3,0.3-0.6,0.4-1,0.4c-0.4,0-0.8-0.2-1-0.4l-1-1c-0.3-0.3-0.3-0.8,0-1.1
		c0.3-0.3,0.8-0.3,1.1,0l0.9,0.9l1.8-1.7C7.4,8.1,7.6,8,7.8,8C8,8,8.2,8.1,8.4,8.2c0.1,0.2,0.2,0.4,0.2,0.6C8.6,9,8.5,9.2,8.4,9.4"
		/>
	<path id="Path_7198" class="st0" d="M13.6,15.8c0,0.4-0.4,0.8-0.8,0.8l0,0h-4c-0.4,0-0.8-0.4-0.8-0.8C8,15.4,8.4,15,8.8,15h4
		C13.2,15,13.6,15.4,13.6,15.8L13.6,15.8"/>
	<path id="Path_7199" class="st0" d="M13.6,10.8c0,0.4-0.4,0.8-0.8,0.8l0,0h-2c-0.4,0-0.8-0.4-0.8-0.8s0.4-0.8,0.8-0.8h2
		C13.2,10,13.6,10.4,13.6,10.8L13.6,10.8"/>
	<path id="Path_7200" class="st0" d="M12.8,2h-0.3l-0.1-0.1C12,0.7,11,0,9.8,0h-2C6.6,0,5.6,0.7,5.2,1.9l0,0.1H4.8
		C2.1,2,0,4.1,0,6.8c0,0,0,0,0,0v12c0,2.6,2.2,4.8,4.8,4.8h8c2.6,0,4.8-2.2,4.8-4.8v-12C17.6,4.1,15.5,2,12.8,2
		C12.8,2,12.8,2,12.8,2 M16,18.8c0,1.8-1.4,3.2-3.2,3.2h-8c-1.8,0-3.2-1.4-3.2-3.2v-12C1.6,5,3,3.6,4.8,3.6l0,0h1
		c0.4,0,0.8-0.4,0.8-0.8l0,0c0-0.7,0.5-1.2,1.2-1.2h2c0.7,0,1.2,0.5,1.2,1.2c0,0.4,0.4,0.8,0.8,0.8l0,0h1C14.6,3.6,16,5,16,6.8V18.8
		z"/>
</g>
</svg>
