<?xml version="1.0" encoding="utf-8"?>
<!-- Generator: Adobe Illustrator 27.8.1, SVG Export Plug-In . SVG Version: 6.00 Build 0)  -->
<svg version="1.1" id="Layer_1" xmlns="http://www.w3.org/2000/svg" xmlns:xlink="http://www.w3.org/1999/xlink" x="0px" y="0px"
	 viewBox="0 0 211 211" style="enable-background:new 0 0 211 211;" xml:space="preserve">
<style type="text/css">
	.st0{opacity:0.18;enable-background:new    ;}
	.st1{opacity:0.18;}
	.st2{fill:#CCFF00;}
</style>
<rect class="st0" width="211" height="211"/>
<g class="st1">
	<g>
		<g id="pin">
			<path class="st2" d="M105.5,35.4c-30.1,0-54.6,24.4-54.6,54.6c0,44.2,54.6,85.7,54.6,85.7s54.6-41.6,54.6-85.7
				C160.1,59.8,135.6,35.4,105.5,35.4z M105.5,138.5c-25.3,0-45.8-20.5-45.8-45.8s20.5-45.8,45.8-45.8s45.8,20.5,45.8,45.8
				S130.8,138.5,105.5,138.5z"/>
		</g>
		<g id="f76a7ac6-c7a9-4538-b0cf-82220945bf07">
			<path class="st2" d="M132.5,68.1l-24,62.5c-0.4,0.9-1.2,1.5-2.3,1.5h-0.2c-1.1-0.1-1.9-0.8-2.2-1.9l-6.9-29.9l-29.9-6.8
				c-1.3-0.3-2.1-1.6-1.8-2.9c0.2-0.8,0.7-1.4,1.5-1.7L129.4,65c1.2-0.5,2.6,0.1,3.1,1.3C132.7,66.9,132.7,67.6,132.5,68.1
				L132.5,68.1L132.5,68.1z"/>
		</g>
	</g>
</g>
</svg>
