<?xml version="1.0" encoding="utf-8"?>
<!-- Generator: Adobe Illustrator 27.7.0, SVG Export Plug-In . SVG Version: 6.00 Build 0)  -->
<svg version="1.1" id="Layer_1" xmlns="http://www.w3.org/2000/svg" xmlns:xlink="http://www.w3.org/1999/xlink" x="0px" y="0px"
	 viewBox="0 0 20.2 24" style="enable-background:new 0 0 20.2 24;" xml:space="preserve">
<style type="text/css">
	.st0{fill:#121418;}
	.st1{fill:#CCFF00;}
</style>
<g id="profile_light_active_icon" transform="translate(-417.873 -133)">
	<g id="Group_8480">
		<path id="Path_7155" class="st0" d="M437.5,150.2c-0.8-2-2.2-3.7-4-4.9c-0.5-0.3-1.1-0.6-1.7-0.9c-0.2,0-0.3-0.2-0.3-0.3
			c0-0.2,0.1-0.3,0.2-0.4c0.2-0.1,0.3-0.3,0.5-0.4c1.3-1.2,1.9-2.9,1.8-4.6c0-1.1-0.4-2.2-1.1-3.1c-1.1-1.6-2.9-2.6-4.9-2.6
			c-0.9,0-1.8,0.2-2.6,0.6c-3,1.4-4.3,5-2.9,8c0.4,0.8,0.9,1.5,1.6,2.1c0.2,0.2,0.3,0.3,0.3,0.5s-0.2,0.3-0.5,0.4
			c-3.6,1.5-6,5-6.1,8.9c-0.1,0.8,0.2,1.7,0.7,2.4c0.5,0.6,1.2,1.1,2,1.2h14.8l0,0l0,0c1.6-0.3,2.7-1.7,2.7-3.3
			C438.1,152.5,437.9,151.3,437.5,150.2z M423.3,139c0-2.6,2.1-4.7,4.7-4.7s4.7,2.1,4.7,4.7c0,2.6-2.1,4.7-4.7,4.7
			C425.4,143.7,423.3,141.7,423.3,139C423.3,139.1,423.3,139,423.3,139L423.3,139z M436.3,155.1c-0.4,0.4-0.9,0.6-1.4,0.6h-13.7
			c-0.7,0-1.4-0.4-1.8-1.1c-0.1-0.3-0.2-0.6-0.2-0.9c0-2.2,0.9-4.2,2.3-5.8c1.2-1.4,2.9-2.3,4.7-2.7c0.6-0.1,1.2-0.2,1.8-0.2
			c2.2,0,4.3,0.8,5.8,2.3c1.4,1.2,2.3,2.9,2.7,4.7c0.1,0.5,0.2,1.1,0.2,1.6C436.8,154.2,436.6,154.7,436.3,155.1L436.3,155.1z"/>
	</g>
	<path id="Path_7156" class="st1" d="M432.7,139c0,2.6-2.1,4.7-4.7,4.7c-2.6,0-4.7-2.1-4.7-4.7c0-2.6,2.1-4.7,4.7-4.7c0,0,0,0,0,0
		C430.6,134.3,432.7,136.4,432.7,139C432.7,139,432.7,139,432.7,139z"/>
	<path id="Path_7157" class="st1" d="M436.8,153.7c0.1,1-0.7,1.9-1.7,2c-0.1,0-0.1,0-0.2,0h-13.7c-0.7,0-1.4-0.4-1.8-1.1
		c-0.1-0.3-0.2-0.6-0.2-0.9c0-2.2,0.9-4.2,2.3-5.8c1.2-1.4,2.9-2.3,4.7-2.7c0.6-0.1,1.2-0.2,1.8-0.2c2.2,0,4.3,0.8,5.8,2.3
		c1.4,1.2,2.3,2.9,2.7,4.7C436.7,152.6,436.8,153.2,436.8,153.7z"/>
</g>
</svg>
