<?xml version="1.0" encoding="utf-8"?>
<!-- Generator: Adobe Illustrator 27.7.0, SVG Export Plug-In . SVG Version: 6.00 Build 0)  -->
<svg version="1.1" id="Layer_1" xmlns="http://www.w3.org/2000/svg" xmlns:xlink="http://www.w3.org/1999/xlink" x="0px" y="0px"
	 viewBox="0 0 24 24" style="enable-background:new 0 0 24 24;" xml:space="preserve">
<style type="text/css">
	.st0{fill:none;}
	.st1{fill:#FFFFFF;}
	.st2{fill:#CCFF00;}
</style>
<g id="profile_dark_active_icon" transform="translate(-2205 -9088)">
	<rect id="Rectangle_17567" x="2205" y="9088" class="st0" width="24" height="24"/>
	<g id="Group_9427" transform="translate(1906.15 8842.18)">
		<g id="Group_9426">
			<path id="Path_8570" class="st1" d="M316.5,250.5c-0.3-1.8-1.4-3.4-3.1-4.1c-0.6-0.3-1.2-0.5-1.9-0.6l-1.4,0l-0.1,0
				c-2.7,0.3-4.8,2.6-4.9,5.3c-0.2,1.8,0.4,3.5,1.6,4.8c0.9,1.1,2.2,1.8,3.7,1.9c0.2,0,0.3,0,0.5,0c1.8,0,3.5-0.9,4.5-2.4
				C316.4,254.1,316.9,252.3,316.5,250.5L316.5,250.5z M313.6,255.2c-0.7,0.8-1.7,1.2-2.8,1.2c-1.2,0-2.3-0.6-3.1-1.5
				c-0.7-0.9-1.1-2.1-1.1-3.3c0-1.3,0.6-2.6,1.7-3.4c0.7-0.5,1.6-0.8,2.5-0.8c1.9,0,3.5,1.2,4,3.1
				C315.4,252.1,314.9,253.9,313.6,255.2L313.6,255.2z"/>
			<path id="Path_8571" class="st1" d="M321.8,266.6c-0.4-2.5-2-4.7-4.3-5.8c-1.7-0.8-3.5-1.3-5.4-1.3c-0.4,0-0.8,0-1.2,0
				c-0.6,0-1.2,0-1.9,0.1c-1.4,0.1-2.7,0.4-4,0.9c-1.9,0.7-3.5,2.2-4.4,4c-0.6,1.4-0.9,2.9-1,4.4c0,0.3,0.1,0.5,0.2,0.7
				c0.2,0.2,0.5,0.3,0.7,0.3h0c1.6,0,3.2,0,4.8,0h15.8c0.4,0.1,0.8-0.2,0.9-0.7c0-0.1,0-0.2,0-0.2C322,268.1,322,267.4,321.8,266.6
				L321.8,266.6z M320.4,268.2c-0.1,0-0.1,0.1-0.3,0.1h-18.4c-0.1,0-0.2,0-0.3-0.1c-0.1-0.1-0.1-0.2,0-0.4c0.1-1.1,0.5-2.2,1-3.1
				c0.7-1.2,1.8-2.1,3.1-2.6c1.2-0.5,2.4-0.8,3.7-0.9c0.6,0,1.2-0.1,1.8-0.1c1,0,2,0.1,2.9,0.2c1.5,0.2,3,0.8,4.2,1.8
				c1.1,0.9,1.8,2.2,2.1,3.5c0.1,0.4,0.2,0.9,0.2,1.3C320.4,268,320.4,268.1,320.4,268.2z"/>
		</g>
		<path id="Path_8572" class="st2" d="M313.6,255.2c-0.7,0.8-1.7,1.2-2.8,1.2c-1.2,0-2.3-0.6-3.1-1.5c-0.7-0.9-1.1-2.1-1.1-3.3
			c0-1.3,0.6-2.6,1.7-3.4c0.7-0.5,1.6-0.8,2.5-0.8c1.9,0,3.5,1.2,4,3.1C315.4,252.1,314.9,253.9,313.6,255.2L313.6,255.2z"/>
		<path id="Path_8573" class="st2" d="M320.4,268.2c-0.1,0-0.1,0.1-0.3,0.1h-18.4c-0.1,0-0.2,0-0.3-0.1c-0.1-0.1-0.1-0.2,0-0.4
			c0.1-1.1,0.5-2.2,1-3.1c0.7-1.2,1.8-2.1,3.1-2.6c1.2-0.5,2.4-0.8,3.7-0.9c0.6,0,1.2-0.1,1.8-0.1c1,0,2,0.1,2.9,0.2
			c1.5,0.2,3,0.8,4.2,1.8c1.1,0.9,1.8,2.2,2.1,3.5c0.1,0.4,0.2,0.9,0.2,1.3C320.4,268,320.4,268.1,320.4,268.2z"/>
	</g>
</g>
</svg>
