<svg xmlns="http://www.w3.org/2000/svg" xmlns:xlink="http://www.w3.org/1999/xlink" viewBox="0 0 211 200"><defs><style>.cls-1,.cls-30,.cls-4{fill:none;}.cls-2{isolation:isolate;}.cls-3{clip-path:url(#clip-path);}.cls-4{stroke:#a0c406;stroke-width:11.23px;}.cls-30,.cls-4,.cls-6{stroke-miterlimit:10;}.cls-5{opacity:0.09;}.cls-30,.cls-6{stroke:#000;}.cls-6{stroke-width:1.24px;}.cls-7{fill:#ffd9bd;}.cls-8{fill:#cf0;}.cls-9{fill:#ffa294;}.cls-10{fill:#9c5043;}.cls-11{fill:#7c4c50;}.cls-12{fill:#75484d;opacity:0.24;}.cls-12,.cls-20{mix-blend-mode:multiply;}.cls-13{fill:#fff;}.cls-14{fill:#4a2931;}.cls-15{fill:#41272a;}.cls-16{fill:#929497;}.cls-17{fill:#fde41b;}.cls-18{fill:#ffad12;}.cls-19{fill:#58595b;}.cls-20{fill:#414042;opacity:0.5;}.cls-21{fill:#a0c406;}.cls-22,.cls-23{fill:#ffcfe9;}.cls-22{opacity:0.79;}.cls-24{fill:#bbbdbf;}.cls-25{fill:#f0f1f1;}.cls-26{fill:#e5e6e7;}.cls-27{fill:#d0d2d3;}.cls-28{fill:#e8fb80;}.cls-29{font-size:1.58px;font-family:Mont-Regular, Mont;}.cls-30{stroke-linecap:round;stroke-width:0.65px;}</style><clipPath id="clip-path"><rect class="cls-1" x="3.37" width="204.26" height="200" rx="50.27"/></clipPath></defs><g class="cls-2"><g id="Layer_1" data-name="Layer 1"><g class="cls-3"><rect x="3.37" width="204.26" height="200" rx="49.54"/><line class="cls-4" x1="49.99" y1="42.56" x2="49.99" y2="206.79"/><line class="cls-4" x1="161.01" y1="42.56" x2="161.01" y2="206.79"/><g class="cls-5"><rect class="cls-6" x="33.68" y="-28.58" width="17.96" height="86.37" rx="8.88"/><rect class="cls-6" x="51.63" y="-28.58" width="17.96" height="86.37" rx="8.88"/><rect class="cls-6" x="69.59" y="-28.58" width="17.96" height="86.37" rx="8.88"/><rect class="cls-6" x="87.54" y="-28.58" width="17.96" height="86.37" rx="8.88"/><rect class="cls-6" x="105.5" y="-28.58" width="17.96" height="86.37" rx="8.88"/><rect class="cls-6" x="123.46" y="-28.58" width="17.96" height="86.37" rx="8.88"/><rect class="cls-6" x="141.41" y="-28.58" width="17.96" height="86.37" rx="8.88"/><rect class="cls-6" x="159.37" y="-28.58" width="17.96" height="86.37" rx="8.88"/></g><path class="cls-7" d="M111.57,96.59c-.4-.65-1.16-1-1.64-1.59a6.9,6.9,0,0,1-1.18-2.42c-.5-1.74-.35-4-1.33-5.53-.78-1.23-2.37-1.72-3.7-2.14-1.76-.55-3.42-1.28-5.13-1.94-3-1.16-6.21-1.21-8.47,1.26-.57.11-1.16.37-1.17.73-.09,2.28,1.25,4.17,1.82,6.31.27,1,.2,2,.91,2.85a20,20,0,0,1,2,3,6.94,6.94,0,0,0,4.52,3.39,24.46,24.46,0,0,0,3.19.56c1.35.17,2.88.33,3.39,1.77.21.59,2.36,0,2.27-.56C109.12,101.22,113.14,99.14,111.57,96.59Z"/><path class="cls-7" d="M95.8,113c-.09-.43-.1-.69-.51-.87a9.92,9.92,0,0,0-2.68-.19,8,8,0,0,0-2.07-.06c-1.19.21-1.44,1.16-1.39,2.22,0,.46.08,2,.94,1.55a.19.19,0,0,0,0-.32.35.35,0,0,0,0-.25c-.66-2.06,2.59-1.77,2-.13-.09.27.18.65.48.48,1.15-.6,2.24.41,3.34.69a.31.31,0,0,0,.34-.33C96.19,114.88,96,114,95.8,113Z"/><path class="cls-8" d="M124.88,118.18c-1.51-4.06-2.9-8.46-6-11.7a.68.68,0,0,0-.44-.21,21.07,21.07,0,0,0-1.81-3.13,8.87,8.87,0,0,0-1.65-1.76,7.38,7.38,0,0,0-1.39-1c-.4-.18-1.72-.62-1.56-1.21.12-.42-.45-.64-.76-.44-1.7,1.12-3.41,2.24-5.17,3.28-.53.31-1.46.62-1.71,1.22a6.77,6.77,0,0,0,0,2.46.48.48,0,0,0,.76.32c.28-.25.13.29.13.38a9.26,9.26,0,0,1-.18,1c-.12.62-.24,1.24-.39,1.85,0,.2-.11.8-.26.93s-.33,0-.46.07c-.35.08-.46.1-.66.4a.41.41,0,0,0,0,.49,12,12,0,0,0-1.61.23c-.69.06-1.38.11-2.06.13-1.27,0-2.53.07-3.8.07l-.22-.08a.22.22,0,0,0-.17.4l0,0a.24.24,0,0,0,0,.33c.38.44.3,1.44.38,2s.09,1.24.23,1.81a.71.71,0,0,0,1.29.22l0,0c3.3,1.26,6.8,2.45,10.37,2.14a1.22,1.22,0,0,0,0,.27.76.76,0,0,0,1.09.66,1.73,1.73,0,0,0,.72,0c.37-.06.35-.19.82-.14s.83.28,1.19.37a13.35,13.35,0,0,0,2.36.38c3.51.25,7-.52,10.49-1A.57.57,0,0,0,124.88,118.18Z"/><path class="cls-9" d="M106.81,89l0-.07a1.08,1.08,0,0,0-.22-.53.48.48,0,0,0,0-.89,33,33,0,0,0-6-1.1.73.73,0,0,0-.79.87c-3-.62-5.38-2.92-7.34-5.08a.64.64,0,0,0-1.1.6l.4,1.33h0c-.43-.34-1.18.15-.9.66l1,1.8a4.4,4.4,0,0,1-1.69-1.09.24.24,0,0,0-.2-.22,3.25,3.25,0,0,1-.23-.29c-.28-.39-1,0-.76.41a5.51,5.51,0,0,0,.61.88,4.34,4.34,0,0,0,.83,3s.09,0,.08,0A14.4,14.4,0,0,1,90,86.82,4.89,4.89,0,0,0,92.77,88c.4,0,.84-.39.62-.79l-.51-1a.52.52,0,0,0,.46-.61c-.07-.28-.14-.55-.22-.83,2.28,2.28,4.9,4.12,8.38,4,.39,0,1.5.09,1.47-.28,1.13.19,1.44-.15,2.56-.13a1.35,1.35,0,0,1,.27.32c.06.12.11.25.17.37l0,.08c-.09.34.3.6.59.52A.46.46,0,0,0,106.81,89Z"/><path class="cls-9" d="M107.17,97.06c-.41,0-1-.5-1.3-.8a4.18,4.18,0,0,1-.45-.65,10.46,10.46,0,0,1-1-1.81c-.33-.9,0-1.4.8-1.86l1.5-.88c.36-.21,0-.82-.36-.63-.81.4-2.14.82-2.68,1.57a2.15,2.15,0,0,0,.09,2.24c.59,1.23,1.75,3.81,3.49,3.31C107.61,97.47,107.45,97.05,107.17,97.06Z"/><path class="cls-9" d="M111,98.05a1.5,1.5,0,0,0,0-.36.51.51,0,0,0-.79-.33,1.7,1.7,0,0,1-1.43.24.2.2,0,0,0-.1-.33l.07-.13a.15.15,0,0,0-.19-.19,8.32,8.32,0,0,0-2.4,1.79,27.2,27.2,0,0,0-2.11,2.05.31.31,0,0,0-.21.59,4.43,4.43,0,0,1,1,.74c.22.23.63.65.93.27l0-.1a4.9,4.9,0,0,0,2.42-1.65,2.09,2.09,0,0,0,.14-.17.76.76,0,0,0,.19.12.24.24,0,0,0,.33-.24,1.28,1.28,0,0,0,0-.27,3,3,0,0,0,2.08-1.45.4.4,0,0,0,.13-.13A.43.43,0,0,0,111,98.05Z"/><path class="cls-9" d="M96.12,115.44a1.83,1.83,0,0,0-.21-.39c0-.74,0-1.47,0-2.21a.28.28,0,0,0-.53-.07,2.21,2.21,0,0,1-1.91,1.78,2.87,2.87,0,0,1-.55,0,1.27,1.27,0,0,0-.79-1.67,2.48,2.48,0,0,0-2.56.6.18.18,0,0,0,.21.29c.85-.54,2.14-.85,2.39.61,0,.12-.07.52-.06.66a.4.4,0,0,0,.55.31,1.76,1.76,0,0,1,.85,0,.29.29,0,0,0,.27.17,3.57,3.57,0,0,1,1.32.3.32.32,0,0,0,.19,0l.29.15a.47.47,0,0,0,.58-.49Z"/><path class="cls-10" d="M107.11,89.09h0a2.47,2.47,0,0,0-.3-.68,7.34,7.34,0,0,1-.16-.84.56.56,0,0,0-.15-.86,7.48,7.48,0,0,0-.36-1.41.23.23,0,0,0-.15-.14s0-.07,0-.11c-.08-.55-.12-1-.63-1.33a8.36,8.36,0,0,0-2.23-.54c-1.07-.24-2.14-.51-3.2-.81q-2.89-.81-5.72-1.89c-1.86-.71-3.69-1.58-5.58-2.21a.28.28,0,0,0-.28.06.35.35,0,0,0-.38.23c-1.12,2.65-3.16,7.13-.52,9.49a.4.4,0,0,0,.63-.25l0-.35q.4.28.78.6c.22.18.65,0,.65-.25,0-.65,0-1.29,0-1.93a3.64,3.64,0,0,0,1.94,1,.43.43,0,0,0,.29-.06,2.32,2.32,0,0,0,.3.22.45.45,0,0,0,.68-.51,17.41,17.41,0,0,1-1-4,.48.48,0,0,0,.59,0,15.08,15.08,0,0,0,9.88,5.8.63.63,0,0,0,.65-.89h.47l1.21.5a4.09,4.09,0,0,1,2.1,1.44C106.82,89.59,107.2,89.35,107.11,89.09Z"/><path class="cls-10" d="M117.4,95.87l-.27-.87a.49.49,0,0,0-.74-.21,6.3,6.3,0,0,1-.53.37.35.35,0,0,0-.12.07l-.22.13a.49.49,0,0,0-.57.14.53.53,0,0,0-.53.41.46.46,0,0,0-.65.23v0l-.18,0a.51.51,0,0,0-.42.4l-.29.15c-.17,0-.46,0-.62,0a.39.39,0,0,0-.37.3h-.11a.42.42,0,0,0-.59.15c-.38-.15-.74.45-.37.68.56.33,1.69.82,2.3.32a.47.47,0,0,0,.18-.59c.4-.06.77-.19.89-.47h0a.54.54,0,0,0,.2-.1l0,0,.27.18a.49.49,0,0,0,.78-.43l0-.23a.74.74,0,0,0,.91-.29.54.54,0,0,0,.27.18A.49.49,0,0,0,117.4,95.87Z"/><path class="cls-8" d="M121.69,71.24a17.29,17.29,0,0,0-5.24-4.88,22.13,22.13,0,0,0-6-2A19.44,19.44,0,0,0,96.66,66.5a22.16,22.16,0,0,0-5.61,4.19,10.71,10.71,0,0,0-1.72,2.74,8.47,8.47,0,0,1-1.27,2.2.5.5,0,0,0-.35-.08,11.82,11.82,0,0,0-2.88.73l-.1.06h0c-.36,0-.33.54,0,.6h0l.13.1a30.68,30.68,0,0,0,4.49,1.59c1.69.54,3.37,1.1,5.06,1.62,3.21,1,6.44,2,9.7,2.89a.5.5,0,0,0,.5-.14c1.48.36,1.89,2.39,2.07,3.69.21,1.5.4,3,.6,4.49s.38,3.29.6,4.94C108,97,108,98,109,98.07s2.49-.66,3.46-1.06a29.22,29.22,0,0,0,3.59-1.78,14.71,14.71,0,0,0,4.84-4,12,12,0,0,0,3.92-7.67A18.8,18.8,0,0,0,121.69,71.24Z"/><path class="cls-11" d="M124.38,119.29a.55.55,0,0,0-.6-.46,36.29,36.29,0,0,1-7.1,1.17,38.35,38.35,0,0,1-6.73-.84.39.39,0,0,0-.57-.14,42.74,42.74,0,0,1-5.11,2.89c-1.18.55-2.81,1-3.7,2s-.3,2.55-.16,3.7c.25,1.91.37,3.82.46,5.75.07,1.36.6,1.68,2,1.83A16.2,16.2,0,0,0,108,135c.45-.09.81-.13,1-.54a4.93,4.93,0,0,0,0-2.13,32.83,32.83,0,0,0-.62-5c1.74-.12,3.46-.44,5.19-.7,1.24-.19,3-.11,4.22-.75C121.26,125.11,125,123.31,124.38,119.29Z"/><path class="cls-12" d="M124.38,119.29a.55.55,0,0,0-.6-.46,36.29,36.29,0,0,1-7.1,1.17,17.63,17.63,0,0,1-2.28-.13,7.52,7.52,0,0,1,1.36,2.07,4.93,4.93,0,0,1-1.82,1c-6.47,2.17-8.23,1.77-8.38,2s.94,4.43.57,10.08A17,17,0,0,0,108,135c.45-.09.81-.13,1-.54s-.43-5.92-.52-6.47-1.1.36-1-1c1.74-.13,4.44,0,6.17-.29,1.24-.19,3-.11,4.22-.75C121.26,125.11,125,123.31,124.38,119.29Z"/><path class="cls-13" d="M108.11,135.27a.31.31,0,0,0-.49-.2,2.32,2.32,0,0,1-1,.34h-.1l-.1,0c-.43,0-.89,0-1.38-.06s-1.17,0-1.75,0c-.07-.27-.47-.2-.49.08a.25.25,0,0,0-.09.26.53.53,0,0,0,0,.53.73.73,0,0,0,.27.67,4.24,4.24,0,0,0,1.71.1h.83a2.66,2.66,0,0,0,1.89-.17C108.2,136.62,108.21,135.93,108.11,135.27Z"/><path class="cls-14" d="M108.56,136.74a.37.37,0,0,0-.55-.16l-.69.19a.4.4,0,0,0-.5.2c-.2.42-2,.17-2.3.16-.57,0-1.13,0-1.7-.06a10.22,10.22,0,0,1-.13-1.24.3.3,0,0,0-.33-.25,2,2,0,0,0-.63.12.23.23,0,0,0-.15.35.33.33,0,0,0-.15.23c-.1.72-2.21.75-2.77,1.05a1.27,1.27,0,0,0-.75,1.1c0,1.53,2.38,1,3.28.94,1.11-.07,2.23-.13,3.34-.16a5,5,0,0,0,2.38-.27,2.09,2.09,0,0,0,.42-.42,7.5,7.5,0,0,1,.88-.74A.83.83,0,0,0,108.56,136.74Z"/><path class="cls-8" d="M140.87,132.25a2.58,2.58,0,0,1-.59-1.15c-.08-.38-.07-.79-.14-1.18a3.84,3.84,0,0,0-1-2.1c-1.06-1-3-1-4.38-1.14a17.63,17.63,0,0,0-3.42-.07,4.09,4.09,0,0,1-1.55.34c-2.27.18-4.56.3-6.84.41-4.37.2-8.75.22-13.13.39-.22-.14-.53.11-.44.33a.4.4,0,0,0,.35.49h0a7.52,7.52,0,0,1,.9,6c-.57,1.86-2.21,2.91-3.66,4-.79.61-2.61.4-3.63.47-1.3.09-2.6.23-3.89.29-.3,0-.82.13-1.08,0-.09-.06-.1-.25-.19-.32-.27-.21-.45-.5-.77-.42a5.28,5.28,0,0,1-2.89.09c-1-2-2.25-3.88-3.36-5.8a16.69,16.69,0,0,1-1.33-2.41c-.2-.73.12-1,.22-1.69.18-1.23.35-2.54.51-3.77s.53-2.09.67-3.25a5.05,5.05,0,0,0,.08-2.5,2.54,2.54,0,0,0-1.83-1.22A4.11,4.11,0,0,0,93,115.78a.3.3,0,0,0-.38-.38,4.79,4.79,0,0,1-2.64.25c-.5-.19-.74-.26-.85-1a3.52,3.52,0,0,1,0-1.12,2.23,2.23,0,0,1,3.33-1.72c.19.1.35-.16.25-.31-.86-1.22-2-2.47-3.56-2.57s-2.84.65-4.28.77a4.84,4.84,0,0,0-1.21,0,.4.4,0,0,0-.22.09c-.46,0-.93-.06-1.39-.11a.36.36,0,0,0-.53-.22c-.89.55.15,1.12.7,1.26.85.21,1.24.36,1.56,1.26a6.59,6.59,0,0,1,.27,1.46,4.18,4.18,0,0,1-.51,2.61l-.1,0c-.42.1-.66.76-.13.92,1.2.36,2.37.81,3.59,1.13a.38.38,0,0,0,.38-.1l.13,0a.05.05,0,0,0,0,0,29.66,29.66,0,0,0-5.69,5.27.54.54,0,0,0-.28,0c-1,.1-2.45.72-2.71,1.91-.21,1,.33,3,1.28,3.38a6.65,6.65,0,0,0,.39.75,36,36,0,0,0-5.11-1.08,9.69,9.69,0,0,0-5.09.45A8,8,0,0,0,65,136.37a.31.31,0,0,0,.42.27c.69.7,2.28.64,3.14.77q3.09.45,6.18.94c2.06.34,4.11.7,6.16,1.05a32.14,32.14,0,0,0,6.05.89c.24.67.55,1.68,1.18,2,.34.15.85,0,1.2,0,3.87.13,51.44-3.07,51.83-3.7S141.54,133.21,140.87,132.25Z"/><path class="cls-15" d="M132.35,124.07h0a2.63,2.63,0,0,0-2.65-2.6,17.39,17.39,0,0,0-5.91.46,4.87,4.87,0,0,1-.45,1,4.27,4.27,0,0,1-1,1.15,10.26,10.26,0,0,1-3.19,1.59,19.16,19.16,0,0,1-3.89.78c-.69.07-1.38.11-2.06.17s-1.44.13-2.16.13c-1.19,0-2.51-.43-3.65.11h0l.12.71a2,2,0,0,0,.47.07,140.22,140.22,0,0,0,21.68-.41C131.07,127.26,132.84,127,132.35,124.07Z"/><path class="cls-15" d="M120.22,140.19a9.68,9.68,0,1,0,19.26-1.56C138.62,138.75,121.53,140.2,120.22,140.19Z"/><path class="cls-15" d="M86.31,140.38c-.79-.11-1.58-.22-2.36-.37s-1.51-.29-2.26-.39-1.56-.2-2.33-.32c-1.54-.24-3.06-.54-4.59-.82-.77-.14-1.54-.27-2.32-.39s-1.49-.27-2.23-.41-1.48-.24-2.23-.34A8.68,8.68,0,0,1,66.4,137a10,10,0,0,0-.27,2.27,10.35,10.35,0,0,0,20.61,1.19Z"/><path class="cls-16" d="M81.17,139.43c-.38-.05-.76-.1-1.14-.17s-.74-.15-1.1-.2l-1.14-.15c-.74-.12-1.48-.26-2.23-.4l-1.13-.19c-.36,0-.72-.13-1.08-.2s-.72-.12-1.08-.17a4,4,0,0,1-.78-.16,9.46,9.46,0,0,0-.13,1.1c-.39,3.68,2.28,5.52,5,5.52,2.58,0,4.63-1.35,5-4.94Z"/><path class="cls-8" d="M153.9,123.14l-18.66-.08L135.4,108l-1-.42a5.18,5.18,0,0,1-.29-2.27,1,1,0,0,1,1-.91l19.91.11a.58.58,0,0,1,.58.54,6.14,6.14,0,0,1-.32,2.69l-1.18.11Z"/><path class="cls-17" d="M83.77,112.39a3,3,0,0,0-.43-1.15c-.32-.51-.39-.46-.62-.16a.34.34,0,0,0-.14.21l0,0a.29.29,0,0,1,0,.09,3.58,3.58,0,0,0-.22.8,6.13,6.13,0,0,0-.13,1.76v0c0,.6-.26,1.55.1,2.1a.78.78,0,0,0,1.25.11A3.4,3.4,0,0,0,84,114,6,6,0,0,0,83.77,112.39Z"/><path class="cls-17" d="M141.63,129.21l-.16-.13a.43.43,0,0,0-.41,0,.28.28,0,0,0-.23.32c.21,1.15.39,2.31.52,3.48a.4.4,0,0,0-.24.18,1,1,0,0,0,.49,1.51c.82.22,1.43-.64,1.71-1.26C144,131.75,143.57,129.44,141.63,129.21Z"/><path class="cls-18" d="M141.66,129.39c-.11-.46-.82-.4-.76.09.17,1.51.41,3,.48,4.55,0,.53.88.43.84-.1A27.75,27.75,0,0,0,141.66,129.39Z"/><path class="cls-18" d="M83.07,111c-.17-.26-.56,0-.47.26a9,9,0,0,1,.69,2.63,11.78,11.78,0,0,1-.58,2.58c0,.11.12.23.23.17C84.84,115.63,84,112.4,83.07,111Z"/><path class="cls-13" d="M83.4,110.93c-.2-.2-.55.14-.36.34,1.41,1.47,1.23,3.36.54,5.12a.22.22,0,0,0,.37.21A4.44,4.44,0,0,0,83.4,110.93Z"/><path class="cls-17" d="M80.87,124a3.58,3.58,0,0,1,.26-.29c.22-.21-.13-.53-.36-.36l0,0a.25.25,0,0,0-.12,0c-1,.17-1.67,1.31-2.06,2.14-.48,1,.45,2,1.13,2.69a.38.38,0,0,0,.61-.44,3.3,3.3,0,0,1,.26-3.3A4.84,4.84,0,0,0,80.87,124Z"/><path class="cls-18" d="M81,123.79c.18-.24-.19-.52-.38-.29-1,1.26-2,3.49-.58,4.85.15.14.4-.06.32-.24a3.48,3.48,0,0,1-.43-2.1A5.1,5.1,0,0,1,81,123.79Z"/><path class="cls-16" d="M132.85,143.62l-.34.11a5.31,5.31,0,0,0-1.78-.1c-.79,0-1.57.06-2.36.09l-.08,0c-.22-.07-.43-.16-.64-.25-.43-.2-.67.43-.28.64,1.44.79,4.72,1.71,5.87,0A.33.33,0,0,0,132.85,143.62Z"/><path class="cls-19" d="M136.26,140.33a1.64,1.64,0,0,0-.46-.83.62.62,0,0,0-.7-.52c-3.82.52-7.71.73-11.55,1-1.86.12-3.71.22-5.56.3a22.58,22.58,0,0,0-5.44.68.36.36,0,0,0-.2.16A10.47,10.47,0,0,1,111,141c-.35-.07-1.76.22-1.42.27,1.1.15,3.17.59,4.2.6a42,42,0,0,1,4.33.39c2.67.29,5.3.85,8,1.21a29.46,29.46,0,0,0,7.84.28,2.7,2.7,0,0,0,2.1-1.2A3.07,3.07,0,0,0,136.26,140.33Z"/><path class="cls-20" d="M136,140.05c-.09-.17-.37-.12-.34.08.36,2.79-3.25,2.73-5.11,2.61-2.07-.13-4.14-.24-6.2-.46s-4.32-.44-6.48-.67a34.88,34.88,0,0,0-6.11-.48c-.2,0-.26.33-.06.39a43.86,43.86,0,0,0,7.67,1.17c2.75.36,5.47.76,8.24.93,2,.12,4.52.63,6.52,0C135.64,143.1,136.74,141.59,136,140.05Z"/><path class="cls-20" d="M132.42,141.42c0-.07-.12-.11-.16,0a1.28,1.28,0,0,1-1.33.54,1.59,1.59,0,0,1-1.13-1.13c-.05-.13-.26-.07-.25.06a1.87,1.87,0,0,0,1.48,1.79A1.13,1.13,0,0,0,132.42,141.42Z"/><path class="cls-8" d="M141.19,130.33c0-.06,0-.12,0-.18-.06-.48,0-1.4-.81-1.22a.57.57,0,0,0-.37.23.23.23,0,0,0-.1.19,3.24,3.24,0,0,0,.05,1.53,4.35,4.35,0,0,0,.8,2.27c0,.29.07.57.11.86a.32.32,0,0,0,.64-.08c0-.25,0-.49,0-.74a.35.35,0,0,0,.06-.14A7.21,7.21,0,0,0,141.19,130.33Z"/><path class="cls-8" d="M97.75,103.77c-.09-.8-.89-1-1.58-.84a3.56,3.56,0,0,0-2.23,1.78,4.19,4.19,0,0,0-.83,3,1.25,1.25,0,0,0,1.52,1.09c.83.08,1.3-1.21,1.61-1.77s.69-1.28,1-1.91A2.21,2.21,0,0,0,97.75,103.77Z"/><path class="cls-21" d="M97,102.92a3,3,0,0,0-3,2c-.49,1.07-.9,2.83.15,3.69a.23.23,0,0,0,.36-.2,5.49,5.49,0,0,1,.22-2.87A2.58,2.58,0,0,1,97,103.69.39.39,0,0,0,97,102.92Z"/><path class="cls-21" d="M89.22,129.63a16.09,16.09,0,0,0-3.42-.91,16.48,16.48,0,0,1-2.88-1.19,3.88,3.88,0,0,1-1.45-2,3,3,0,0,1,.11-1.45.26.26,0,0,0-.48-.2,3.25,3.25,0,0,0-.35,1,.26.26,0,0,0-.26.19,2.31,2.31,0,0,0,.11,1.56,3.38,3.38,0,0,0,2.1,2.67,19.33,19.33,0,0,0,2.8.67,17.88,17.88,0,0,0,3.47.6C89.49,130.54,89.76,129.86,89.22,129.63Z"/><path class="cls-21" d="M86.62,139.38l-.62-.16a4.24,4.24,0,0,0-.86-2.06c-.49-.92-1-1.83-1.5-2.74q-1.44-2.61-2.94-5.17c-.27-.47-1.1,0-.85.47a2.12,2.12,0,0,0,.11.21,14.82,14.82,0,0,1-.75,4.09,4.15,4.15,0,0,1-3.76,2.43,45.34,45.34,0,0,1-10.28-.4.31.31,0,0,0-.09.62,42.54,42.54,0,0,0,4.84.73.29.29,0,0,0,.21.15c2.7.52,5.45.73,8.16,1.17s5.38,1,8,1.74C86.94,140.62,87.25,139.55,86.62,139.38Z"/><path class="cls-21" d="M113.26,132.56a21.26,21.26,0,0,0-3-4.57c-.42-.51-1.11-.32-.73.21s.73,1.62,1.1,2.27a7.19,7.19,0,0,1-3.3,7.95.24.24,0,0,0-.11.3,31.31,31.31,0,0,1-8.79.66.25.25,0,0,0-.15-.25,6,6,0,0,0-3,0,.52.52,0,0,0,.13,1,11.58,11.58,0,0,0,2-.22.37.37,0,0,0,.19.08,40.12,40.12,0,0,0,6.48-.16c2.46-.09,5.11,0,7.45-.9C114.65,137.79,114.41,135.1,113.26,132.56Z"/><path class="cls-21" d="M106.78,113.76l-.45-1.13a.5.5,0,0,0-.94.36l.42,1.14a2.12,2.12,0,0,0,.57,1,.4.4,0,0,0,.64-.25A2.18,2.18,0,0,0,106.78,113.76Z"/><path class="cls-21" d="M109.05,113a9.62,9.62,0,0,0-1.22-1.08c.4.07.8.18,1.21.24a.4.4,0,0,0,.21-.77,4.37,4.37,0,0,0-1.83-.33h0a21.46,21.46,0,0,1,1-5,.49.49,0,0,0-.19-.54,4.39,4.39,0,0,0,.71-1,.22.22,0,0,0-.28-.28c-.5.25-2.23,2.16-2.8,1.4-.39-.51-1.12.06-.8.58l.15.2a1.47,1.47,0,0,0,.37,1.06.43.43,0,0,0,0,.32c.3,1.25.66,2.49,1,3.74a.43.43,0,0,0,.35.35.49.49,0,0,0,.11.64,12.69,12.69,0,0,1,1.26,1.28c.33.38.66,1,1.21,1.07a.43.43,0,0,0,.47-.34C110,114,109.41,113.42,109.05,113Z"/><path class="cls-21" d="M105.73,111.87a2.29,2.29,0,0,0-.14-.27.21.21,0,0,0,.13-.26,2.73,2.73,0,0,0-.34-.54,2.16,2.16,0,0,1-.32-.6c-.08-.21-.47-.13-.41.11s.06.22.1.34l0,0a.41.41,0,0,0-.56-.08.39.39,0,0,0-.09.55,4.46,4.46,0,0,0,1.26,1.19C105.56,112.39,105.82,112.1,105.73,111.87Z"/><path class="cls-21" d="M111.25,99.65c-1.08.95-2,2-3.2,2.82s-2.33,1.7-3.56,2.45c-.5.3,0,1,.54.71a17.15,17.15,0,0,0,3.53-2.57,19.08,19.08,0,0,0,2.86-3.24C111.49,99.71,111.36,99.54,111.25,99.65Z"/><path class="cls-21" d="M119.51,116.31a20.5,20.5,0,0,0-.84-2.87,25.65,25.65,0,0,0-3-5.43h0a.14.14,0,0,0,0-.07c0-.09-.12-.13-.17-.05a.36.36,0,0,0-.4.53l.11.18,0,.06a.41.41,0,0,0-.4.43l0,.57a26.17,26.17,0,0,1-2.08,3.95c-1.13,1.73-2.29,3.47-4.57,3.64a28.09,28.09,0,0,1-6.46-.62,16,16,0,0,1-2.93-.57c-1.15-.43-1.47-1.72-1.64-2.79a.35.35,0,0,0-.69.08c.12,2.14.69,3.52,3,4a38.81,38.81,0,0,0,8.44,1.15l.41,0h0c-.5.14-.29,1,.23.88,2.31-.52,4.79,0,7.13,0a19.25,19.25,0,0,0,3.31-.09c.44-.08.72-.16.87-.61A5,5,0,0,0,119.51,116.31Zm-6.71-1a31.2,31.2,0,0,0,1.75-3.69,11.47,11.47,0,0,1-1.24,3.7,5.35,5.35,0,0,1-2.11,2.06A7.64,7.64,0,0,0,112.8,115.28Z"/><path class="cls-21" d="M124.09,85.06l-.14.18c.1-.3.19-.6.28-.91a.4.4,0,0,0-.08-.34,10.28,10.28,0,0,0,0-6.42c-.07-.22-.45-.12-.4.1,1.17,5-1.55,9.52-6.08,11.73A8.35,8.35,0,0,1,114,90.52a5,5,0,0,1-3.47-2,32.63,32.63,0,0,1-3.9-5.34c-.12-.35-.22-.69-.32-1a.43.43,0,0,0-.46-.3,1.53,1.53,0,0,0-.56-.29c-.66-.21-1.33-.41-2-.65-1.6-.6-3.17-1.26-4.75-1.9l-4.69-1.87c-1-.42-5.25-1.43-4.48-3.09.17-.37-.41-.71-.64-.37a2,2,0,0,0,.72,2.87,27.65,27.65,0,0,0,5.2,2.24l5.74,2.32c.93.37,1.86.76,2.8,1.1a15.4,15.4,0,0,1,1.5.48l-.08,0c-.38-.11-.76-.21-1.15-.3s-.37.4-.07.48.84.23,1.25.37a2.54,2.54,0,0,0,.93.23,18.59,18.59,0,0,0,1,2.71c.23,1.23.47,2.47.7,3.7.23,1.69.42,3.38.69,5.06a3.42,3.42,0,0,0,1,2.17,1.19,1.19,0,0,0,.59.46c.94.34,2-.34,2.81-.78a73.44,73.44,0,0,0,7.44-4.49c1.64-1.22,3.39-3.12,3.49-5.25a10,10,0,0,0,1.15-1.84C124.48,85.06,124.21,84.91,124.09,85.06Z"/><path class="cls-21" d="M153.72,107.3c-.87,0-1.74,0-2.61,0a.21.21,0,0,0-.16-.1c-2.93-.34-5.88-.39-8.82-.54-1.39-.07-2.77-.14-4.16-.24a9.5,9.5,0,0,1-2-.07c-.71-.25-.52-1.11-.62-1.66a.42.42,0,0,0-.83.1s0,.08,0,.12a.28.28,0,0,0-.2.25c-.05.58-.05,1.63.53,2a.94.94,0,0,0,.19.14c1.1.64,3.1.09,4.3,0,2-.08,4.06,0,6.1.07-3.12.08-6.15.36-9.29.64a1,1,0,0,0-.76.28.93.93,0,0,0-.13.57l-.13,4.53c0,.35.12.84.48.8q-.24,3.43-.39,6.87a2.26,2.26,0,0,0,.66,2.11,2.44,2.44,0,0,0,1.32.24l2.57,0a.46.46,0,0,0,.4-.14c.11-.16,0-.36-.17-.51a9.15,9.15,0,0,1-2.37-6.14c0-3.62,2.09-7.1,6-7.49,1.71-.17,3.46-.19,5.18-.25a23.7,23.7,0,0,0,5.06-.28c.23-.06.13-.36,0-.4a8.46,8.46,0,0,0-.9-.14l.92,0C154.33,108,154.22,107.3,153.72,107.3Z"/><path class="cls-21" d="M88.87,140.93a47.67,47.67,0,0,0-2.38-4.46c-.71-1.39-1.5-2.73-2.27-4.08-.14-.24-.54,0-.42.22.71,1.39,1.4,2.78,2.18,4.14s1.45,3.06,2.43,4.43A.27.27,0,0,0,88.87,140.93Z"/><path class="cls-21" d="M123.11,129.28a10.83,10.83,0,0,0-5,3.71,15,15,0,0,0-2.71,6.37.39.39,0,0,0,.74.2c1.34-4,3.34-7.74,7.16-9.87C123.59,129.55,123.36,129.19,123.11,129.28Z"/><path class="cls-21" d="M140.54,129.78a.38.38,0,0,0-.62-.12,6.42,6.42,0,0,0-2.15-1.43,13.3,13.3,0,0,0-6.39-.95c-.43,0-.45.73,0,.75a19.77,19.77,0,0,1,5.07.9,5.38,5.38,0,0,1,3.49,3,.42.42,0,0,0,.49.21.36.36,0,0,0,.68-.17A10.27,10.27,0,0,0,140.54,129.78Z"/><path class="cls-22" d="M102.66,93.19a2.75,2.75,0,0,0-.5,0l.24-.14a.37.37,0,0,0-.27-.66c-.87.11-1.69.42-2.55.58a.4.4,0,0,0,.1.8l.61-.05-.13,0c-1,.33-2,.64-3,.93a.49.49,0,0,0,.25.94c1-.22,2-.47,3-.78a5.91,5.91,0,0,0,2.47-1.18A.31.31,0,0,0,102.66,93.19Z"/><path class="cls-22" d="M104.93,98.15a5.39,5.39,0,0,0-1.34,1.09.42.42,0,0,0-.09.57.44.44,0,0,0,.59.08,5.67,5.67,0,0,0,1.3-1.14C105.59,98.46,105.32,98,104.93,98.15Z"/><path class="cls-23" d="M107.13,135.39a1.57,1.57,0,0,0,0,.23.34.34,0,0,0-.19-.24,1.6,1.6,0,0,0-.87-.08,6.63,6.63,0,0,1-1-.07.32.32,0,0,0-.35.23l-1.18-.3c-.38-.1-.64.46-.24.57l1.83.55a1,1,0,0,1,.65.48,1.26,1.26,0,0,0,.28.33.37.37,0,0,0,.59-.23l0-.14a.3.3,0,0,0,.24-.1,1.11,1.11,0,0,0,.16-.44,1.49,1.49,0,0,0,.07.47.41.41,0,0,0,.78-.09c0-.36,0-.71,0-1.07A.39.39,0,0,0,107.13,135.39Z"/><path class="cls-15" d="M92.09,113.93a1.24,1.24,0,0,0-1.45-.63,1.39,1.39,0,0,0-1,1.06.42.42,0,0,0,.06.25,1.09,1.09,0,0,0,.42.82C91.17,116.23,92.88,115.14,92.09,113.93Z"/><path class="cls-24" d="M93.19,105.2a20.77,20.77,0,0,0-2.25,3A8.08,8.08,0,0,0,89.53,111c0,.33.37.44.57.23a15.59,15.59,0,0,0,1.74-2.86c.59-1,1.25-1.87,1.85-2.82A.31.31,0,0,0,93.19,105.2Z"/><path class="cls-25" d="M93.53,105a15.34,15.34,0,0,0-4.12,6.08.1.1,0,0,0,.18.07,23.08,23.08,0,0,1,4.12-6A.13.13,0,1,0,93.53,105Z"/><path class="cls-21" d="M92.38,115.61a7.13,7.13,0,0,1-6.51.28,5.49,5.49,0,0,0-.1-3.62.35.35,0,0,0-.67.17v0h0c0,.75,0,1.52-.06,2.27a4.58,4.58,0,0,1-.82,2.08.25.25,0,0,0,.14.33c.42.13.82.32,1.24.43a.23.23,0,0,0,.24-.07c2.14,1,5.4.85,6.6-1.22a.14.14,0,0,0,0-.07l.27-.17C93.07,115.86,92.71,115.41,92.38,115.61Z"/><path class="cls-13" d="M96.62,113.88a3.32,3.32,0,0,0-.58-1.75c-.27-.33-.81.05-.55.4.79,1.06.21,2.7.79,3.86a.28.28,0,0,0,.52-.07A7,7,0,0,0,96.62,113.88Z"/><path class="cls-13" d="M111.76,98.7a.48.48,0,0,0-.74,0,25.59,25.59,0,0,1-5.47,3.89,3.24,3.24,0,0,1-.62,0,.47.47,0,0,0-.52.51,14.54,14.54,0,0,1,0,1.62l-.12.21a.38.38,0,0,0,0,.31c-.08.35.29.74.64.51l.08-.06c1.24-1.08,2.52-2.1,3.81-3.11a5.73,5.73,0,0,0,.6-.48l.71-.55C111,100.82,112.59,100,111.76,98.7Z"/><path class="cls-13" d="M101.9,124.05c-.42.53-.88,1.62-.34,2.21a.23.23,0,0,0,.38-.05,6,6,0,0,0,.1-.85,1.93,1.93,0,0,1,.4-.9C102.71,124.12,102.17,123.7,101.9,124.05Z"/><path class="cls-13" d="M101.46,127c0,.12,0,.24,0,.35a.6.6,0,0,0,.11.34c.07.12.24.06.29,0a1.29,1.29,0,0,0,.1-.65A.26.26,0,1,0,101.46,127Z"/><path class="cls-13" d="M138.48,131.84a2.83,2.83,0,0,0-1.19-.68c-.54-.16-.9.59-.35.82a2.62,2.62,0,0,1,1,.76c.21.23.67.65.94.29S138.75,132.11,138.48,131.84Z"/><path class="cls-13" d="M139.57,134.41l-.17-.4c-.15-.35-.7-.13-.55.21l.17.4a.8.8,0,0,0,.25.39.25.25,0,0,0,.4-.16A.77.77,0,0,0,139.57,134.41Z"/><path class="cls-13" d="M70,130.48c-1.07-.39-2.09.81-2.51,1.61-.22.41.45.79.72.41a3.86,3.86,0,0,1,.92-.88,3.47,3.47,0,0,0,1-.71A.28.28,0,0,0,70,130.48Z"/><path class="cls-13" d="M71.51,130.27a.26.26,0,0,0-.18-.16.54.54,0,0,0-.18,0l-.13,0a.3.3,0,0,0-.17.1.23.23,0,0,0,0,.21.26.26,0,0,0,.34.18l.13,0a.46.46,0,0,0,.15-.09A.23.23,0,0,0,71.51,130.27Z"/><rect class="cls-26" x="132.06" y="102.3" width="1.51" height="21.94" rx="0.75"/><path class="cls-26" d="M153.62,123.06H132.53a.55.55,0,0,0-.56.54.56.56,0,0,0,.56.55h11.4l-.16.1a1.42,1.42,0,0,0-.42.08,6.12,6.12,0,0,0-1.06.87c-1,.72-1.95,1.44-2.89,2.2a.26.26,0,0,0-.26.44,1,1,0,0,1,.23.42l0,.08c-.12.16,0,.37.2.43v0a.33.33,0,0,0,.57-.31h0l2.59-2.05a19.53,19.53,0,0,0,1.78-1.4l.64-.36a.26.26,0,0,0-.16-.5l0,0h8.63a.56.56,0,0,0,.56-.55A.55.55,0,0,0,153.62,123.06Z"/><path class="cls-27" d="M153.76,123.81c-3.33-.23-6.71.06-10,.06H138.6a49.85,49.85,0,0,0-5.33.07.19.19,0,0,0,0,.37,46.07,46.07,0,0,0,4.7.07h6.63c-1.64,1.25-3.32,2.47-4.94,3.75a.25.25,0,0,0,.31.4c1.75-1.27,3.44-2.62,5.18-3.92a.25.25,0,0,0,.1-.21c2.83.06,5.7.22,8.51,0A.31.31,0,0,0,153.76,123.81Z"/><path class="cls-27" d="M133.48,102.75a.28.28,0,0,0-.55,0,95.41,95.41,0,0,0-.16,10.15c0,3.5,0,7,0,10.51,0,.46.82.47.83,0,0-3.39,0-6.78,0-10.17A96.78,96.78,0,0,0,133.48,102.75Z"/><path class="cls-28" d="M116.88,68.44c-.55-.22-1.09.6-.55.92a10,10,0,0,1,2.93,3.12c.24.34.71.08.7-.28A4.46,4.46,0,0,0,116.88,68.44Z"/><path class="cls-28" d="M120.72,73.73l0,0a.88.88,0,0,1,0-.15.39.39,0,0,0-.49-.21.37.37,0,0,0-.21.48l0,.08a.14.14,0,0,0,0,.06.45.45,0,0,0,.27.46l.09,0,0,0h0a.28.28,0,0,0,.45-.18v-.13A.43.43,0,0,0,120.72,73.73Z"/><path class="cls-28" d="M109.22,107.15a2.69,2.69,0,0,0-.39,1.63.28.28,0,0,0,.53.07,11.59,11.59,0,0,1,.55-1.42C110.14,107,109.44,106.73,109.22,107.15Z"/><path class="cls-28" d="M108.89,109.38a.49.49,0,0,0-.5.54.51.51,0,0,0,.19.32s0,0,.06.06h0a.12.12,0,0,0,.15.06l.06,0a.49.49,0,0,0,.52-.41A.49.49,0,0,0,108.89,109.38Z"/><path class="cls-28" d="M152.32,109.47v1a3.27,3.27,0,0,0,.17.88.32.32,0,0,0,.58,0,3,3,0,0,0,.16-.88c0-.32,0-.64,0-1A.46.46,0,1,0,152.32,109.47Z"/><path class="cls-28" d="M153.13,113.18v-.13a.33.33,0,0,0-.36-.27.32.32,0,0,0-.27.35v0a.19.19,0,0,1,0,.08.56.56,0,0,0,0,.12.31.31,0,0,0,0,.19.44.44,0,0,0,.26.34l.09,0h0a.41.41,0,0,0,.22,0,.45.45,0,0,0,.24-.23A.44.44,0,0,0,153.13,113.18Z"/><path d="M112,100.22a6.5,6.5,0,0,1,3.21,2,27.79,27.79,0,0,1,3.46,4.2,51.14,51.14,0,0,1,3.09,5,38.75,38.75,0,0,1,2.13,4.52,12,12,0,0,1,.56,1.85,2.55,2.55,0,0,1,0,.57.35.35,0,0,1,0,.17c0,.09,0,0,0,0s0,.06,0,0c-.22.25.15.62.38.37a1.28,1.28,0,0,0,.22-1,7.93,7.93,0,0,0-.35-1.59,28.61,28.61,0,0,0-2-4.51,50.62,50.62,0,0,0-3.09-5.21A33.22,33.22,0,0,0,116,102.2a7.78,7.78,0,0,0-3.88-2.54c-.37-.06-.53.49-.16.56Z"/><path d="M89.39,114.07a2,2,0,0,1,.55-1.57,1.92,1.92,0,0,1,1.77-.44c.64.12,1.29.23,1.94.33a5.09,5.09,0,0,0,1.6.11c.24,0,.19-.35,0-.41a10.15,10.15,0,0,0-1.82-.38,13,13,0,0,0-2.22-.36,2.48,2.48,0,0,0-2.44,2.72c0,.38.64.39.62,0Z"/><path d="M95,112.2c.23-.14.34.64.37.8,0,.36.1.72.16,1.08.1.7.24,1.39.38,2.07,0,.18.36.15.34,0-.08-.83-.17-1.64-.3-2.46,0-.35-.1-.7-.16-1.05s-.48-1.13-1-.8a.23.23,0,0,0,.24.4Z"/><path d="M96,112.16a13.81,13.81,0,0,1,.48,2.21c.14.75.25,1.5.46,2.23.06.2.39.17.37,0a17.77,17.77,0,0,0-.32-2.29,13.38,13.38,0,0,0-.49-2.24c-.1-.31-.61-.17-.5.14Z"/><path d="M96.43,112.28a17.37,17.37,0,0,0,4.67.25c.86,0,1.72-.07,2.58-.09h1.23a3.84,3.84,0,0,0,1.22-.07.21.21,0,0,0,.05-.38,2.59,2.59,0,0,0-1.14-.2c-.42,0-.84,0-1.27,0l-2.53.11a18.33,18.33,0,0,1-4.68-.11c-.31-.06-.45.4-.13.48Z"/><path d="M107,112.11a15.38,15.38,0,0,0,1.12-3.82c.16-.7.31-1.4.53-2.08.1-.32.21-.63.34-.94a3,3,0,0,0,.32-1,.21.21,0,0,0-.31-.18,3.16,3.16,0,0,0-.91,1.75,18.44,18.44,0,0,0-.48,2.08,15.45,15.45,0,0,1-1,3.91c-.14.28.28.52.42.24Z"/><path d="M115.37,107.23c-.33,1.4-.73,2.78-1.15,4.16a14.52,14.52,0,0,1-2,4.67,5.7,5.7,0,0,1-1.72,1.52,6.08,6.08,0,0,1-2.29.64,13,13,0,0,1-2.57,0,23.48,23.48,0,0,1-2.76-.5c-1.9-.42-3.75-1-5.66-1.44a.23.23,0,0,0-.13.45,29.6,29.6,0,0,0,5.16,1.32,38.41,38.41,0,0,0,5.55.58,5.71,5.71,0,0,0,4.45-1.6,10.48,10.48,0,0,0,2.24-4.54c.46-1.72,1-3.43,1.35-5.17a.25.25,0,0,0-.48-.12Z"/><path d="M109.32,119.33a8.91,8.91,0,0,0,2.45.56c1.12.13,2.26.18,3.39.2a43.68,43.68,0,0,0,7-.42,7.58,7.58,0,0,0,2.3-.6c.28-.15,0-.53-.25-.42a7.85,7.85,0,0,1-1.87.39c-1,.15-2,.24-3,.31a47.42,47.42,0,0,1-7,0,9.56,9.56,0,0,1-2.7-.51c-.32-.14-.6.32-.28.46Z"/><path d="M104.88,105.61a55.78,55.78,0,0,0,1.13,6.68.24.24,0,0,0,.46-.06,16.5,16.5,0,0,0-.42-2.61c-.26-1.36-.53-2.7-.73-4.07,0-.24-.47-.19-.44.06Z"/><path d="M96,112.22c1.39-.17,2.79-.18,4.18-.22.69,0,1.37-.06,2-.15a6.4,6.4,0,0,0,2-.49.22.22,0,0,0-.11-.4c-.68,0-1.35.18-2,.24s-1.36.12-2,.15c-1.37.06-2.73.09-4.09.27-.35,0-.27.64.08.6Z"/><path d="M104.57,106.26a7,7,0,0,0,1.2-.74c.56-.4,1.1-.82,1.64-1.25,1.15-.94,2.29-1.9,3.36-2.93A7.87,7.87,0,0,0,112,100c.1-.17-.11-.41-.28-.28a13.09,13.09,0,0,0-1.12,1L109,102.12c-1.07,1-2.17,1.91-3.33,2.78a8.33,8.33,0,0,1-1.38.89c-.33.15-.05.62.28.47Z"/><path d="M104.67,106a27.49,27.49,0,0,1,0-2.87l-.15.27c1.71-1.13,3.57-2,5.19-3.3.2-.15-.06-.47-.27-.34-1.28.81-2.61,1.55-3.91,2.32-.29.18-.59.33-.88.5s-.52.26-.59.47a2.93,2.93,0,0,0-.06.84c0,.25,0,.51,0,.77,0,.45,0,.89,0,1.34s.62.38.61,0Z"/><path d="M104.47,103.3a1.52,1.52,0,0,0,.44-.31l.13-.14h0c-.06,0,0,0,0,0l.09-.07.06,0s0,0,0,0h0l0,0a.2.2,0,0,0,.08-.24.18.18,0,0,0-.22-.1l-.2.07-.15.1a.93.93,0,0,0-.14.14l-.14.14s-.07,0,0,0l0,0-.15.09a.2.2,0,0,0-.08.28.21.21,0,0,0,.29.07Z"/><path d="M109.22,119.12c-2.5,1.49-5.19,2.55-7.81,3.81a2.44,2.44,0,0,0-1.18,1.06,2.91,2.91,0,0,0-.27,1.45,11.3,11.3,0,0,0,.2,1.64c.09.62.14,1.24.19,1.86.08.88.18,1.76.28,2.63.05.42.12.83.19,1.24,0,.21.08.43.12.64s.17.62.08.81a.27.27,0,1,0,.43-.06c-.11-.13-.08-.42-.1-.58l0-.6c0-.38,0-.75-.09-1.13-.08-.75-.17-1.49-.24-2.24s-.08-1.37-.17-2.05c-.06-.53-.16-1-.22-1.57a3.93,3.93,0,0,1,.05-1.45,1.69,1.69,0,0,1,.9-1c1.17-.62,2.39-1.15,3.59-1.72a43.62,43.62,0,0,0,4.32-2.31.23.23,0,0,0-.24-.39Z"/><path d="M101.25,135a10.39,10.39,0,0,0,2.86.58,14.41,14.41,0,0,0,1.61,0l1-.08a2.28,2.28,0,0,0,1-.25.15.15,0,0,0,0-.28,2.28,2.28,0,0,0-1,0l-1,.07c-.52,0-1,.05-1.58,0a10.23,10.23,0,0,1-2.74-.53c-.34-.11-.47.4-.15.51Z"/><path d="M107.93,134.93a18.29,18.29,0,0,0,.06-5.12c-.09-1-.22-2-.36-3,0-.26-.48-.2-.46.06.12,1.5.27,3,.39,4.52a15.61,15.61,0,0,1,0,2.37q0,.51-.12,1c0,.28.39.41.45.12Z"/><path d="M107.18,127.11a63.24,63.24,0,0,0,10.2-.63,11.58,11.58,0,0,0,3.82-1.41,7.53,7.53,0,0,0,2.8-2.63,3.49,3.49,0,0,0,.15-3.63.11.11,0,0,0-.2.08,5.38,5.38,0,0,1,.22,1.69,3.59,3.59,0,0,1-.52,1.49,7.71,7.71,0,0,1-2.67,2.47,11,11,0,0,1-3.64,1.35,45.49,45.49,0,0,1-4.94.54c-1.74.12-3.48.19-5.22.26a.21.21,0,0,0,0,.42Z"/><path d="M107.8,127.81a53.26,53.26,0,0,0,8.84.28c3.11-.09,6.22-.26,9.33-.4.77,0,1.54-.06,2.32-.07.41,0,.82,0,1.24,0a2.57,2.57,0,0,0,1.39-.32c.1-.08.08-.27-.08-.26-.42,0-.84.08-1.26.08l-1.18,0c-.67,0-1.34,0-2,0-1.49,0-3,.11-4.47.19-3.11.17-6.22.36-9.34.35a39.08,39.08,0,0,1-4.72-.27c-.25,0-.32.4-.06.44Z"/><path d="M124,122.06a18.55,18.55,0,0,1,4.58-.45,6.19,6.19,0,0,1,2.18.35,2.52,2.52,0,0,1,1.33,1.73,3.23,3.23,0,0,1-.56,3,.13.13,0,0,0,.18.18,3,3,0,0,0,.95-2.62,3.48,3.48,0,0,0-1.24-2.42,4.16,4.16,0,0,0-2.1-.6,14.56,14.56,0,0,0-2.8.06,18,18,0,0,0-2.62.46.19.19,0,0,0,.1.36Z"/><path d="M134.46,104.7c2.66,0,5.32.06,8,0,3,0,6-.11,9-.16l4.16-.06a.06.06,0,1,0,0-.12c-2.66,0-5.32-.06-8-.13-3-.07-6-.1-9-.08l-4.17,0a.24.24,0,0,0,0,.48Z"/><path d="M135,108.16c1.38-.14,2.76-.23,4.16-.24s2.52,0,3.78,0c2.46,0,4.92.12,7.38.1.74,0,1.47,0,2.2,0l1.21,0,.56,0a2,2,0,0,1,.73,0c.45.17.46-.75-.06-.49a1.68,1.68,0,0,1-.67.05l-.45,0-1.1,0q-1,0-2,0c-1.25,0-2.51,0-3.77-.07-2.43-.08-4.86-.18-7.29-.2-1.56,0-3.11,0-4.67,0-.61,0-.59,1,0,.91Z"/><path d="M155.29,104.58c.08,1-.13,2.07.05,3.09,0,.2.37.15.37,0,0-1,.13-2,0-3,0-.29-.49-.29-.46,0Z"/><path d="M153.48,108.33a5.75,5.75,0,0,1,.19,1.8c0,.6,0,1.2,0,1.81,0,1.19,0,2.38-.06,3.57s-.06,2.39-.07,3.58v1.8c0,.31,0,.61,0,.91s0,.3,0,.45a2.89,2.89,0,0,1,0,.5c-.06.43.59.4.5,0a5,5,0,0,1,0-1c0-.3,0-.6,0-.91v-1.8c0-1.19,0-2.38.07-3.58s.05-2.38.07-3.57c0-.61,0-1.21,0-1.81a7.21,7.21,0,0,1,.1-1.8c.22-.77-1.14-.7-.89,0Z"/><path d="M133.6,123.36H153a2.14,2.14,0,0,1,.62,0,.32.32,0,0,1-.09.62h0c-.11,0-.21,0-.32,0H135.94c-.93,0-1.86,0-2.79,0a.39.39,0,0,1-.37-.14c-.18-.23-.59,0-.41.23s.63.37,1,.37H151c.81,0,1.63,0,2.44,0a.8.8,0,0,0,.8-.91.82.82,0,0,0-.81-.64H133.6a.22.22,0,0,0,0,.45Z"/><path d="M134.18,104.41a1.05,1.05,0,0,0-.28.53,3.85,3.85,0,0,0-.11.83,3.6,3.6,0,0,0,.23,1.69.62.62,0,0,0,.61.41c.15,0,.29-.21.14-.33l0,0s0,0,0,0-.05-.08-.07-.13a.91.91,0,0,1-.07-.14c0,.07,0,0,0,0l0-.1a3.79,3.79,0,0,1-.15-.86,5,5,0,0,1,0-.95s0-.05,0-.06a.43.43,0,0,1,0-.11l0-.16,0-.08c0-.07,0,0,0,0l0-.06s0,0,0,0a.25.25,0,0,0-.36-.35Z"/><path d="M108.89,127.91a8.79,8.79,0,0,1,1.37,3,6.7,6.7,0,0,1,.3,1.76,3.91,3.91,0,0,1,0,.84,3.47,3.47,0,0,0-.1.71.08.08,0,0,0,.12.06c.43-.26.5-1,.52-1.46a7.39,7.39,0,0,0-.23-1.93,8.58,8.58,0,0,0-1.58-3.29c-.16-.2-.51.06-.36.27Z"/><path d="M110.16,134.54a2.22,2.22,0,0,1-.14.32,5.42,5.42,0,0,1-.26.48,9.9,9.9,0,0,1-.72,1.1,6,6,0,0,1-.85,1,1.89,1.89,0,0,1-.8.5c-.25.05-.19.43.06.43a2.3,2.3,0,0,0,1.58-1,9.79,9.79,0,0,0,1.27-1.85,4.83,4.83,0,0,0,.37-.8c.11-.32-.4-.45-.51-.14Z"/><path d="M118.22,135.74a16.14,16.14,0,0,1,9.59-7.13,13.73,13.73,0,0,1,6.21-.27,9.21,9.21,0,0,1,5.36,3.13,8.66,8.66,0,0,1,1.53,6.76.22.22,0,0,0,.43.11,6.35,6.35,0,0,0,.3-3.32,8.63,8.63,0,0,0-1.11-3.18,9.35,9.35,0,0,0-5.27-3.94c-4.19-1.31-9-.13-12.57,2.26a16,16,0,0,0-4.92,5.32.26.26,0,0,0,.45.26Z"/><path d="M89.52,130.62c.66,1.36,1.41,2.68,2.16,4,.42.74.85,1.48,1.28,2.22A15.09,15.09,0,0,0,94.32,139c.12.15.38,0,.32-.18a14.44,14.44,0,0,0-1.17-2.28l-1.29-2.21c-.76-1.3-1.53-2.61-2.21-4-.15-.29-.59,0-.45.25Z"/><path d="M101.41,135.71v0a.67.67,0,0,1,0,.2v-.06a0,0,0,0,1,0,0l0-.06v0l0-.05h0l0,0h0l0,0a.31.31,0,0,0-.17.13.47.47,0,0,0-.06.2.44.44,0,0,0,0,.16.47.47,0,0,0,0,.1.21.21,0,0,0,.2.13.17.17,0,0,0,.1,0,.23.23,0,0,0,.09-.08.27.27,0,0,0,0-.12v-.06a.5.5,0,0,0,0-.12v0s0,0,0,0l0,.05h0l0,.05h0l-.05,0,0,0a.31.31,0,0,0,.13-.17.91.91,0,0,0,0-.4.22.22,0,0,0-.4-.05l0,.05a.24.24,0,0,0,0,.12Z"/><path d="M101.42,136.1c-.63.27-1.26.51-1.91.72l-1,.31a.93.93,0,0,0-.68.55,2.44,2.44,0,0,0,.08,1c.07.4.24.93.73,1a.17.17,0,0,0,.12-.29,1.4,1.4,0,0,1-.35-.82c0-.12,0-.25,0-.38a.4.4,0,0,1,.13-.34.58.58,0,0,1,.24-.11l.44-.12c.28-.09.57-.19.84-.3.57-.22,1.12-.46,1.66-.73.32-.16,0-.62-.28-.47Z"/><path d="M98.74,139.66l4.38-.24c.73,0,1.45-.09,2.18-.16.36,0,.72-.08,1.08-.13s.69,0,.88-.25a.13.13,0,0,0,0-.18,1.3,1.3,0,0,0-.83-.11c-.36,0-.72,0-1.08,0-.74,0-1.48.11-2.23.17-1.46.13-2.92.27-4.38.43-.28,0-.29.46,0,.44Z"/><path d="M107,137a5.78,5.78,0,0,1,0,.93v0s0,.07,0,0,0,0,0,0V138l0,.2a1.72,1.72,0,0,0,0,.64.24.24,0,0,0,.23.17.25.25,0,0,0,.24-.17,2.22,2.22,0,0,0,.12-.58c0-.13,0-.26.05-.38a7.22,7.22,0,0,0,0-.93.29.29,0,0,0-.28-.27.28.28,0,0,0-.28.27Z"/><path d="M101.73,135.86l.66-.14.08,0h0s0,0,0,0h0l0,0s0,0,0,0v0c0,.06,0,0,0,0v1.14a.84.84,0,0,0,.06.39.22.22,0,0,0,.37,0,.9.9,0,0,0,.06-.43V136c0-.12,0-.24,0-.36a.5.5,0,0,0-.15-.34.48.48,0,0,0-.43-.09c-.26,0-.51.1-.76.15a.25.25,0,0,0-.18.31.26.26,0,0,0,.31.17Z"/><path d="M102.88,137.35c.77,0,1.53,0,2.3,0h1c.21,0,.41,0,.62,0a.76.76,0,0,0,.51-.14.14.14,0,0,0,0-.17.83.83,0,0,0-.51-.15l-.62,0h-1c-.77,0-1.53,0-2.3,0a.23.23,0,0,0,0,.45Z"/><path d="M139.17,138.82a8.11,8.11,0,0,1-4,8.09,10,10,0,0,1-9.38.93,8,8,0,0,1-4.62-5,.29.29,0,0,0-.55.15,8.27,8.27,0,0,0,4.1,4.93,9.63,9.63,0,0,0,5.26,1.25,11,11,0,0,0,8.64-4.93,8,8,0,0,0,1.07-5.57c-.06-.35-.61-.2-.55.15Z"/><path d="M66.4,137a9.91,9.91,0,0,0,4.29,10.7,10.48,10.48,0,0,0,6.21,1.7,10.74,10.74,0,0,0,5.92-2.18,10.23,10.23,0,0,0,2.57-2.72,11.84,11.84,0,0,0,1.51-3.89c.07-.35-.48-.5-.55-.15a11.86,11.86,0,0,1-1.21,3.36,9.51,9.51,0,0,1-2,2.45,10.49,10.49,0,0,1-5.47,2.51,10,10,0,0,1-10-5.29,8.74,8.74,0,0,1-.7-6.34.29.29,0,0,0-.55-.15Z"/><path d="M85.46,119.05c-1,1-2.1,1.92-3.09,3a11.22,11.22,0,0,0-2.63,3.71,2.33,2.33,0,0,0,0,1.85c.12.26.56.07.47-.2-.36-1.08.49-2.29,1.1-3.12a26,26,0,0,1,3.09-3.37l1.51-1.39c.29-.27-.15-.7-.44-.43Z"/><path d="M80.74,129.23a14.18,14.18,0,0,0-8.36-1.61,9.54,9.54,0,0,0-6.57,4.06,7.74,7.74,0,0,0-1.31,3.54c-.06.61-.13,1.38.43,1.78a4.85,4.85,0,0,0,2,.51c3.11.53,6.23,1,9.35,1.5,3.44.53,6.87,1.14,10.32,1.65.39.06.57-.52.17-.59-2.89-.52-5.8-.94-8.7-1.41s-5.93-1-8.9-1.45L67,136.87l-.94-.15c-.27-.05-.67-.07-.84-.32a1.48,1.48,0,0,1-.07-.93,5.56,5.56,0,0,1,.14-.91,7.16,7.16,0,0,1,.63-1.69,8.79,8.79,0,0,1,5.67-4.34,12.28,12.28,0,0,1,4.44-.11,14.13,14.13,0,0,1,4.43,1.29c.32.16.6-.3.28-.48Z"/><path d="M79.89,127.94c2.08,3.74,4,7.56,6,11.33.28.52.56,1,.85,1.54.14.25.27.5.42.74a1.5,1.5,0,0,0,.55.62A.18.18,0,0,0,88,142c.05-.46-.34-1-.55-1.37l-.74-1.36-1.54-2.8q-1.56-2.85-3.15-5.67c-.58-1-1.15-2.08-1.73-3.11-.14-.25-.52,0-.39.22Z"/><path d="M135.23,107.94q-.3,5.9-.26,11.8l0,1.66a4.74,4.74,0,0,0,.14,1.64.18.18,0,0,0,.33,0,4.21,4.21,0,0,0,.08-1.42c0-.49,0-1,0-1.48,0-1,0-2,0-3,0-2,.05-3.92.11-5.88q.06-1.68.15-3.36c0-.35-.54-.35-.56,0Z"/><path d="M132.78,123.78c-.58,0-.58-.53-.58-.93V105.46c0-.74,0-1.49,0-2.22a.59.59,0,0,1,1.17,0v17.23c0,.9,0,1.79,0,2.68a.61.61,0,0,1-.59.63.23.23,0,0,0,0,.46,1.08,1.08,0,0,0,1.06-1V103.65a1.5,1.5,0,0,0-.26-1.09,1.08,1.08,0,0,0-1.65.07,1.13,1.13,0,0,0-.2.68c0,.34,0,.69,0,1v16.41c0,.82,0,1.64,0,2.45a1.06,1.06,0,0,0,1.05,1A.23.23,0,0,0,132.78,123.78Z"/><path d="M105,105.75c-.07.83-.22,1.64-.37,2.46-.08.39-.16.79-.23,1.18a3.72,3.72,0,0,0-.13,1.24c0,.16.27.28.36.09a4.28,4.28,0,0,0,.35-1.17c.08-.43.16-.85.23-1.28a21.36,21.36,0,0,0,.29-2.52c0-.32-.48-.32-.5,0Z"/><path d="M107.4,114.16a12,12,0,0,1-1-1.93l0-.08s0,.08,0,.07l-.07,0s0,0,0,0h0l.07,0,0,0,.1.05.21.14a4.82,4.82,0,0,1,.73.61,9.57,9.57,0,0,1,.77.79c.15.17.4,0,.31-.23a3.58,3.58,0,0,0-.68-1A5.43,5.43,0,0,0,107,112c-.29-.19-.78-.47-1-.09-.15.22,0,.46.07.67s.18.38.29.57a11.74,11.74,0,0,0,.75,1.22c.15.21.49,0,.36-.2Z"/><path d="M107.25,112.1a10.54,10.54,0,0,0,1.25.36,7.08,7.08,0,0,0,1.3.14c.17,0,.22-.28,0-.31-.42-.06-.84-.15-1.25-.23a8.67,8.67,0,0,1-1.23-.36.21.21,0,0,0-.26.14.22.22,0,0,0,.15.26Z"/><path d="M86.1,119.23a3.07,3.07,0,0,1,2.77-.73,3.22,3.22,0,0,1,2.06,1,.67.67,0,0,1,.08.39c0,.33-.07.67-.11,1-.08.64-.17,1.28-.27,1.93-.18,1.21-.37,2.41-.56,3.62a26.68,26.68,0,0,0-.47,4,.17.17,0,0,0,.33.05c.29-1.3.44-2.64.66-4s.47-2.65.66-4c.09-.68.18-1.36.26-2a1.81,1.81,0,0,0-.17-1.37,3.9,3.9,0,0,0-2.28-1.24,3.56,3.56,0,0,0-3.38.89c-.26.26.15.66.42.4Z"/><path d="M88.84,113.93a5.14,5.14,0,0,0,.08,1.3,1.12,1.12,0,0,0,.36.61.53.53,0,0,0,.41.14.8.8,0,0,0,.45-.19.26.26,0,0,0,0-.39.27.27,0,0,0-.39.08s0,0,0,0h0s0,0,0,0,0,0,0,0h0l0,0s0,0,0,0,0,0,0,0l0,0s0,0,0,0l-.08-.13h0v-.08a.86.86,0,0,1,0-.23v0s0,0,0,0a.19.19,0,0,1,0-.08s0-.09,0-.13,0-.2,0-.29a4.17,4.17,0,0,1,0-.5.25.25,0,0,0-.25-.24.24.24,0,0,0-.24.24Z"/><path d="M92,115.71a2.12,2.12,0,0,0,.71-.06l.35-.14a.72.72,0,0,0,.3-.27.18.18,0,0,0-.2-.27.56.56,0,0,0-.18.07h0l-.07,0-.07,0-.14.07h0l0,0c-.06,0-.07,0,0,0l0,0a1.77,1.77,0,0,1-.31.08l-.08,0s0,0,0,0H92a.18.18,0,0,0-.19.18.19.19,0,0,0,.19.19Z"/><path d="M93,115.61l1.42.41.71.2a1.59,1.59,0,0,0,.74.11l-.18,0,.1,0a.27.27,0,0,0,.39-.15.27.27,0,0,0-.26-.33h-.11L96,116a1.56,1.56,0,0,0-.7-.26l-.71-.18-1.44-.34a.23.23,0,0,0-.13.44Z"/><path d="M95.83,116.23v0s0-.08,0,0a.14.14,0,0,1,0,.07.43.43,0,0,0,0,.25c.08.28.48.31.72.34a5,5,0,0,0,1,0,.15.15,0,0,0,0-.29l-.51-.09h-.15l-.17,0-.12,0s0,0,0,0l-.13,0-.17,0h0l-.05,0s.05,0,0,0,0,.07,0,0,0,.07,0,0,0,0,0,0v0s0,.08,0,0v0a.85.85,0,0,0,0-.22.26.26,0,0,0-.24-.24.25.25,0,0,0-.24.24Z"/><path d="M90.25,109a5.39,5.39,0,0,0-2.08,0l-2.66.3-.66.07c-.3,0-.3.49,0,.46l4.19-.47a2.81,2.81,0,0,1,1.08,0c.29.07.42-.37.13-.44Z"/><path d="M93.17,111.79a6.59,6.59,0,0,0-1.93-2.36.24.24,0,0,0-.32.09.22.22,0,0,0,.09.31,5.88,5.88,0,0,1,1.75,2.2c.14.26.54,0,.41-.24Z"/><path d="M82.91,117.09c1,.28,1.94.51,2.9.82a4.11,4.11,0,0,1,.84.34c.18.1.3.25.52.23.56,0,1.12-.11,1.67-.16a6.64,6.64,0,0,0,2.2-.45,4.53,4.53,0,0,0,2.34-2.49c.11-.28-.34-.4-.45-.13a4,4,0,0,1-1.58,1.93,4.52,4.52,0,0,1-2.24.65c-.68,0-1.36.14-2,.2l.16.07a4.23,4.23,0,0,0-1.49-.69c-.9-.27-1.82-.5-2.72-.76a.23.23,0,0,0-.12.44Z"/><path d="M80.38,126a123.22,123.22,0,0,0,5.91,11.77c.68,1.19,1.36,2.37,2.07,3.54a.18.18,0,0,0,.31-.18c-1.12-2-2.28-4-3.39-6-1-1.83-1.92-3.69-2.84-5.57-.6-1.22-1.18-2.45-1.75-3.69-.09-.21-.4,0-.31.17Z"/><path d="M82.55,129.36c1.1.28,2.2.53,3.31.76a18.58,18.58,0,0,0,3.3.52.13.13,0,0,0,0-.25,22.67,22.67,0,0,0-3.27-.71c-1.09-.22-2.19-.45-3.27-.71a.2.2,0,0,0-.11.39Z"/><path d="M84.36,113.86a3.53,3.53,0,0,1-.81,2.61c-.65.56-1-.33-1.13-.84a9,9,0,0,1-.07-3.07c.06-.44.26-1.79,1-1.43a1.64,1.64,0,0,1,.7,1,5.06,5.06,0,0,1,.29,1.77c0,.25.41.26.41,0,0-1-.17-2.38-1.06-3a.9.9,0,0,0-1-.08,1.6,1.6,0,0,0-.63,1,7.86,7.86,0,0,0-.22,1.81,10.48,10.48,0,0,0,.12,1.94c.12.69.53,1.79,1.46,1.45a1.77,1.77,0,0,0,.93-1.06,5.25,5.25,0,0,0,.39-2.07A.21.21,0,0,0,84.36,113.86Z"/><path d="M82.85,111.13c-.09,0,0,0,0,0l.11.09a1,1,0,0,1,.2.21,2.53,2.53,0,0,1,.33.63,5.52,5.52,0,0,1,0,3.5,2.62,2.62,0,0,1-.32.65,2.39,2.39,0,0,1-.22.23.31.31,0,0,1-.09.07s-.14,0,0,0a.2.2,0,0,0,0,.4c.18,0,.4-.22.51-.34a2.44,2.44,0,0,0,.43-.68,5.11,5.11,0,0,0,.4-2.11,5.24,5.24,0,0,0-.38-2.07,2.77,2.77,0,0,0-.42-.7c-.12-.13-.35-.36-.54-.36a.2.2,0,0,0,0,.4Z"/><path d="M83.61,110.7l-1-.22a10.11,10.11,0,0,1-1.34-.34s0,0,0,0,.15.07.09.18,0-.1,0-.13a.49.49,0,0,1,.31-.33,1.14,1.14,0,0,1,.37,0h2.59a.23.23,0,0,0,0-.46H82a1.25,1.25,0,0,0-.57.1.93.93,0,0,0-.43.4.72.72,0,0,0-.11.51c0,.18.29.23.45.27l.77.19c.46.11.91.21,1.37.3.3.06.42-.38.13-.44Z"/><path d="M92.07,114.63a1.07,1.07,0,0,1-.71,1,1.11,1.11,0,0,1-1.21-.33,1.06,1.06,0,0,1-.09-1.2,1.1,1.1,0,0,1,1.12-.5,1.08,1.08,0,0,1,.89,1,.23.23,0,0,0,.46,0,1.53,1.53,0,0,0-1-1.42,1.59,1.59,0,0,0-1.72.45,1.49,1.49,0,0,0-.14,1.74,1.58,1.58,0,0,0,1.62.72,1.54,1.54,0,0,0,1.25-1.49C92.54,114.34,92.07,114.34,92.07,114.63Z"/><path d="M95.2,112l.08,0s0,0,0,0l0,0h.08s0,0,0,0h.11s0,0,0,0h.11l0,0s0,0,0,0,0,0,.06,0l0,0s0,0,0,0h0l0,0,0,.05h0s0,0,0,0,0,0,0,.06l.06,0a.31.31,0,0,0,.16.11.17.17,0,0,0,.17-.07.31.31,0,0,0,0-.25.5.5,0,0,0-.13-.22,1,1,0,0,0-.36-.23.83.83,0,0,0-.82.19c-.14.12,0,.35.2.25Z"/><path d="M81.14,139.51a4.61,4.61,0,0,1-3.51,4.55,4.9,4.9,0,0,1-5.47-2.25,4.46,4.46,0,0,1-.24-3.79c.11-.28-.35-.4-.45-.13a5,5,0,0,0,2.41,6.19A5.45,5.45,0,0,0,80.29,143a4.85,4.85,0,0,0,1.32-3.49c0-.3-.48-.3-.47,0Z"/><path d="M106.83,135.23a7.5,7.5,0,0,0-.15.93c0,.15,0,.3,0,.45s0,.39.11.51a.22.22,0,0,0,.3,0c.14-.13.11-.34.11-.51s0-.29,0-.43c0-.3,0-.6,0-.89s-.35-.28-.39-.06Z"/><path d="M140.27,129.22a2.77,2.77,0,0,1,3,1.91,2.54,2.54,0,0,1-.25,1.75,3,3,0,0,1-.55.73c-.21.19-.56.34-.66.62a.21.21,0,0,0,.14.24c.35.12.77-.23,1-.44a3.3,3.3,0,0,0,.7-.92,3.16,3.16,0,0,0,.22-2.22,3.09,3.09,0,0,0-1.43-1.75,3,3,0,0,0-2.26-.32c-.27.06-.15.43.11.4Z"/><path d="M140.8,129.29l.17,2c0,.33.05.66.09,1l.05.49a1.07,1.07,0,0,0,.1.47c.06.08.22.11.27,0a.75.75,0,0,0,0-.47l0-.46c0-.34-.07-.69-.11-1l-.22-2c0-.2-.35-.21-.34,0Z"/><path d="M122.69,135.63c1.72-.39,3.45-.76,5.17-1.1l2.59-.52a13.06,13.06,0,0,0,2.5-.62c.2-.09.07-.36-.11-.38a11.33,11.33,0,0,0-2.59.26c-.87.14-1.74.31-2.6.49-1.73.35-3.44.75-5.15,1.18a.36.36,0,0,0,.19.69Z"/><path d="M123.51,137.67c1.7-.2,3.39-.54,5.07-.86.84-.15,1.67-.32,2.51-.48a14.49,14.49,0,0,0,2.51-.66.12.12,0,0,0,0-.24,12.24,12.24,0,0,0-2.49.19l-2.59.4c-1.69.29-3.4.58-5.06,1-.34.09-.29.68.09.63Z"/><path d="M109.36,141.41c2,.22,4,.56,5.91.87,2.2.34,4.4.67,6.6,1s4.44.55,6.68.68c1,.06,2.06.1,3.08.08a9,9,0,0,0,3.28-.39,2.71,2.71,0,0,0,1.56-1.6,2.86,2.86,0,0,0-.83-2.87c-.13-.15-.41.05-.28.22a2.53,2.53,0,0,1,.57,2.56,2.3,2.3,0,0,1-1.44,1.27,10.46,10.46,0,0,1-3.11.27c-1,0-2,0-3-.09-4.26-.26-8.46-1-12.68-1.58-2.1-.29-4.21-.57-6.33-.76-.25,0-.24.35,0,.38Z"/><path d="M127.27,144a5.08,5.08,0,0,0,3.61,1.34,4.77,4.77,0,0,0,1.82-.44,3.52,3.52,0,0,0,1.55-1.16.19.19,0,0,0-.26-.25,12.34,12.34,0,0,1-1.41.94,5,5,0,0,1-1.7.44,4.8,4.8,0,0,1-3.38-1.09c-.16-.13-.38.08-.23.22Z"/><path d="M109.67,100.08a12,12,0,0,0,1.12-.74c.19-.13.38-.25.56-.39a5.36,5.36,0,0,1,.55-.38l-.34-.19a2.75,2.75,0,0,0,.13.81,5.36,5.36,0,0,1,.18.77.17.17,0,0,0,.34,0,2.82,2.82,0,0,0-.07-.82,3.9,3.9,0,0,1-.13-.76.22.22,0,0,0-.34-.19c-.2.11-.39.21-.58.33a5.75,5.75,0,0,0-.56.41,11.23,11.23,0,0,1-1.09.76.23.23,0,0,0,.23.39Z"/><path d="M107.7,118.62c0,.11-.12.2-.13.34a.83.83,0,0,0,.19.49.82.82,0,0,0,.51.34,1.14,1.14,0,0,0,.68-.09,3.63,3.63,0,0,0,.66-.31c.11-.07.22-.16.18-.31s-.22-.15-.34-.12a6.56,6.56,0,0,0-.67.3.9.9,0,0,1-.28.08h-.16l0,0A.63.63,0,0,1,108,119s0,0,0,0,0,0,0,0,0,0,0,0a.58.58,0,0,0,.05-.29c0-.21-.34-.22-.34,0Z"/><path d="M108.26,127.87c.2,1.28.33,2.56.43,3.84,0,.62.08,1.24.1,1.85,0,.17,0,.34,0,.51s0,.38,0,.45-.33,0-.4,0a2.92,2.92,0,0,1-.51,0c-.29,0-.42.37-.12.45s1.46.21,1.52-.42a10.28,10.28,0,0,0,0-1.11c0-.39,0-.78-.06-1.18a36,36,0,0,0-.6-4.5c0-.24-.4-.13-.36.1Z"/><path d="M107.86,134.81a7.3,7.3,0,0,0,0,.81,3.11,3.11,0,0,0,0,.43c0,.13.06.32.2.38a.15.15,0,0,0,.19,0c.12-.1.11-.29.1-.43s0-.25,0-.38a6.91,6.91,0,0,1,0-.79.23.23,0,0,0-.23-.23.24.24,0,0,0-.24.23Z"/><path d="M107.46,137a3.38,3.38,0,0,0,.63-.14,1.3,1.3,0,0,0,.3-.13.76.76,0,0,0,.27-.2l-.33-.08c0,.11,0,.23,0,.35l0,.17a.56.56,0,0,0,.07.18.16.16,0,0,0,.29,0,.4.4,0,0,0,0-.19l0-.17c0-.12,0-.24,0-.36a.2.2,0,0,0-.25-.18h-.08l-.06,0h0l-.13.05a2.67,2.67,0,0,0-.26.09,3.27,3.27,0,0,1-.54.13.22.22,0,0,0-.15.11.21.21,0,0,0,0,.15.25.25,0,0,0,.24.22Z"/><path d="M110.06,130.28a7.65,7.65,0,0,1,.24,2.78,18.17,18.17,0,0,1-.58,2.71c0,.13.16.27.26.14,1.26-1.59,1.12-3.93.42-5.72-.07-.21-.4-.13-.34.09Z"/><path d="M114.25,119.92a6.78,6.78,0,0,0,.78,1.19,3.55,3.55,0,0,0,1.08.92.11.11,0,0,0,.13-.17c-.31-.33-.66-.63-1-1a6,6,0,0,1-.77-1.11c-.09-.17-.34,0-.26.14Z"/><path d="M118,119.94a7.2,7.2,0,0,1-3.76,2.66,36.54,36.54,0,0,1-5.31,1.72,23.35,23.35,0,0,1-3.33.44.11.11,0,1,0,0,.22,19.45,19.45,0,0,0,5.94-1.11,19.22,19.22,0,0,0,4.9-1.92,5.55,5.55,0,0,0,1.81-1.86.15.15,0,0,0-.25-.15Z"/><path d="M105.32,125.22a40.55,40.55,0,0,1,.69,5c.06.81.09,1.63.1,2.44,0,.41,0,.82,0,1.23a7.34,7.34,0,0,0,0,1.24c0,.08.13.07.15,0a5.22,5.22,0,0,0,.08-1.19c0-.42,0-.85,0-1.28q0-1.27-.09-2.55a36.14,36.14,0,0,0-.68-5c0-.15-.25-.09-.22.06Z"/><path d="M103.73,111.1s0,0,0,0,0,0,0,0,0,0,0,0h0s0,0,0,0a.14.14,0,0,1,0-.06.08.08,0,0,1,0,0h0v-.07s0-.06,0,0v0a.14.14,0,0,0,0-.06s0,0,0,0a0,0,0,0,0,0,0l0,0,0,0s0,0,0,0a.12.12,0,0,1,.06-.06h0l0,0,0,0h.06s0,0,0,0H104s.06,0,.08,0l.09,0s0,0,0,0l0,0,.08,0h0l.07,0a.14.14,0,0,0,.15,0,.13.13,0,0,0,.05-.14.51.51,0,0,0-.1-.21.71.71,0,0,0-.18-.12.72.72,0,0,0-.48,0,.68.68,0,0,0-.49.67.67.67,0,0,0,.19.47.19.19,0,0,0,.28,0,.2.2,0,0,0,0-.27Z"/><path d="M104.51,110.9a3.7,3.7,0,0,0,.55.49l.29.2a.86.86,0,0,0,.37.13.14.14,0,0,0,.16-.06.14.14,0,0,0,0-.18,1.49,1.49,0,0,0-.14-.12l-.16-.09a2.9,2.9,0,0,1-.29-.19l0,0,0,0h0l0,0-.13-.11-.26-.25a.18.18,0,0,0-.26.26Z"/><path d="M89.15,85.62a9.69,9.69,0,0,0,.51,3.25c.17.56.37,1.11.59,1.66A5,5,0,0,0,91,92.11.17.17,0,0,0,91.3,92a5.74,5.74,0,0,0-.58-1.54c-.23-.55-.44-1.09-.63-1.65a10,10,0,0,1-.59-3.19.18.18,0,0,0-.35,0Z"/><path d="M84.37,77.31c5.36,1.82,10.6,4,16.09,5.46,1.64.43,3.31.8,5,1.11.37.07.52-.47.16-.54a77.33,77.33,0,0,1-8.46-2.21c-2.61-.83-5.2-1.76-7.79-2.67q-2.41-.85-4.84-1.64c-.33-.11-.46.39-.14.49Z"/><path d="M84.56,76.7v0c0,.06,0,0,0,0s0,0,0,0a.89.89,0,0,1,.25-.16,3.33,3.33,0,0,1,.92-.26,10.74,10.74,0,0,1,1.12-.15A7.35,7.35,0,0,0,88,75.94c.22-.06.24-.41,0-.45a4.49,4.49,0,0,0-1.32,0,12.21,12.21,0,0,0-1.32.24c-.51.13-1.44.39-1.31,1.08.06.31.52.17.48-.13Z"/><path d="M103.39,92.24c.64-.33,1.3-.62,2-.93a10.77,10.77,0,0,0,1.76-1c.12-.09.41-.35.14-.47a.17.17,0,0,0-.18.29c-.08-.09-.09-.17,0-.23h0s0,0,0,0l-.13.07-.38.17c-.38.16-.75.34-1.12.52-.75.37-1.52.71-2.25,1.1-.29.15,0,.58.26.43Z"/><path d="M103.06,92.38a13.79,13.79,0,0,0,1.3,3.68,6.64,6.64,0,0,0,1,1.51,1.72,1.72,0,0,0,1.12.68.18.18,0,0,0,.09-.33,5.6,5.6,0,0,1-1.83-2.26,13,13,0,0,1-1.27-3.4c-.06-.27-.47-.15-.42.12Z"/><path d="M105.38,98.33c-.51.4-1,.8-1.52,1.24a.13.13,0,0,0,0,.18.13.13,0,0,0,.19,0c.51-.4,1-.86,1.44-1.31.08-.07,0-.17-.11-.11Z"/><path d="M87.66,76c4.5,2,9,4.07,13.57,5.77.67.25,1.34.48,2,.69a15.09,15.09,0,0,0,2.3.65c.08,0,.14-.1.06-.14a18.3,18.3,0,0,0-1.86-.72l-1.84-.69c-1.12-.42-2.23-.85-3.34-1.31-2.2-.91-4.37-1.91-6.56-2.87-1.37-.6-2.73-1.2-4.11-1.79-.28-.12-.53.28-.24.41Z"/><path d="M90.26,90.32a7.16,7.16,0,0,1,.32,1.29,2,2,0,0,1,.09.59c0,.21.56.54.53.76s.13.15.24.05c.37-.36-.32-1-.4-1.41a5.09,5.09,0,0,0-.52-1.39.14.14,0,0,0-.26.11Z"/><path d="M103.38,101.58a14.49,14.49,0,0,0,1.85-1.23l.94-.7A6.4,6.4,0,0,0,107,99c.09-.1,0-.3-.15-.24a3.81,3.81,0,0,0-.89.53c-.32.23-.62.47-.93.71a14.48,14.48,0,0,1-1.83,1.26c-.23.13,0,.47.21.35Z"/><path d="M103.58,101.59c.16.09.31.19.46.29s-.06,0,0,0l0,0,.08.07.16.15.06.08,0,0c0,.06,0,0,0,0l.16.2,0,0s-.05-.06,0,0l.1.12.14.16a.24.24,0,0,0,.29,0,.23.23,0,0,0,.11-.26c-.06-.15-.12-.29-.19-.43a2.82,2.82,0,0,0-.29-.39,3.48,3.48,0,0,0-.88-.64.32.32,0,0,0-.43.11.3.3,0,0,0,.12.41Z"/><path d="M88.31,75.93a18,18,0,0,1,8-8.92,20.69,20.69,0,0,1,12.15-2.67A18.53,18.53,0,0,1,120.25,70a16.67,16.67,0,0,1,4.12,10.13,17.55,17.55,0,0,1-.53,5.54,15,15,0,0,1-2.25,5,11.7,11.7,0,0,1-.9,1.08c-.13.15.09.37.23.22a15,15,0,0,0,3.06-4.8,16.19,16.19,0,0,0,1-5.64,17.83,17.83,0,0,0-3.38-10.92A18.26,18.26,0,0,0,110.35,64,21.18,21.18,0,0,0,97.4,65.76a18,18,0,0,0-9,8.61,12.64,12.64,0,0,0-.54,1.45c-.08.25.3.35.4.11Z"/><path d="M105.43,83.35a52.58,52.58,0,0,1,1.5,8.18c.14,1.29.25,2.59.52,3.87a10.57,10.57,0,0,0,.55,1.9,1.34,1.34,0,0,0,1.07,1,2.14,2.14,0,0,0,.93-.18c.34-.11.68-.24,1-.38a13,13,0,0,0,2-1.09s0-.1,0-.08a18,18,0,0,1-3.52,1.11.6.6,0,0,1-.7-.2,3.32,3.32,0,0,1-.32-.75,13.93,13.93,0,0,1-.45-1.8c-.23-1.22-.32-2.47-.47-3.71s-.35-2.5-.59-3.74c-.28-1.43-.63-2.85-1-4.25a.24.24,0,0,0-.47.13Z"/><path d="M114.12,96.24c.59-.24,1.18-.48,1.75-.76s1.18-.64,1.74-1a16,16,0,0,0,3.1-2.36c.13-.14,0-.39-.21-.27-1.07.7-2.07,1.49-3.16,2.17s-2.21,1.33-3.35,1.9c-.17.08,0,.38.13.31Z"/><path d="M106.74,98.3a7.15,7.15,0,0,0,.73-.49,3.79,3.79,0,0,0,.4-.3l.31-.25c.09-.07,0-.23-.12-.19a3.08,3.08,0,0,0-.78.42,8.46,8.46,0,0,1-.73.49c-.22.11,0,.43.19.32Z"/><path d="M107,98.93l.78-.56c.13-.09.26-.2.39-.3a1.23,1.23,0,0,0,.33-.35c0-.08,0-.17-.12-.16a1.56,1.56,0,0,0-.43.21l-.39.27-.76.57a.19.19,0,1,0,.2.32Z"/><path d="M87.81,78.33a15,15,0,0,0-1.92,4.74,6.54,6.54,0,0,0,.92,5,.2.2,0,0,0,.35-.2,7.77,7.77,0,0,1-.67-4.81,15.31,15.31,0,0,1,1.78-4.45.27.27,0,0,0-.46-.27Z"/><path d="M88,86.52a19.27,19.27,0,0,0,0-2,.23.23,0,0,0-.45,0,3.7,3.7,0,0,0,2,3.54.15.15,0,1,0,.16-.26A3.84,3.84,0,0,1,88,84.51H87.5a16.81,16.81,0,0,1,.09,2c0,.25.4.25.41,0Z"/><path d="M89.16,81.89a6.48,6.48,0,0,0,3.11,5.32c.19.1.44-.17.25-.32a8.59,8.59,0,0,1-2-2.16,6.23,6.23,0,0,1-.92-2.84c0-.24-.4-.24-.39,0Z"/><path d="M89.67,86a5.64,5.64,0,0,0,1,.74,5.21,5.21,0,0,0,.52.28,2.39,2.39,0,0,0,.59.19c.13,0,.23-.16.09-.23l-.5-.27c-.17-.09-.34-.18-.5-.28a4.93,4.93,0,0,1-.89-.69.18.18,0,0,0-.26.26Z"/><path d="M92.7,82.24a12.2,12.2,0,0,0,3.68,3.82,9.9,9.9,0,0,0,5,1.73.17.17,0,0,0,0-.34,15.34,15.34,0,0,1-4.76-1.84A11.25,11.25,0,0,1,93.1,82c-.15-.24-.55,0-.4.23Z"/><path d="M95.65,86.49a6,6,0,0,0,3.24,1,.1.1,0,0,0,0-.2,7.11,7.11,0,0,1-3.12-1c-.13-.08-.25.12-.12.21Z"/><path d="M95.83,84.78a8.37,8.37,0,0,0,3.89,2,14.8,14.8,0,0,0,2.48.34,9.84,9.84,0,0,0,2.6-.09.12.12,0,0,0,0-.23,14.14,14.14,0,0,0-2.43-.19,16.5,16.5,0,0,1-2.42-.3,7.85,7.85,0,0,1-3.82-1.81c-.2-.18-.49.1-.3.29Z"/><path d="M103.43,86a9,9,0,0,1,.92.48c.15.08.3.18.44.27a2.55,2.55,0,0,0,.46.25c.1,0,.22-.1.15-.19a1.61,1.61,0,0,0-.4-.34l-.46-.27c-.31-.18-.63-.33-1-.48a.17.17,0,0,0-.22.06.16.16,0,0,0,.06.22Z"/><path d="M105.44,86.39l.56,1a4.49,4.49,0,0,0,.63,1,.1.1,0,0,0,.17-.09,5.1,5.1,0,0,0-.51-1l-.59-1a.15.15,0,0,0-.26.15Z"/><path d="M91.1,81.6a9.08,9.08,0,0,0,1.11,4.33c.08.15.34,0,.28-.11a19.12,19.12,0,0,1-.71-2,10.61,10.61,0,0,1-.31-2.17.19.19,0,0,0-.37,0Z"/><path d="M87.82,78.63A5,5,0,0,0,85,81.72a4.62,4.62,0,0,0,.86,4.33c.1.1.28,0,.2-.15a4.89,4.89,0,0,1-.75-4.14A4.7,4.7,0,0,1,88,78.87c.17-.07,0-.31-.14-.24Z"/><path d="M111,98.24a3.14,3.14,0,0,0,2.54.23.27.27,0,0,0,.12-.45l-.66-.63-.12.43c.36-.08.72-.16,1.08-.26.2-.06.17-.38,0-.36-.37,0-.73.07-1.1.11s-.36.27-.19.44.43.44.65.65l.12-.44a2.64,2.64,0,0,1-2.15-.11c-.26-.13-.49.25-.24.39Z"/><path d="M114.1,96.93l.7.4a.82.82,0,0,0,.33.15.34.34,0,0,0,.32-.15,1.32,1.32,0,0,0,.14-.65c0-.14,0-.27,0-.4a1.3,1.3,0,0,0,0-.44l-.25.25.1,0-.12,0a1.31,1.31,0,0,0,1.37.29.19.19,0,0,0,.12-.21.18.18,0,0,0-.21-.12,1,1,0,0,1-1-.19l.05.12s0-.07,0-.11a.21.21,0,0,0-.38,0,2.06,2.06,0,0,0-.1.62c0,.2,0,.42,0,.62v.06l.06,0s0,0,0,0a1.38,1.38,0,0,0-.27-.14l-.57-.29a.18.18,0,0,0-.19.31Z"/><path d="M116.52,95a3.89,3.89,0,0,0,.25.82c.06.14.12.27.19.4a.76.76,0,0,0,.31.33c.07,0,.19,0,.18-.1a.6.6,0,0,0-.06-.22,1.63,1.63,0,0,0-.09-.19c-.06-.12-.12-.23-.18-.36a5,5,0,0,1-.24-.78.2.2,0,0,0-.23-.13.19.19,0,0,0-.13.23Z"/><path d="M116,95.54l.41.42.2.21a.94.94,0,0,1,.1.1l.14.09c.08,0,.17,0,.12-.12a.57.57,0,0,0-.08-.13.94.94,0,0,0-.1-.1l-.21-.22-.41-.41a.11.11,0,0,0-.17,0,.1.1,0,0,0,0,.16Z"/><path d="M145.06,104.66h10.09a.23.23,0,0,0,0-.46H145.06a.23.23,0,0,0,0,.46Z"/><path d="M155.08,104.66h.07s0,0,0,0l0,0h0l0,0a0,0,0,0,1,0,0s0,0,0,0l0,.06,0,.07c0-.05,0,0,0,0s0,0,0,.07,0,0,0,0v0a1.34,1.34,0,0,1,0,.2h0v0s0,.06,0,.09l-.06.21a.22.22,0,0,0,.17.28.24.24,0,0,0,.29-.16,1.66,1.66,0,0,0,.05-1,.82.82,0,0,0-.6-.57.24.24,0,0,0-.29.16.23.23,0,0,0,.16.29Z"/><path d="M76.53,138.62a13.81,13.81,0,0,0-1.24,1.81,2,2,0,0,0-.31,1.86,1.2,1.2,0,0,0,1.55.59,2.52,2.52,0,0,0,.85-.54c.29-.27.58-.54.85-.82a15.4,15.4,0,0,0,1.82-2c.09-.12-.08-.28-.21-.2A17.13,17.13,0,0,0,77.93,141c-.31.28-.6.57-.91.86a1.75,1.75,0,0,1-.9.56.59.59,0,0,1-.65-.44,1.64,1.64,0,0,1,.18-1.06,15.47,15.47,0,0,1,1.14-2.07c.09-.15-.15-.34-.26-.19Z"/><path d="M90.28,119.11c-.65,3.56-1.34,7.12-2.16,10.65-.08.32.43.46.5.14.69-3.57,1.39-7.12,2-10.7,0-.21-.3-.31-.34-.09Z"/><path d="M87.94,130.34c1.8,3.46,4.14,6.67,5.62,10.29.16.39.76.15.55-.23-1.83-3.48-3.85-6.86-5.92-10.2a.14.14,0,0,0-.25.14Z"/><path d="M94.33,140.87c2.68-.15,5.35-.43,8-.61s5.36-.3,8-.42l2.21-.1c.78,0,1.56-.05,2.34-.13a.19.19,0,0,0,0-.38c-1.34,0-2.69.06-4,.12l-4,.2c-2.67.16-5.35.33-8,.46-1.52.07-3,.21-4.54.38-.3,0-.32.5,0,.48Z"/><path d="M94.84,139.23l1.57-.08A7.34,7.34,0,0,0,98,139c.19-.05.21-.36,0-.39a8,8,0,0,0-1.55,0l-1.57.1c-.32,0-.32.51,0,.5Z"/><path d="M126.22,128.28c-4.41.6-7.88,3.82-9.85,7.57-.28.54-.53,1.1-.77,1.66a12.45,12.45,0,0,0-.65,1.8c0,.19.26.34.34.14.21-.48.37-1,.57-1.47s.44-1,.69-1.51a18.9,18.9,0,0,1,1.69-2.71,13.63,13.63,0,0,1,4.76-4,11.74,11.74,0,0,1,3.31-1.11c.23,0,.13-.37-.09-.34Z"/><path d="M117.51,136.1a17.39,17.39,0,0,0-1,2.13c-.14.36-.26.74-.37,1.11a3.9,3.9,0,0,0-.14.59.72.72,0,0,0,0,.48.12.12,0,0,0,.15,0,.66.66,0,0,0,.24-.4,4.2,4.2,0,0,0,.17-.5c.11-.37.24-.74.37-1.11a16.67,16.67,0,0,1,1-2.11.22.22,0,0,0-.38-.22Z"/><path d="M132.26,141.24a1.27,1.27,0,0,1-.83,1.17A1.31,1.31,0,0,1,130,142a1.24,1.24,0,0,1-.1-1.42,1.29,1.29,0,0,1,1.32-.59,1.26,1.26,0,0,1,1,1.23.24.24,0,0,0,.47,0,1.73,1.73,0,0,0-1.14-1.6,1.77,1.77,0,0,0-1.94.5,1.7,1.7,0,0,0-.16,2,1.76,1.76,0,0,0,1.83.8,1.72,1.72,0,0,0,1.41-1.67A.24.24,0,0,0,132.26,141.24Z"/><path d="M124.57,80.44a18.44,18.44,0,0,1-1.14,6.14,14.4,14.4,0,0,1-3.35,5.28,17.27,17.27,0,0,1-2.92,2.33.23.23,0,0,0,.23.4,14.3,14.3,0,0,0,7.3-10.51,19.29,19.29,0,0,0,.2-3.64c0-.19-.32-.19-.32,0Z"/><path d="M109.85,98.19q2.34-1,4.64-2a19.39,19.39,0,0,0,4-2.44c.07-.06,0-.19-.11-.14a40.65,40.65,0,0,1-4.17,2.1c-1.51.72-3,1.44-4.49,2.2-.17.09,0,.4.14.32Z"/><path d="M81.33,123.2a3.53,3.53,0,0,0-2.76,2,1.92,1.92,0,0,0-.13,1.83,4.8,4.8,0,0,0,1.3,1.57c.2.16.48-.12.28-.28A4.92,4.92,0,0,1,78.88,127a1.44,1.44,0,0,1-.23-.81,2.33,2.33,0,0,1,.31-.87,3.12,3.12,0,0,1,2.37-1.7c.26,0,.26-.42,0-.39Z"/><path d="M139.38,127.72c1.3-1,2.64-2,3.92-3.12.2-.17-.07-.52-.29-.37a44.77,44.77,0,0,0-3.91,3.21c-.2.17.08.43.28.28Z"/><path d="M140,128.85c.84-.73,1.73-1.4,2.61-2.08l1.35-1,.62-.51.33-.27s.26-.23.23-.23c.26,0,.48-.22.31-.45a.29.29,0,0,0-.52.17s-.25.21-.29.24l-.31.24-.63.49-1.39,1.07a29,29,0,0,0-2.53,2.15c-.15.15.07.36.22.23Z"/><path d="M96.27,105.89c-.26.5-.49,1-.74,1.5a3,3,0,0,1-.73,1.06.68.68,0,0,1-.92-.18,1.67,1.67,0,0,1-.39-1.18,4.76,4.76,0,0,1,1.28-3c.54-.6,1.51-1.29,2.33-.75.37.24.26.6.09,1-.27.55-.62,1.07-.92,1.61-.14.26.27.5.41.23.31-.58.7-1.13,1-1.74a1.14,1.14,0,0,0,0-1.18c-.71-.91-2-.47-2.76.13A5.26,5.26,0,0,0,93,106.78a2.48,2.48,0,0,0,.28,1.51,1.47,1.47,0,0,0,1.15.75c.55,0,.92-.48,1.17-.89.4-.65.68-1.36,1-2C96.81,105.86,96.41,105.63,96.27,105.89Z"/><path d="M93.93,104.56c-.89.08-1.57,1-2.06,1.66a23.46,23.46,0,0,0-2,3.21c-.27.51-.53,1-.78,1.55-.13.26.27.5.4.23a35.85,35.85,0,0,1,2-3.65,12.67,12.67,0,0,1,1.28-1.73c.28-.31.69-.77,1.14-.81.3,0,.3-.49,0-.46Z"/><path d="M93.19,105.8a11.43,11.43,0,0,0-1.72,2.42c-.54.94-1,1.91-1.53,2.86-.14.26.26.49.4.23.5-.93,1-1.87,1.49-2.78a10.9,10.9,0,0,1,1.69-2.41c.22-.21-.11-.53-.33-.32Z"/><path d="M89.19,111.36a.85.85,0,0,0,1.06.13.3.3,0,0,0,.11-.14.22.22,0,0,0,0-.18.23.23,0,0,0-.32-.08l-.11.06,0,0a.58.58,0,0,1-.14,0h0l-.15,0,.06,0-.11-.06h0l0,0,0,0a.23.23,0,1,0-.33.33Z"/><path d="M87.91,142.3c3.54,0,7.08-.15,10.62-.34s7.31-.39,11-.61q6-.36,11.93-.82c3.49-.26,7-.53,10.46-.84,1.52-.14,3.05-.28,4.57-.46a38.15,38.15,0,0,0,3.82-.54l.71-.16c.2-.05.11-.34-.08-.3a34.91,34.91,0,0,1-3.53.52c-1.49.17-3,.31-4.47.44-3.38.29-6.77.53-10.15.78-4,.29-7.91.57-11.87.8-3.69.22-7.37.41-11,.64s-7.11.44-10.67.52l-1.26,0a.18.18,0,0,0,0,.35Z"/><path d="M132,126.78a26.62,26.62,0,0,1,3.09.13,12.92,12.92,0,0,1,2.82.49,2.35,2.35,0,0,1,1,.6,2.74,2.74,0,0,1,.56,1.18c.09.39.16.78.22,1.17l.09.71,0,.27a1.1,1.1,0,0,1,.05.4c-.17.57.87.36.55-.07-.13-.17-.09-.59-.11-.79l-.06-.68a7.49,7.49,0,0,0-.28-1.33,2.83,2.83,0,0,0-1.64-1.85,10.71,10.71,0,0,0-2.91-.56,20.68,20.68,0,0,0-3.43,0c-.22,0-.23.36,0,.35Z"/><path class="cls-13" d="M102.2,83.6c-.64-.27-1,.64-.41,1a19.22,19.22,0,0,1,1.75,1.19,10,10,0,0,0,1.51,1.1.15.15,0,0,0,.21-.16C105.11,85.21,103.45,84.15,102.2,83.6Z"/><path class="cls-13" d="M105.92,87.24c-.25-.31-.77.07-.51.37a1.54,1.54,0,0,1,.28.61c.07.2.31.15.4,0A.89.89,0,0,0,105.92,87.24Z"/><path d="M138.69,120.12v.18h-1v0l.68-1h-.64V119h1v0l-.68,1Z"/><path d="M140.14,119.75h-1.09a.44.44,0,0,0,.45.39.46.46,0,0,0,.4-.22h.21a.64.64,0,0,1-.61.41.66.66,0,1,1,.65-.65A.17.17,0,0,1,140.14,119.75Zm-1.09-.18h.89a.43.43,0,0,0-.44-.37A.44.44,0,0,0,139.05,119.57Z"/><path d="M141.15,119v.18H141a.36.36,0,0,0-.37.4v.68h-.2V119h.15l0,.19A.48.48,0,0,1,141,119Z"/><path d="M141.23,119.67a.68.68,0,1,1,.68.66A.65.65,0,0,1,141.23,119.67Zm1.16,0a.48.48,0,0,0-.95,0,.48.48,0,0,0,.95,0Z"/><path d="M144.14,118.59v1.71H144l0-.18a.66.66,0,0,1-.5.21.66.66,0,1,1,0-1.32.66.66,0,0,1,.48.19v-.61Zm-.19,1.08a.45.45,0,0,0-.47-.46.45.45,0,0,0-.47.46.47.47,0,0,0,.94,0Z"/><path d="M145.75,119.75h-1.1a.45.45,0,0,0,.46.39.47.47,0,0,0,.4-.22h.21a.66.66,0,0,1-1.27-.25.65.65,0,0,1,.66-.66.63.63,0,0,1,.64.67Zm-1.09-.18h.89a.43.43,0,0,0-.44-.37A.44.44,0,0,0,144.66,119.57Z"/><path d="M146.06,118.59h.2v1.71h-.2Z"/><path d="M146.66,118.6h.22v.22h-.22Zm0,.44h.2v1.26h-.2Z"/><path d="M148.39,119l-.54,1.26h-.18l-.56-1.26h.21l.44,1,.43-1Z"/><path d="M149.8,119.75h-1.09a.43.43,0,0,0,.45.39.46.46,0,0,0,.4-.22h.21a.64.64,0,0,1-.61.41.66.66,0,1,1,.65-.65A.17.17,0,0,1,149.8,119.75Zm-1.09-.18h.89a.43.43,0,0,0-.44-.37A.44.44,0,0,0,148.71,119.57Z"/><path d="M150.81,119v.18h-.13a.36.36,0,0,0-.37.4v.68h-.2V119h.14l0,.19a.48.48,0,0,1,.41-.19Z"/><path d="M152.19,119l-.62,1.31c-.13.3-.26.4-.5.4H151v-.18h.1c.17,0,.24,0,.34-.26l.05-.09-.58-1.18h.22l.46,1,.43-1Z"/><text class="cls-29" transform="translate(141.93 121.75) scale(1.02 1)">partner</text><g id="pin"><path d="M144.66,108.76a3.45,3.45,0,0,0-3.49,3.41c0,2.76,3.49,5.36,3.49,5.36s3.48-2.6,3.48-5.36A3.45,3.45,0,0,0,144.66,108.76Zm0,6.45a2.87,2.87,0,1,1,2.92-2.86A2.89,2.89,0,0,1,144.66,115.21Z"/></g><g id="f76a7ac6-c7a9-4538-b0cf-82220945bf07"><path d="M146.38,110.81l-1.53,3.91a.17.17,0,0,1-.14.1h0a.17.17,0,0,1-.14-.12l-.44-1.87-1.91-.43a.15.15,0,0,1,0-.28l4-1.51a.16.16,0,0,1,.2.09.11.11,0,0,1,0,.11Z"/></g><path class="cls-30" d="M91,92.58s3.61,9.52,12.89,8.66"/><rect x="33.44" y="-35.56" width="17.96" height="86.37" rx="8.88"/><rect class="cls-21" x="51.4" y="-35.56" width="17.96" height="86.37" rx="8.88"/><rect x="69.36" y="-35.56" width="17.96" height="86.37" rx="8.88"/><rect class="cls-21" x="87.31" y="-35.56" width="17.96" height="86.37" rx="8.88"/><rect x="105.27" y="-35.56" width="17.96" height="86.37" rx="8.88"/><rect class="cls-21" x="123.22" y="-35.56" width="17.96" height="86.37" rx="8.88"/><rect x="141.18" y="-35.56" width="17.96" height="86.37" rx="8.88"/><rect class="cls-21" x="159.13" y="-35.56" width="17.96" height="86.37" rx="8.88"/></g><path class="cls-13" d="M66.09,171.45h3.17v1.85H63.59v-1.78l3-3.68h-3V166h5.57v1.78Z"/><path class="cls-13" d="M77.66,170.18H72.6a1.51,1.51,0,0,0,.43,1,1.36,1.36,0,0,0,1,.36,1.18,1.18,0,0,0,1.17-.7h2.38a3.17,3.17,0,0,1-.66,1.29,3.3,3.3,0,0,1-1.2.91,4,4,0,0,1-1.61.32,3.88,3.88,0,0,1-1.91-.46,3.28,3.28,0,0,1-1.31-1.3,4.45,4.45,0,0,1,0-4,3.22,3.22,0,0,1,1.3-1.31,4,4,0,0,1,1.92-.46,3.88,3.88,0,0,1,1.89.45,3.13,3.13,0,0,1,1.28,1.27,3.85,3.85,0,0,1,.47,1.92A4.82,4.82,0,0,1,77.66,170.18Zm-2.25-1.24A1.17,1.17,0,0,0,75,168a1.48,1.48,0,0,0-1-.34,1.39,1.39,0,0,0-1,.33,1.45,1.45,0,0,0-.48.93Z"/><path class="cls-13" d="M82.42,166.27a2.47,2.47,0,0,1,1.31-.35v2.37h-.61a1.89,1.89,0,0,0-1.26.36,1.59,1.59,0,0,0-.42,1.26v3.39H79.2V166h2.24v1.21A2.93,2.93,0,0,1,82.42,166.27Z"/><path class="cls-13" d="M86.52,172.94a3.29,3.29,0,0,1-1.34-1.3,4.27,4.27,0,0,1,0-4,3.39,3.39,0,0,1,1.36-1.32,4.32,4.32,0,0,1,3.88,0,3.39,3.39,0,0,1,1.36,1.32,3.88,3.88,0,0,1,.5,2,3.79,3.79,0,0,1-.51,2,3.32,3.32,0,0,1-1.37,1.31,4.07,4.07,0,0,1-2,.46A4,4,0,0,1,86.52,172.94Zm3-1.94a2.27,2.27,0,0,0,0-2.7,1.5,1.5,0,0,0-2.17,0,2,2,0,0,0-.43,1.36,1.94,1.94,0,0,0,.43,1.35,1.38,1.38,0,0,0,1.06.47A1.48,1.48,0,0,0,89.55,171Z"/><path class="cls-13" d="M93.77,167.66a3.23,3.23,0,0,1,1.16-1.31,3.1,3.1,0,0,1,1.64-.46,2.84,2.84,0,0,1,1.31.3,2.4,2.4,0,0,1,.94.81v-3.38h2.24v9.68H98.82v-1.05a2.28,2.28,0,0,1-.9.84,2.8,2.8,0,0,1-1.35.31,3,3,0,0,1-1.64-.46,3.26,3.26,0,0,1-1.16-1.32,4.45,4.45,0,0,1-.42-2A4.39,4.39,0,0,1,93.77,167.66Zm4.58.67a1.48,1.48,0,0,0-1.13-.49,1.52,1.52,0,0,0-1.13.48,1.81,1.81,0,0,0-.46,1.31,1.84,1.84,0,0,0,.46,1.33,1.56,1.56,0,0,0,2.26,0,2.09,2.09,0,0,0,0-2.64Z"/><path class="cls-13" d="M109.85,170.18h-5.07a1.52,1.52,0,0,0,.44,1,1.36,1.36,0,0,0,1,.36,1.18,1.18,0,0,0,1.17-.7h2.38a3.44,3.44,0,0,1-.66,1.29,3.3,3.3,0,0,1-1.2.91,4,4,0,0,1-1.61.32,3.86,3.86,0,0,1-1.91-.46,3.22,3.22,0,0,1-1.31-1.3,4.49,4.49,0,0,1,0-4,3.24,3.24,0,0,1,1.31-1.31,4,4,0,0,1,1.92-.46,3.84,3.84,0,0,1,1.88.45,3.15,3.15,0,0,1,1.29,1.27,3.85,3.85,0,0,1,.47,1.92C109.89,169.74,109.87,170,109.85,170.18Zm-2.25-1.24a1.15,1.15,0,0,0-.4-.92,1.46,1.46,0,0,0-1-.34,1.43,1.43,0,0,0-1,.33,1.49,1.49,0,0,0-.47.93Z"/><path class="cls-13" d="M113.63,163.62v9.68h-2.24v-9.68Z"/><path class="cls-13" d="M115.74,164.89a1.2,1.2,0,0,1,0-1.73,1.36,1.36,0,0,1,1-.34,1.33,1.33,0,0,1,1,.34,1.17,1.17,0,0,1,0,1.73,1.34,1.34,0,0,1-1,.35A1.37,1.37,0,0,1,115.74,164.89Zm2.08,1.11v7.3h-2.24V166Z"/><path class="cls-13" d="M123.05,171.2l1.58-5.2H127l-2.6,7.3h-2.76l-2.59-7.3h2.4Z"/><path class="cls-13" d="M135.13,170.18h-5.07a1.52,1.52,0,0,0,.44,1,1.36,1.36,0,0,0,.95.36,1.18,1.18,0,0,0,1.17-.7H135a3.44,3.44,0,0,1-.66,1.29,3.3,3.3,0,0,1-1.2.91,4,4,0,0,1-1.61.32,3.86,3.86,0,0,1-1.91-.46,3.22,3.22,0,0,1-1.31-1.3,4.49,4.49,0,0,1,0-4,3.24,3.24,0,0,1,1.31-1.31,4,4,0,0,1,1.92-.46,3.84,3.84,0,0,1,1.88.45,3.15,3.15,0,0,1,1.29,1.27,3.85,3.85,0,0,1,.47,1.92C135.17,169.74,135.15,170,135.13,170.18Zm-2.25-1.24a1.15,1.15,0,0,0-.4-.92,1.46,1.46,0,0,0-1-.34,1.43,1.43,0,0,0-.95.33,1.49,1.49,0,0,0-.47.93Z"/><path class="cls-13" d="M139.89,166.27a2.45,2.45,0,0,1,1.31-.35v2.37h-.62a1.88,1.88,0,0,0-1.25.36,1.59,1.59,0,0,0-.42,1.26v3.39h-2.24V166h2.24v1.21A2.93,2.93,0,0,1,139.89,166.27Z"/><path class="cls-13" d="M150.06,166l-4.58,10.77h-2.41l1.67-3.72-3-7.05h2.5l1.69,4.56,1.68-4.56Z"/><path class="cls-13" d="M84,180a2.81,2.81,0,0,1,1.35-.32,3.1,3.1,0,0,1,1.64.46,3.21,3.21,0,0,1,1.15,1.31,4.27,4.27,0,0,1,.43,2,4.32,4.32,0,0,1-.43,2A3.23,3.23,0,0,1,87,186.76a3,3,0,0,1-1.64.46,2.79,2.79,0,0,1-1.34-.31,2.48,2.48,0,0,1-.91-.81v4.5H80.87V179.82h2.24v1A2.46,2.46,0,0,1,84,180Zm1.83,2.11a1.53,1.53,0,0,0-1.15-.48,1.49,1.49,0,0,0-1.13.49,2.12,2.12,0,0,0,0,2.64,1.52,1.52,0,0,0,1.13.48,1.5,1.5,0,0,0,1.14-.49,2.11,2.11,0,0,0,0-2.64Z"/><path class="cls-13" d="M90.06,181.48a3.23,3.23,0,0,1,1.16-1.31,3.1,3.1,0,0,1,1.64-.46,2.81,2.81,0,0,1,1.35.32,2.31,2.31,0,0,1,.9.82v-1h2.24v7.3H95.11v-1a2.36,2.36,0,0,1-.91.83,2.8,2.8,0,0,1-1.35.31,3,3,0,0,1-1.63-.46,3.26,3.26,0,0,1-1.16-1.32,4.45,4.45,0,0,1-.42-2A4.39,4.39,0,0,1,90.06,181.48Zm4.58.67a1.48,1.48,0,0,0-1.13-.49,1.52,1.52,0,0,0-1.13.48,1.81,1.81,0,0,0-.46,1.31,1.84,1.84,0,0,0,.46,1.33,1.56,1.56,0,0,0,2.26,0,2.09,2.09,0,0,0,0-2.64Z"/><path class="cls-13" d="M102.51,180.09a2.47,2.47,0,0,1,1.31-.35v2.37h-.61a1.89,1.89,0,0,0-1.26.36,1.59,1.59,0,0,0-.42,1.26v3.39H99.3v-7.3h2.23V181A2.93,2.93,0,0,1,102.51,180.09Z"/><path class="cls-13" d="M109.29,185.22v1.9h-1.14a2.75,2.75,0,0,1-1.89-.6,2.42,2.42,0,0,1-.68-1.94v-2.9h-.89v-1.86h.89V178h2.23v1.78h1.47v1.86h-1.47v2.93a.65.65,0,0,0,.16.47.81.81,0,0,0,.52.14Z"/><path class="cls-13" d="M117.36,180.57a3.22,3.22,0,0,1,.76,2.28v4.27H115.9v-4a1.61,1.61,0,0,0-.38-1.13,1.47,1.47,0,0,0-2,0,1.61,1.61,0,0,0-.38,1.13v4h-2.24v-7.3h2.24v1A2.32,2.32,0,0,1,114,180a2.84,2.84,0,0,1,1.29-.28A2.66,2.66,0,0,1,117.36,180.57Z"/><path class="cls-13" d="M126.85,184h-5.06a1.46,1.46,0,0,0,.44,1,1.31,1.31,0,0,0,.94.36,1.18,1.18,0,0,0,1.17-.7h2.38a3.17,3.17,0,0,1-.66,1.29,3.3,3.3,0,0,1-1.2.91,4.25,4.25,0,0,1-3.52-.13,3.37,3.37,0,0,1-1.31-1.31,4.45,4.45,0,0,1,0-4,3.22,3.22,0,0,1,1.3-1.31,4,4,0,0,1,1.92-.46,3.88,3.88,0,0,1,1.89.45,3.15,3.15,0,0,1,1.29,1.27,3.84,3.84,0,0,1,.46,1.92A4.82,4.82,0,0,1,126.85,184Zm-2.25-1.24a1.14,1.14,0,0,0-.39-.91,1.43,1.43,0,0,0-1-.34,1.4,1.4,0,0,0-1,.32,1.45,1.45,0,0,0-.48.93Z"/><path class="cls-13" d="M131.61,180.09a2.47,2.47,0,0,1,1.31-.35v2.37h-.61a1.89,1.89,0,0,0-1.26.36,1.59,1.59,0,0,0-.42,1.26v3.39H128.4v-7.3h2.23V181A3,3,0,0,1,131.61,180.09Z"/></g></g></svg>